Mitr-200.ufo
<glyph name="quotedbl" format="1">
  <advance width="317"/>
  <unicode hex="0022"/>
  <note>
	quotedbl
  </note>
  <outline>
    <contour>
      <point x="237" y="499" type="line" smooth="yes"/>
      <point x="253" y="499"/>
      <point x="259" y="507"/>
      <point x="259" y="522" type="curve" smooth="yes"/>
      <point x="262" y="672" type="line" smooth="yes"/>
      <point x="262" y="687"/>
      <point x="255" y="695"/>
      <point x="239" y="695" type="curve" smooth="yes"/>
      <point x="231" y="695" type="line" smooth="yes"/>
      <point x="215" y="695"/>
      <point x="208" y="687"/>
      <point x="208" y="672" type="curve" smooth="yes"/>
      <point x="211" y="522" type="line" smooth="yes"/>
      <point x="211" y="507"/>
      <point x="217" y="499"/>
      <point x="233" y="499" type="curve" smooth="yes"/>
    </contour>
    <contour>
      <point x="84" y="499" type="line" smooth="yes"/>
      <point x="100" y="499"/>
      <point x="106" y="507"/>
      <point x="106" y="522" type="curve" smooth="yes"/>
      <point x="109" y="672" type="line" smooth="yes"/>
      <point x="109" y="687"/>
      <point x="102" y="695"/>
      <point x="86" y="695" type="curve" smooth="yes"/>
      <point x="78" y="695" type="line" smooth="yes"/>
      <point x="62" y="695"/>
      <point x="55" y="687"/>
      <point x="55" y="672" type="curve" smooth="yes"/>
      <point x="58" y="522" type="line" smooth="yes"/>
      <point x="58" y="507"/>
      <point x="64" y="499"/>
      <point x="80" y="499" type="curve" smooth="yes"/>
    </contour>
  </outline>
</glyph>
<glyph name="numbersign" format="1">
  <advance width="774"/>
  <unicode hex="0023"/>
  <note>
	numbersign
  </note>
  <outline>
    <contour>
      <point x="126" y="0" type="line" smooth="yes"/>
      <point x="134" y="0"/>
      <point x="138" y="3"/>
      <point x="141" y="10" type="curve" smooth="yes"/>
      <point x="216" y="192" type="line"/>
      <point x="443" y="192" type="line"/>
      <point x="370" y="13" type="line" smooth="yes"/>
      <point x="367" y="6"/>
      <point x="367" y="0"/>
      <point x="377" y="0" type="curve" smooth="yes"/>
      <point x="410" y="0" type="line" smooth="yes"/>
      <point x="418" y="0"/>
      <point x="422" y="3"/>
      <point x="425" y="10" type="curve" smooth="yes"/>
      <point x="500" y="192" type="line"/>
      <point x="656" y="192" type="line" smooth="yes"/>
      <point x="671" y="192"/>
      <point x="679" y="196"/>
      <point x="679" y="212" type="curve" smooth="yes"/>
      <point x="679" y="219" type="line" smooth="yes"/>
      <point x="679" y="235"/>
      <point x="671" y="241"/>
      <point x="656" y="241" type="curve" smooth="yes"/>
      <point x="520" y="241" type="line"/>
      <point x="598" y="432" type="line"/>
      <point x="696" y="432" type="line" smooth="yes"/>
      <point x="711" y="432"/>
      <point x="719" y="436"/>
      <point x="719" y="452" type="curve" smooth="yes"/>
      <point x="719" y="459" type="line" smooth="yes"/>
      <point x="719" y="475"/>
      <point x="711" y="481"/>
      <point x="696" y="481" type="curve" smooth="yes"/>
      <point x="618" y="481" type="line"/>
      <point x="695" y="667" type="line" smooth="yes"/>
      <point x="698" y="674"/>
      <point x="698" y="680"/>
      <point x="688" y="680" type="curve" smooth="yes"/>
      <point x="655" y="680" type="line" smooth="yes"/>
      <point x="647" y="680"/>
      <point x="643" y="677"/>
      <point x="640" y="670" type="curve" smooth="yes"/>
      <point x="562" y="481" type="line"/>
      <point x="334" y="481" type="line"/>
      <point x="411" y="667" type="line" smooth="yes"/>
      <point x="414" y="674"/>
      <point x="414" y="680"/>
      <point x="404" y="680" type="curve" smooth="yes"/>
      <point x="371" y="680" type="line" smooth="yes"/>
      <point x="363" y="680"/>
      <point x="359" y="677"/>
      <point x="356" y="670" type="curve" smooth="yes"/>
      <point x="278" y="481" type="line"/>
      <point x="118" y="481" type="line" smooth="yes"/>
      <point x="103" y="481"/>
      <point x="95" y="475"/>
      <point x="95" y="459" type="curve" smooth="yes"/>
      <point x="95" y="452" type="line" smooth="yes"/>
      <point x="95" y="436"/>
      <point x="103" y="432"/>
      <point x="118" y="432" type="curve" smooth="yes"/>
      <point x="258" y="432" type="line"/>
      <point x="179" y="241" type="line"/>
      <point x="78" y="241" type="line" smooth="yes"/>
      <point x="63" y="241"/>
      <point x="55" y="235"/>
      <point x="55" y="219" type="curve" smooth="yes"/>
      <point x="55" y="212" type="line" smooth="yes"/>
      <point x="55" y="196"/>
      <point x="63" y="192"/>
      <point x="78" y="192" type="curve" smooth="yes"/>
      <point x="159" y="192" type="line"/>
      <point x="86" y="13" type="line" smooth="yes"/>
      <point x="83" y="6"/>
      <point x="83" y="0"/>
      <point x="93" y="0" type="curve" smooth="yes"/>
    </contour>
    <contour>
      <point x="314" y="432" type="line"/>
      <point x="542" y="432" type="line"/>
      <point x="463" y="241" type="line"/>
      <point x="236" y="241" type="line"/>
    </contour>
  </outline>
</glyph>
<glyph name="dollar" format="1">
  <advance width="572"/>
  <unicode hex="0024"/>
  <note>
	dollar
  </note>
  <outline>
    <contour>
      <point x="304" y="-93" type="line" smooth="yes"/>
      <point x="320" y="-93"/>
      <point x="327" y="-85"/>
      <point x="327" y="-70" type="curve" smooth="yes"/>
      <point x="327" y="-13" type="line"/>
      <point x="452" y="-1"/>
      <point x="517" y="60"/>
      <point x="517" y="160" type="curve" smooth="yes"/>
      <point x="517" y="284"/>
      <point x="439" y="316"/>
      <point x="321" y="358" type="curve" smooth="yes"/>
      <point x="193" y="403"/>
      <point x="125" y="420"/>
      <point x="125" y="518" type="curve" smooth="yes"/>
      <point x="125" y="615"/>
      <point x="193" y="649"/>
      <point x="288" y="649" type="curve" smooth="yes"/>
      <point x="379" y="649"/>
      <point x="431" y="631"/>
      <point x="469" y="607" type="curve" smooth="yes"/>
      <point x="477" y="602"/>
      <point x="479" y="603"/>
      <point x="483" y="610" type="curve" smooth="yes"/>
      <point x="496" y="632" type="line" smooth="yes"/>
      <point x="501" y="640"/>
      <point x="498" y="643"/>
      <point x="491" y="648" type="curve" smooth="yes"/>
      <point x="457" y="671"/>
      <point x="397" y="689"/>
      <point x="327" y="694" type="curve"/>
      <point x="327" y="752" type="line" smooth="yes"/>
      <point x="327" y="767"/>
      <point x="320" y="775"/>
      <point x="304" y="775" type="curve" smooth="yes"/>
      <point x="296" y="775" type="line" smooth="yes"/>
      <point x="280" y="775"/>
      <point x="273" y="767"/>
      <point x="273" y="752" type="curve" smooth="yes"/>
      <point x="273" y="694" type="line"/>
      <point x="156" y="690"/>
      <point x="73" y="634"/>
      <point x="73" y="518" type="curve" smooth="yes"/>
      <point x="73" y="393"/>
      <point x="177" y="355"/>
      <point x="274" y="324" type="curve" smooth="yes"/>
      <point x="404" y="282"/>
      <point x="465" y="257"/>
      <point x="465" y="161" type="curve" smooth="yes"/>
      <point x="465" y="66"/>
      <point x="397" y="31"/>
      <point x="283" y="31" type="curve" smooth="yes"/>
      <point x="211" y="31"/>
      <point x="128" y="48"/>
      <point x="85" y="74" type="curve" smooth="yes"/>
      <point x="77" y="79"/>
      <point x="75" y="78"/>
      <point x="71" y="71" type="curve" smooth="yes"/>
      <point x="58" y="49" type="line" smooth="yes"/>
      <point x="53" y="41"/>
      <point x="56" y="38"/>
      <point x="63" y="33" type="curve"/>
      <point x="113" y="0"/>
      <point x="208" y="-13"/>
      <point x="273" y="-15" type="curve"/>
      <point x="273" y="-70" type="line" smooth="yes"/>
      <point x="273" y="-85"/>
      <point x="280" y="-93"/>
      <point x="296" y="-93" type="curve" smooth="yes"/>
    </contour>
  </outline>
</glyph>
<glyph name="percent" format="1">
  <advance width="731"/>
  <unicode hex="0025"/>
  <note>
	percent
  </note>
  <outline>
    <contour>
      <point x="155" y="0" type="line" smooth="yes"/>
      <point x="163" y="0"/>
      <point x="166" y="4"/>
      <point x="170" y="10" type="curve" smooth="yes"/>
      <point x="620" y="667" type="line" smooth="yes"/>
      <point x="624" y="673"/>
      <point x="623" y="680"/>
      <point x="613" y="680" type="curve" smooth="yes"/>
      <point x="575" y="680" type="line" smooth="yes"/>
      <point x="567" y="680"/>
      <point x="564" y="676"/>
      <point x="560" y="670" type="curve" smooth="yes"/>
      <point x="110" y="13" type="line" smooth="yes"/>
      <point x="106" y="7"/>
      <point x="107" y="0"/>
      <point x="117" y="0" type="curve" smooth="yes"/>
    </contour>
    <contour>
      <point x="612" y="-15"/>
      <point x="676" y="44"/>
      <point x="676" y="128" type="curve" smooth="yes"/>
      <point x="676" y="212"/>
      <point x="612" y="271"/>
      <point x="533" y="271" type="curve" smooth="yes"/>
      <point x="454" y="271"/>
      <point x="390" y="212"/>
      <point x="390" y="128" type="curve" smooth="yes"/>
      <point x="390" y="44"/>
      <point x="454" y="-15"/>
      <point x="533" y="-15" type="curve" smooth="yes"/>
    </contour>
    <contour>
      <point x="480" y="33"/>
      <point x="438" y="72"/>
      <point x="438" y="128" type="curve" smooth="yes"/>
      <point x="438" y="184"/>
      <point x="480" y="223"/>
      <point x="533" y="223" type="curve" smooth="yes"/>
      <point x="586" y="223"/>
      <point x="628" y="184"/>
      <point x="628" y="128" type="curve" smooth="yes"/>
      <point x="628" y="72"/>
      <point x="586" y="33"/>
      <point x="533" y="33" type="curve" smooth="yes"/>
    </contour>
    <contour>
      <point x="277" y="409"/>
      <point x="341" y="468"/>
      <point x="341" y="552" type="curve" smooth="yes"/>
      <point x="341" y="636"/>
      <point x="277" y="695"/>
      <point x="198" y="695" type="curve" smooth="yes"/>
      <point x="119" y="695"/>
      <point x="55" y="636"/>
      <point x="55" y="552" type="curve" smooth="yes"/>
      <point x="55" y="468"/>
      <point x="119" y="409"/>
      <point x="198" y="409" type="curve" smooth="yes"/>
    </contour>
    <contour>
      <point x="145" y="457"/>
      <point x="103" y="496"/>
      <point x="103" y="552" type="curve" smooth="yes"/>
      <point x="103" y="608"/>
      <point x="145" y="647"/>
      <point x="198" y="647" type="curve" smooth="yes"/>
      <point x="251" y="647"/>
      <point x="293" y="608"/>
      <point x="293" y="552" type="curve" smooth="yes"/>
      <point x="293" y="496"/>
      <point x="251" y="457"/>
      <point x="198" y="457" type="curve" smooth="yes"/>
    </contour>
  </outline>
</glyph>
<glyph name="quotesingle" format="1">
  <advance width="164"/>
  <unicode hex="0027"/>
  <note>
	quotesingle
  </note>
  <outline>
    <contour>
      <point x="84" y="499" type="line" smooth="yes"/>
      <point x="100" y="499"/>
      <point x="106" y="507"/>
      <point x="106" y="522" type="curve" smooth="yes"/>
      <point x="109" y="672" type="line" smooth="yes"/>
      <point x="109" y="687"/>
      <point x="102" y="695"/>
      <point x="86" y="695" type="curve" smooth="yes"/>
      <point x="78" y="695" type="line" smooth="yes"/>
      <point x="62" y="695"/>
      <point x="55" y="687"/>
      <point x="55" y="672" type="curve" smooth="yes"/>
      <point x="58" y="522" type="line" smooth="yes"/>
      <point x="58" y="507"/>
      <point x="64" y="499"/>
      <point x="80" y="499" type="curve" smooth="yes"/>
    </contour>
  </outline>
</glyph>
<glyph name="parenright" format="1">
  <advance width="332"/>
  <unicode hex="0029"/>
  <note>
	parenright
  </note>
  <outline>
    <contour>
      <point x="202" y="-63"/>
      <point x="277" y="114"/>
      <point x="277" y="316" type="curve" smooth="yes"/>
      <point x="277" y="518"/>
      <point x="202" y="695"/>
      <point x="67" y="760" type="curve" smooth="yes"/>
      <point x="48" y="769"/>
      <point x="35" y="763"/>
      <point x="35" y="746" type="curve" smooth="yes"/>
      <point x="35" y="727"/>
      <point x="43" y="722"/>
      <point x="58" y="713" type="curve" smooth="yes"/>
      <point x="169" y="645"/>
      <point x="225" y="488"/>
      <point x="225" y="316" type="curve" smooth="yes"/>
      <point x="225" y="144"/>
      <point x="169" y="-13"/>
      <point x="58" y="-81" type="curve" smooth="yes"/>
      <point x="43" y="-90"/>
      <point x="35" y="-95"/>
      <point x="35" y="-114" type="curve" smooth="yes"/>
      <point x="35" y="-131"/>
      <point x="48" y="-137"/>
      <point x="67" y="-128" type="curve" smooth="yes"/>
    </contour>
  </outline>
</glyph>
<glyph name="asterisk" format="1">
  <advance width="412"/>
  <unicode hex="002A"/>
  <note>
	asterisk
  </note>
  <outline>
    <contour>
      <point x="331" y="418" type="line" smooth="yes"/>
      <point x="339" y="425"/>
      <point x="337" y="431"/>
      <point x="331" y="437" type="curve"/>
      <point x="242" y="533" type="line"/>
      <point x="349" y="580" type="line"/>
      <point x="357" y="583"/>
      <point x="359" y="589"/>
      <point x="355" y="595" type="curve"/>
      <point x="342" y="617" type="line" smooth="yes"/>
      <point x="338" y="624"/>
      <point x="335" y="625"/>
      <point x="327" y="621" type="curve" smooth="yes"/>
      <point x="233" y="578" type="line"/>
      <point x="233" y="679" type="line" smooth="yes"/>
      <point x="233" y="694"/>
      <point x="226" y="702"/>
      <point x="210" y="702" type="curve" smooth="yes"/>
      <point x="202" y="702" type="line" smooth="yes"/>
      <point x="186" y="702"/>
      <point x="179" y="694"/>
      <point x="179" y="679" type="curve" smooth="yes"/>
      <point x="179" y="579" type="line"/>
      <point x="85" y="622" type="line" smooth="yes"/>
      <point x="77" y="626"/>
      <point x="74" y="625"/>
      <point x="70" y="618" type="curve" smooth="yes"/>
      <point x="57" y="596" type="line"/>
      <point x="53" y="590"/>
      <point x="55" y="584"/>
      <point x="63" y="581" type="curve"/>
      <point x="170" y="534" type="line"/>
      <point x="81" y="438" type="line"/>
      <point x="75" y="432"/>
      <point x="73" y="426"/>
      <point x="81" y="419" type="curve" smooth="yes"/>
      <point x="99" y="404" type="line" smooth="yes"/>
      <point x="108" y="397"/>
      <point x="112" y="399"/>
      <point x="119" y="407" type="curve" smooth="yes"/>
      <point x="206" y="502" type="line"/>
      <point x="293" y="406" type="line" smooth="yes"/>
      <point x="300" y="398"/>
      <point x="304" y="396"/>
      <point x="313" y="403" type="curve" smooth="yes"/>
    </contour>
  </outline>
</glyph>
<glyph name="period" format="1">
  <advance width="186"/>
  <unicode hex="002E"/>
  <note>
	period
  </note>
  <outline>
    <contour>
      <point x="100" y="0" type="line" smooth="yes"/>
      <point x="119" y="0"/>
      <point x="131" y="15"/>
      <point x="131" y="33" type="curve" smooth="yes"/>
      <point x="131" y="46" type="line" smooth="yes"/>
      <point x="131" y="64"/>
      <point x="118" y="79"/>
      <point x="100" y="79" type="curve" smooth="yes"/>
      <point x="86" y="79" type="line" smooth="yes"/>
      <point x="68" y="79"/>
      <point x="55" y="64"/>
      <point x="55" y="46" type="curve" smooth="yes"/>
      <point x="55" y="33" type="line" smooth="yes"/>
      <point x="55" y="15"/>
      <point x="68" y="0"/>
      <point x="86" y="0" type="curve" smooth="yes"/>
    </contour>
  </outline>
</glyph>
<glyph name="zero" format="1">
  <advance width="738"/>
  <unicode hex="0030"/>
  <note>
	zero
  </note>
  <outline>
    <contour>
      <point x="576" y="-15"/>
      <point x="683" y="116"/>
      <point x="683" y="340" type="curve" smooth="yes"/>
      <point x="683" y="564"/>
      <point x="576" y="695"/>
      <point x="369" y="695" type="curve" smooth="yes"/>
      <point x="162" y="695"/>
      <point x="55" y="564"/>
      <point x="55" y="340" type="curve" smooth="yes"/>
      <point x="55" y="116"/>
      <point x="162" y="-15"/>
      <point x="369" y="-15" type="curve" smooth="yes"/>
    </contour>
    <contour>
      <point x="130" y="158"/>
      <point x="107" y="236"/>
      <point x="107" y="340" type="curve" smooth="yes"/>
      <point x="107" y="543"/>
      <point x="197" y="649"/>
      <point x="369" y="649" type="curve" smooth="yes"/>
      <point x="434" y="649"/>
      <point x="488" y="634"/>
      <point x="529" y="604" type="curve"/>
      <point x="176" y="106" type="line"/>
    </contour>
    <contour>
      <point x="305" y="31"/>
      <point x="253" y="45"/>
      <point x="213" y="73" type="curve"/>
      <point x="565" y="570" type="line"/>
      <point x="608" y="518"/>
      <point x="631" y="441"/>
      <point x="631" y="340" type="curve" smooth="yes"/>
      <point x="631" y="137"/>
      <point x="541" y="31"/>
      <point x="369" y="31" type="curve" smooth="yes"/>
    </contour>
  </outline>
</glyph>
<glyph name="one" format="1">
  <advance width="444"/>
  <unicode hex="0031"/>
  <note>
	one
  </note>
  <outline>
    <contour>
      <point x="386" y="0" type="line" smooth="yes"/>
      <point x="401" y="0"/>
      <point x="409" y="4"/>
      <point x="409" y="20" type="curve" smooth="yes"/>
      <point x="409" y="27" type="line" smooth="yes"/>
      <point x="409" y="43"/>
      <point x="401" y="49"/>
      <point x="386" y="49" type="curve" smooth="yes"/>
      <point x="264" y="49" type="line"/>
      <point x="264" y="657" type="line" smooth="yes"/>
      <point x="264" y="672"/>
      <point x="257" y="680"/>
      <point x="241" y="680" type="curve" smooth="yes"/>
      <point x="235" y="680" type="line" smooth="yes"/>
      <point x="227" y="680"/>
      <point x="221" y="678"/>
      <point x="216" y="675" type="curve" smooth="yes"/>
      <point x="68" y="586" type="line"/>
      <point x="56" y="578"/>
      <point x="52" y="568"/>
      <point x="60" y="555" type="curve"/>
      <point x="64" y="549" type="line"/>
      <point x="72" y="535"/>
      <point x="81" y="536"/>
      <point x="94" y="544" type="curve" smooth="yes"/>
      <point x="210" y="614" type="line"/>
      <point x="210" y="49" type="line"/>
      <point x="88" y="49" type="line" smooth="yes"/>
      <point x="73" y="49"/>
      <point x="65" y="43"/>
      <point x="65" y="27" type="curve" smooth="yes"/>
      <point x="65" y="20" type="line" smooth="yes"/>
      <point x="65" y="4"/>
      <point x="73" y="0"/>
      <point x="88" y="0" type="curve" smooth="yes"/>
    </contour>
  </outline>
</glyph>
<glyph name="two" format="1">
  <advance width="572"/>
  <unicode hex="0032"/>
  <note>
	two
  </note>
  <outline>
    <contour>
      <point x="486" y="0" type="line" smooth="yes"/>
      <point x="501" y="0"/>
      <point x="509" y="4"/>
      <point x="509" y="20" type="curve" smooth="yes"/>
      <point x="509" y="27" type="line" smooth="yes"/>
      <point x="509" y="43"/>
      <point x="501" y="49"/>
      <point x="486" y="49" type="curve" smooth="yes"/>
      <point x="109" y="49" type="line"/>
      <point x="109" y="129"/>
      <point x="175" y="204"/>
      <point x="305" y="268" type="curve" smooth="yes"/>
      <point x="436" y="332"/>
      <point x="517" y="392"/>
      <point x="517" y="514" type="curve" smooth="yes"/>
      <point x="517" y="632"/>
      <point x="414" y="695"/>
      <point x="287" y="695" type="curve" smooth="yes"/>
      <point x="201" y="695"/>
      <point x="124" y="676"/>
      <point x="84" y="648" type="curve" smooth="yes"/>
      <point x="77" y="643"/>
      <point x="74" y="640"/>
      <point x="79" y="632" type="curve" smooth="yes"/>
      <point x="92" y="610" type="line" smooth="yes"/>
      <point x="96" y="603"/>
      <point x="98" y="602"/>
      <point x="106" y="607" type="curve" smooth="yes"/>
      <point x="144" y="631"/>
      <point x="204" y="649"/>
      <point x="287" y="649" type="curve" smooth="yes"/>
      <point x="382" y="649"/>
      <point x="465" y="608"/>
      <point x="465" y="514" type="curve" smooth="yes"/>
      <point x="465" y="416"/>
      <point x="409" y="371"/>
      <point x="265" y="300" type="curve" smooth="yes"/>
      <point x="130" y="233"/>
      <point x="55" y="140"/>
      <point x="55" y="55" type="curve" smooth="yes"/>
      <point x="55" y="23" type="line" smooth="yes"/>
      <point x="55" y="8"/>
      <point x="62" y="0"/>
      <point x="78" y="0" type="curve" smooth="yes"/>
    </contour>
  </outline>
</glyph>
<glyph name="four" format="1">
  <advance width="626"/>
  <unicode hex="0034"/>
  <note>
	four
  </note>
  <outline>
    <contour>
      <point x="453" y="0" type="line" smooth="yes"/>
      <point x="469" y="0"/>
      <point x="476" y="8"/>
      <point x="476" y="23" type="curve" smooth="yes"/>
      <point x="476" y="160" type="line"/>
      <point x="568" y="160" type="line" smooth="yes"/>
      <point x="583" y="160"/>
      <point x="591" y="164"/>
      <point x="591" y="180" type="curve" smooth="yes"/>
      <point x="591" y="187" type="line" smooth="yes"/>
      <point x="591" y="203"/>
      <point x="583" y="209"/>
      <point x="568" y="209" type="curve" smooth="yes"/>
      <point x="476" y="209" type="line"/>
      <point x="476" y="657" type="line" smooth="yes"/>
      <point x="476" y="672"/>
      <point x="469" y="680"/>
      <point x="453" y="680" type="curve" smooth="yes"/>
      <point x="444" y="680" type="line" smooth="yes"/>
      <point x="434" y="680"/>
      <point x="429" y="676"/>
      <point x="424" y="670" type="curve" smooth="yes"/>
      <point x="44" y="209" type="line" smooth="yes"/>
      <point x="37" y="201"/>
      <point x="35" y="194"/>
      <point x="35" y="185" type="curve" smooth="yes"/>
      <point x="35" y="178" type="line" smooth="yes"/>
      <point x="35" y="166"/>
      <point x="42" y="160"/>
      <point x="55" y="160" type="curve" smooth="yes"/>
      <point x="422" y="160" type="line"/>
      <point x="422" y="23" type="line" smooth="yes"/>
      <point x="422" y="8"/>
      <point x="429" y="0"/>
      <point x="445" y="0" type="curve" smooth="yes"/>
    </contour>
    <contour>
      <point x="422" y="595" type="line"/>
      <point x="422" y="209" type="line"/>
      <point x="103" y="209" type="line"/>
    </contour>
  </outline>
</glyph>
<glyph name="five" format="1">
  <advance width="602"/>
  <unicode hex="0035"/>
  <note>
	five
  </note>
  <outline>
    <contour>
      <point x="436" y="-15"/>
      <point x="547" y="66"/>
      <point x="547" y="212" type="curve" smooth="yes"/>
      <point x="547" y="375"/>
      <point x="446" y="443"/>
      <point x="301" y="443" type="curve" smooth="yes"/>
      <point x="225" y="443"/>
      <point x="179" y="434"/>
      <point x="133" y="416" type="curve"/>
      <point x="147" y="631" type="line"/>
      <point x="494" y="631" type="line" smooth="yes"/>
      <point x="509" y="631"/>
      <point x="517" y="637"/>
      <point x="517" y="653" type="curve" smooth="yes"/>
      <point x="517" y="660" type="line" smooth="yes"/>
      <point x="517" y="676"/>
      <point x="509" y="680"/>
      <point x="494" y="680" type="curve" smooth="yes"/>
      <point x="118" y="680" type="line" smooth="yes"/>
      <point x="102" y="680"/>
      <point x="95" y="672"/>
      <point x="95" y="657" type="curve"/>
      <point x="78" y="396" type="line" smooth="yes"/>
      <point x="76" y="367"/>
      <point x="103" y="352"/>
      <point x="127" y="364" type="curve" smooth="yes"/>
      <point x="170" y="385"/>
      <point x="225" y="397"/>
      <point x="290" y="397" type="curve" smooth="yes"/>
      <point x="422" y="397"/>
      <point x="495" y="351"/>
      <point x="495" y="212" type="curve" smooth="yes"/>
      <point x="495" y="91"/>
      <point x="409" y="31"/>
      <point x="278" y="31" type="curve" smooth="yes"/>
      <point x="195" y="31"/>
      <point x="123" y="49"/>
      <point x="85" y="73" type="curve" smooth="yes"/>
      <point x="77" y="78"/>
      <point x="75" y="77"/>
      <point x="71" y="70" type="curve" smooth="yes"/>
      <point x="58" y="48" type="line" smooth="yes"/>
      <point x="53" y="40"/>
      <point x="56" y="37"/>
      <point x="63" y="32" type="curve" smooth="yes"/>
      <point x="103" y="4"/>
      <point x="192" y="-15"/>
      <point x="278" y="-15" type="curve" smooth="yes"/>
    </contour>
  </outline>
</glyph>
<glyph name="eight" format="1">
  <advance width="630"/>
  <unicode hex="0038"/>
  <note>
	eight
  </note>
  <outline>
    <contour>
      <point x="477" y="-15"/>
      <point x="575" y="56"/>
      <point x="575" y="179" type="curve" smooth="yes"/>
      <point x="575" y="268"/>
      <point x="522" y="333"/>
      <point x="441" y="354" type="curve"/>
      <point x="515" y="381"/>
      <point x="554" y="433"/>
      <point x="554" y="508" type="curve" smooth="yes"/>
      <point x="554" y="627"/>
      <point x="470" y="695"/>
      <point x="315" y="695" type="curve" smooth="yes"/>
      <point x="160" y="695"/>
      <point x="76" y="627"/>
      <point x="76" y="508" type="curve" smooth="yes"/>
      <point x="76" y="433"/>
      <point x="115" y="381"/>
      <point x="189" y="354" type="curve"/>
      <point x="108" y="333"/>
      <point x="55" y="268"/>
      <point x="55" y="179" type="curve" smooth="yes"/>
      <point x="55" y="56"/>
      <point x="153" y="-15"/>
      <point x="315" y="-15" type="curve" smooth="yes"/>
    </contour>
    <contour>
      <point x="176" y="31"/>
      <point x="107" y="79"/>
      <point x="107" y="179" type="curve" smooth="yes"/>
      <point x="107" y="278"/>
      <point x="175" y="330"/>
      <point x="315" y="330" type="curve" smooth="yes"/>
      <point x="455" y="330"/>
      <point x="523" y="278"/>
      <point x="523" y="179" type="curve" smooth="yes"/>
      <point x="523" y="79"/>
      <point x="454" y="31"/>
      <point x="315" y="31" type="curve" smooth="yes"/>
    </contour>
    <contour>
      <point x="198" y="377"/>
      <point x="128" y="410"/>
      <point x="128" y="508" type="curve" smooth="yes"/>
      <point x="128" y="611"/>
      <point x="192" y="649"/>
      <point x="315" y="649" type="curve" smooth="yes"/>
      <point x="438" y="649"/>
      <point x="502" y="611"/>
      <point x="502" y="508" type="curve" smooth="yes"/>
      <point x="502" y="410"/>
      <point x="432" y="377"/>
      <point x="315" y="377" type="curve" smooth="yes"/>
    </contour>
  </outline>
</glyph>
<glyph name="less" format="1">
  <advance width="590"/>
  <unicode hex="003C"/>
  <note>
	less
  </note>
  <outline>
    <contour>
      <point x="527" y="31"/>
      <point x="535" y="38"/>
      <point x="535" y="48" type="curve" smooth="yes"/>
      <point x="535" y="67" type="line" smooth="yes"/>
      <point x="535" y="83"/>
      <point x="529" y="87"/>
      <point x="518" y="92" type="curve" smooth="yes"/>
      <point x="123" y="274" type="line"/>
      <point x="518" y="456" type="line" smooth="yes"/>
      <point x="529" y="461"/>
      <point x="535" y="465"/>
      <point x="535" y="481" type="curve" smooth="yes"/>
      <point x="535" y="500" type="line" smooth="yes"/>
      <point x="535" y="510"/>
      <point x="527" y="517"/>
      <point x="517" y="512" type="curve" smooth="yes"/>
      <point x="72" y="303" type="line" smooth="yes"/>
      <point x="60" y="297"/>
      <point x="55" y="292"/>
      <point x="55" y="280" type="curve" smooth="yes"/>
      <point x="55" y="268" type="line" smooth="yes"/>
      <point x="55" y="256"/>
      <point x="60" y="251"/>
      <point x="72" y="245" type="curve" smooth="yes"/>
      <point x="517" y="36" type="line" smooth="yes"/>
    </contour>
  </outline>
</glyph>
<glyph name="question" format="1">
  <advance width="536"/>
  <unicode hex="003F"/>
  <note>
	question
  </note>
  <outline>
    <contour>
      <point x="224" y="140" type="line" smooth="yes"/>
      <point x="240" y="140"/>
      <point x="247" y="148"/>
      <point x="247" y="163" type="curve" smooth="yes"/>
      <point x="247" y="183" type="line" smooth="yes"/>
      <point x="247" y="265"/>
      <point x="267" y="296"/>
      <point x="354" y="342" type="curve" smooth="yes"/>
      <point x="443" y="389"/>
      <point x="481" y="432"/>
      <point x="481" y="518" type="curve" smooth="yes"/>
      <point x="481" y="631"/>
      <point x="392" y="695"/>
      <point x="266" y="695" type="curve" smooth="yes"/>
      <point x="180" y="695"/>
      <point x="103" y="676"/>
      <point x="63" y="648" type="curve" smooth="yes"/>
      <point x="56" y="643"/>
      <point x="53" y="640"/>
      <point x="58" y="632" type="curve" smooth="yes"/>
      <point x="71" y="610" type="line" smooth="yes"/>
      <point x="75" y="603"/>
      <point x="77" y="602"/>
      <point x="85" y="607" type="curve" smooth="yes"/>
      <point x="123" y="631"/>
      <point x="175" y="649"/>
      <point x="266" y="649" type="curve" smooth="yes"/>
      <point x="355" y="649"/>
      <point x="429" y="605"/>
      <point x="429" y="518" type="curve" smooth="yes"/>
      <point x="429" y="449"/>
      <point x="407" y="425"/>
      <point x="308" y="374" type="curve" smooth="yes"/>
      <point x="228" y="333"/>
      <point x="193" y="277"/>
      <point x="193" y="186" type="curve" smooth="yes"/>
      <point x="193" y="163" type="line" smooth="yes"/>
      <point x="193" y="148"/>
      <point x="200" y="140"/>
      <point x="216" y="140" type="curve" smooth="yes"/>
    </contour>
    <contour>
      <point x="227" y="0" type="line" smooth="yes"/>
      <point x="245" y="0"/>
      <point x="258" y="15"/>
      <point x="258" y="33" type="curve" smooth="yes"/>
      <point x="258" y="49" type="line" smooth="yes"/>
      <point x="258" y="67"/>
      <point x="246" y="82"/>
      <point x="227" y="82" type="curve" smooth="yes"/>
      <point x="213" y="82" type="line" smooth="yes"/>
      <point x="195" y="82"/>
      <point x="182" y="67"/>
      <point x="182" y="49" type="curve" smooth="yes"/>
      <point x="182" y="33" type="line" smooth="yes"/>
      <point x="182" y="15"/>
      <point x="195" y="0"/>
      <point x="213" y="0" type="curve" smooth="yes"/>
    </contour>
  </outline>
</glyph>
<glyph name="A" format="1">
  <advance width="720"/>
  <unicode hex="0041"/>
  <note>
	A
  </note>
  <outline>
    <contour>
      <point x="88" y="0" type="line" smooth="yes"/>
      <point x="104" y="0"/>
      <point x="108" y="6"/>
      <point x="113" y="17" type="curve" smooth="yes"/>
      <point x="189" y="197" type="line"/>
      <point x="531" y="197" type="line"/>
      <point x="607" y="17" type="line" smooth="yes"/>
      <point x="612" y="6"/>
      <point x="616" y="0"/>
      <point x="632" y="0" type="curve" smooth="yes"/>
      <point x="651" y="0" type="line" smooth="yes"/>
      <point x="661" y="0"/>
      <point x="667" y="8"/>
      <point x="663" y="18" type="curve" smooth="yes"/>
      <point x="389" y="663" type="line" smooth="yes"/>
      <point x="384" y="676"/>
      <point x="381" y="680"/>
      <point x="369" y="680" type="curve" smooth="yes"/>
      <point x="351" y="680" type="line" smooth="yes"/>
      <point x="339" y="680"/>
      <point x="336" y="676"/>
      <point x="331" y="663" type="curve" smooth="yes"/>
      <point x="57" y="18" type="line" smooth="yes"/>
      <point x="53" y="8"/>
      <point x="59" y="0"/>
      <point x="69" y="0" type="curve" smooth="yes"/>
    </contour>
    <contour>
      <point x="360" y="601" type="line"/>
      <point x="510" y="246" type="line"/>
      <point x="209" y="246" type="line"/>
    </contour>
  </outline>
</glyph>
<glyph name="B" format="1">
  <advance width="647"/>
  <unicode hex="0042"/>
  <note>
	B
  </note>
  <outline>
    <contour>
      <point x="391" y="0" type="line" smooth="yes"/>
      <point x="529" y="0"/>
      <point x="592" y="87"/>
      <point x="592" y="188" type="curve" smooth="yes"/>
      <point x="592" y="265"/>
      <point x="557" y="327"/>
      <point x="467" y="354" type="curve"/>
      <point x="534" y="382"/>
      <point x="570" y="440"/>
      <point x="570" y="505" type="curve" smooth="yes"/>
      <point x="570" y="607"/>
      <point x="510" y="680"/>
      <point x="384" y="680" type="curve" smooth="yes"/>
      <point x="98" y="680" type="line" smooth="yes"/>
      <point x="82" y="680"/>
      <point x="75" y="672"/>
      <point x="75" y="657" type="curve" smooth="yes"/>
      <point x="75" y="23" type="line" smooth="yes"/>
      <point x="75" y="8"/>
      <point x="82" y="0"/>
      <point x="98" y="0" type="curve" smooth="yes"/>
    </contour>
    <contour>
      <point x="129" y="329" type="line"/>
      <point x="372" y="329" type="line" smooth="yes"/>
      <point x="475" y="329"/>
      <point x="540" y="285"/>
      <point x="540" y="188" type="curve" smooth="yes"/>
      <point x="540" y="114"/>
      <point x="502" y="49"/>
      <point x="392" y="49" type="curve" smooth="yes"/>
      <point x="129" y="49" type="line"/>
    </contour>
    <contour>
      <point x="129" y="631" type="line"/>
      <point x="378" y="631" type="line" smooth="yes"/>
      <point x="470" y="631"/>
      <point x="518" y="588"/>
      <point x="518" y="505" type="curve" smooth="yes"/>
      <point x="518" y="437"/>
      <point x="471" y="378"/>
      <point x="379" y="378" type="curve" smooth="yes"/>
      <point x="129" y="378" type="line"/>
    </contour>
  </outline>
</glyph>
<glyph name="D" format="1">
  <advance width="677"/>
  <unicode hex="0044"/>
  <note>
	D
  </note>
  <outline>
    <contour>
      <point x="278" y="0" type="line" smooth="yes"/>
      <point x="485" y="0"/>
      <point x="622" y="87"/>
      <point x="622" y="340" type="curve" smooth="yes"/>
      <point x="622" y="593"/>
      <point x="485" y="680"/>
      <point x="278" y="680" type="curve" smooth="yes"/>
      <point x="98" y="680" type="line" smooth="yes"/>
      <point x="82" y="680"/>
      <point x="75" y="672"/>
      <point x="75" y="657" type="curve" smooth="yes"/>
      <point x="75" y="23" type="line" smooth="yes"/>
      <point x="75" y="8"/>
      <point x="82" y="0"/>
      <point x="98" y="0" type="curve" smooth="yes"/>
    </contour>
    <contour>
      <point x="129" y="631" type="line"/>
      <point x="284" y="631" type="line" smooth="yes"/>
      <point x="459" y="631"/>
      <point x="570" y="561"/>
      <point x="570" y="340" type="curve" smooth="yes"/>
      <point x="570" y="119"/>
      <point x="459" y="49"/>
      <point x="284" y="49" type="curve" smooth="yes"/>
      <point x="129" y="49" type="line"/>
    </contour>
  </outline>
</glyph>
<glyph name="E" format="1">
  <advance width="582"/>
  <unicode hex="0045"/>
  <note>
	E
  </note>
  <outline>
    <contour>
      <point x="514" y="0" type="line" smooth="yes"/>
      <point x="529" y="0"/>
      <point x="537" y="4"/>
      <point x="537" y="20" type="curve" smooth="yes"/>
      <point x="537" y="27" type="line" smooth="yes"/>
      <point x="537" y="43"/>
      <point x="529" y="49"/>
      <point x="514" y="49" type="curve" smooth="yes"/>
      <point x="129" y="49" type="line"/>
      <point x="129" y="316" type="line"/>
      <point x="427" y="316" type="line" smooth="yes"/>
      <point x="442" y="316"/>
      <point x="450" y="322"/>
      <point x="450" y="338" type="curve" smooth="yes"/>
      <point x="450" y="345" type="line" smooth="yes"/>
      <point x="450" y="361"/>
      <point x="442" y="365"/>
      <point x="427" y="365" type="curve" smooth="yes"/>
      <point x="129" y="365" type="line"/>
      <point x="129" y="631" type="line"/>
      <point x="514" y="631" type="line" smooth="yes"/>
      <point x="529" y="631"/>
      <point x="537" y="637"/>
      <point x="537" y="653" type="curve" smooth="yes"/>
      <point x="537" y="660" type="line" smooth="yes"/>
      <point x="537" y="676"/>
      <point x="529" y="680"/>
      <point x="514" y="680" type="curve" smooth="yes"/>
      <point x="98" y="680" type="line" smooth="yes"/>
      <point x="82" y="680"/>
      <point x="75" y="672"/>
      <point x="75" y="657" type="curve" smooth="yes"/>
      <point x="75" y="23" type="line" smooth="yes"/>
      <point x="75" y="8"/>
      <point x="82" y="0"/>
      <point x="98" y="0" type="curve" smooth="yes"/>
    </contour>
  </outline>
</glyph>
<glyph name="J" format="1">
  <advance width="463"/>
  <unicode hex="004A"/>
  <note>
	J
  </note>
  <outline>
    <contour>
      <point x="331" y="-15"/>
      <point x="393" y="66"/>
      <point x="393" y="174" type="curve" smooth="yes"/>
      <point x="393" y="657" type="line" smooth="yes"/>
      <point x="393" y="672"/>
      <point x="386" y="680"/>
      <point x="370" y="680" type="curve" smooth="yes"/>
      <point x="362" y="680" type="line" smooth="yes"/>
      <point x="346" y="680"/>
      <point x="339" y="672"/>
      <point x="339" y="657" type="curve" smooth="yes"/>
      <point x="339" y="172" type="line" smooth="yes"/>
      <point x="339" y="77"/>
      <point x="292" y="31"/>
      <point x="196" y="31" type="curve" smooth="yes"/>
      <point x="148" y="31"/>
      <point x="99" y="42"/>
      <point x="66" y="64" type="curve" smooth="yes"/>
      <point x="58" y="69"/>
      <point x="56" y="68"/>
      <point x="52" y="61" type="curve"/>
      <point x="38" y="39" type="line" smooth="yes"/>
      <point x="33" y="31"/>
      <point x="37" y="26"/>
      <point x="43" y="23" type="curve"/>
      <point x="89" y="-5"/>
      <point x="144" y="-15"/>
      <point x="204" y="-15" type="curve" smooth="yes"/>
    </contour>
  </outline>
</glyph>
<glyph name="L" format="1">
  <advance width="542"/>
  <unicode hex="004C"/>
  <note>
	L
  </note>
  <outline>
    <contour>
      <point x="484" y="0" type="line" smooth="yes"/>
      <point x="499" y="0"/>
      <point x="507" y="4"/>
      <point x="507" y="20" type="curve" smooth="yes"/>
      <point x="507" y="27" type="line" smooth="yes"/>
      <point x="507" y="43"/>
      <point x="499" y="49"/>
      <point x="484" y="49" type="curve" smooth="yes"/>
      <point x="129" y="49" type="line"/>
      <point x="129" y="657" type="line" smooth="yes"/>
      <point x="129" y="672"/>
      <point x="122" y="680"/>
      <point x="106" y="680" type="curve" smooth="yes"/>
      <point x="98" y="680" type="line" smooth="yes"/>
      <point x="82" y="680"/>
      <point x="75" y="672"/>
      <point x="75" y="657" type="curve" smooth="yes"/>
      <point x="75" y="23" type="line" smooth="yes"/>
      <point x="75" y="8"/>
      <point x="82" y="0"/>
      <point x="98" y="0" type="curve" smooth="yes"/>
    </contour>
  </outline>
</glyph>
<glyph name="M" format="1">
  <advance width="794"/>
  <unicode hex="004D"/>
  <note>
	M
  </note>
  <outline>
    <contour>
      <point x="106" y="0" type="line" smooth="yes"/>
      <point x="122" y="0"/>
      <point x="129" y="8"/>
      <point x="129" y="23" type="curve" smooth="yes"/>
      <point x="129" y="561" type="line"/>
      <point x="375" y="14" type="line" smooth="yes"/>
      <point x="379" y="5"/>
      <point x="386" y="0"/>
      <point x="397" y="0" type="curve" smooth="yes"/>
      <point x="409" y="0"/>
      <point x="415" y="5"/>
      <point x="419" y="14" type="curve" smooth="yes"/>
      <point x="665" y="561" type="line"/>
      <point x="665" y="23" type="line" smooth="yes"/>
      <point x="665" y="8"/>
      <point x="672" y="0"/>
      <point x="688" y="0" type="curve" smooth="yes"/>
      <point x="696" y="0" type="line" smooth="yes"/>
      <point x="712" y="0"/>
      <point x="719" y="8"/>
      <point x="719" y="23" type="curve" smooth="yes"/>
      <point x="719" y="657" type="line" smooth="yes"/>
      <point x="719" y="672"/>
      <point x="712" y="680"/>
      <point x="696" y="680" type="curve" smooth="yes"/>
      <point x="682" y="680" type="line" smooth="yes"/>
      <point x="669" y="680"/>
      <point x="662" y="679"/>
      <point x="656" y="665" type="curve" smooth="yes"/>
      <point x="397" y="84" type="line"/>
      <point x="138" y="665" type="line" smooth="yes"/>
      <point x="132" y="679"/>
      <point x="125" y="680"/>
      <point x="112" y="680" type="curve" smooth="yes"/>
      <point x="98" y="680" type="line" smooth="yes"/>
      <point x="82" y="680"/>
      <point x="75" y="672"/>
      <point x="75" y="657" type="curve" smooth="yes"/>
      <point x="75" y="23" type="line" smooth="yes"/>
      <point x="75" y="8"/>
      <point x="82" y="0"/>
      <point x="98" y="0" type="curve" smooth="yes"/>
    </contour>
  </outline>
</glyph>
<glyph name="N" format="1">
  <advance width="696"/>
  <unicode hex="004E"/>
  <note>
	N
  </note>
  <outline>
    <contour>
      <point x="106" y="0" type="line" smooth="yes"/>
      <point x="122" y="0"/>
      <point x="129" y="8"/>
      <point x="129" y="23" type="curve" smooth="yes"/>
      <point x="129" y="597" type="line"/>
      <point x="558" y="15" type="line" smooth="yes"/>
      <point x="567" y="3"/>
      <point x="571" y="0"/>
      <point x="584" y="0" type="curve" smooth="yes"/>
      <point x="598" y="0" type="line" smooth="yes"/>
      <point x="614" y="0"/>
      <point x="621" y="8"/>
      <point x="621" y="23" type="curve" smooth="yes"/>
      <point x="621" y="657" type="line" smooth="yes"/>
      <point x="621" y="672"/>
      <point x="614" y="680"/>
      <point x="598" y="680" type="curve" smooth="yes"/>
      <point x="590" y="680" type="line" smooth="yes"/>
      <point x="574" y="680"/>
      <point x="567" y="672"/>
      <point x="567" y="657" type="curve" smooth="yes"/>
      <point x="567" y="81" type="line"/>
      <point x="138" y="665" type="line" smooth="yes"/>
      <point x="129" y="677"/>
      <point x="125" y="680"/>
      <point x="112" y="680" type="curve" smooth="yes"/>
      <point x="98" y="680" type="line" smooth="yes"/>
      <point x="82" y="680"/>
      <point x="75" y="672"/>
      <point x="75" y="657" type="curve" smooth="yes"/>
      <point x="75" y="23" type="line" smooth="yes"/>
      <point x="75" y="8"/>
      <point x="82" y="0"/>
      <point x="98" y="0" type="curve" smooth="yes"/>
    </contour>
  </outline>
</glyph>
<glyph name="P" format="1">
  <advance width="612"/>
  <unicode hex="0050"/>
  <note>
	P
  </note>
  <outline>
    <contour>
      <point x="106" y="0" type="line" smooth="yes"/>
      <point x="122" y="0"/>
      <point x="129" y="8"/>
      <point x="129" y="23" type="curve" smooth="yes"/>
      <point x="129" y="248" type="line"/>
      <point x="364" y="248" type="line" smooth="yes"/>
      <point x="507" y="248"/>
      <point x="577" y="333"/>
      <point x="577" y="464" type="curve" smooth="yes"/>
      <point x="577" y="595"/>
      <point x="507" y="680"/>
      <point x="365" y="680" type="curve" smooth="yes"/>
      <point x="98" y="680" type="line" smooth="yes"/>
      <point x="82" y="680"/>
      <point x="75" y="672"/>
      <point x="75" y="657" type="curve" smooth="yes"/>
      <point x="75" y="23" type="line" smooth="yes"/>
      <point x="75" y="8"/>
      <point x="82" y="0"/>
      <point x="98" y="0" type="curve" smooth="yes"/>
    </contour>
    <contour>
      <point x="129" y="631" type="line"/>
      <point x="369" y="631" type="line" smooth="yes"/>
      <point x="476" y="631"/>
      <point x="525" y="576"/>
      <point x="525" y="464" type="curve" smooth="yes"/>
      <point x="525" y="352"/>
      <point x="476" y="297"/>
      <point x="369" y="297" type="curve" smooth="yes"/>
      <point x="129" y="297" type="line"/>
    </contour>
  </outline>
</glyph>
<glyph name="R" format="1">
  <advance width="632"/>
  <unicode hex="0052"/>
  <note>
	R
  </note>
  <outline>
    <contour>
      <point x="106" y="0" type="line" smooth="yes"/>
      <point x="122" y="0"/>
      <point x="129" y="8"/>
      <point x="129" y="23" type="curve" smooth="yes"/>
      <point x="129" y="288" type="line"/>
      <point x="364" y="288" type="line"/>
      <point x="374" y="288" type="line"/>
      <point x="494" y="17" type="line" smooth="yes"/>
      <point x="500" y="3"/>
      <point x="503" y="0"/>
      <point x="517" y="0" type="curve" smooth="yes"/>
      <point x="541" y="0" type="line" smooth="yes"/>
      <point x="553" y="0"/>
      <point x="555" y="6"/>
      <point x="551" y="16" type="curve"/>
      <point x="428" y="293" type="line"/>
      <point x="528" y="313"/>
      <point x="577" y="382"/>
      <point x="577" y="484" type="curve" smooth="yes"/>
      <point x="577" y="605"/>
      <point x="507" y="680"/>
      <point x="365" y="680" type="curve" smooth="yes"/>
      <point x="98" y="680" type="line" smooth="yes"/>
      <point x="82" y="680"/>
      <point x="75" y="672"/>
      <point x="75" y="657" type="curve" smooth="yes"/>
      <point x="75" y="23" type="line" smooth="yes"/>
      <point x="75" y="8"/>
      <point x="82" y="0"/>
      <point x="98" y="0" type="curve" smooth="yes"/>
    </contour>
    <contour>
      <point x="129" y="631" type="line"/>
      <point x="369" y="631" type="line" smooth="yes"/>
      <point x="476" y="631"/>
      <point x="525" y="586"/>
      <point x="525" y="484" type="curve" smooth="yes"/>
      <point x="525" y="382"/>
      <point x="476" y="337"/>
      <point x="369" y="337" type="curve" smooth="yes"/>
      <point x="129" y="337" type="line"/>
    </contour>
  </outline>
</glyph>
<glyph name="S" format="1">
  <advance width="572"/>
  <unicode hex="0053"/>
  <note>
	S
  </note>
  <outline>
    <contour>
      <point x="437" y="-15"/>
      <point x="517" y="49"/>
      <point x="517" y="160" type="curve" smooth="yes"/>
      <point x="517" y="284"/>
      <point x="439" y="316"/>
      <point x="321" y="358" type="curve" smooth="yes"/>
      <point x="193" y="403"/>
      <point x="125" y="420"/>
      <point x="125" y="518" type="curve" smooth="yes"/>
      <point x="125" y="615"/>
      <point x="193" y="649"/>
      <point x="288" y="649" type="curve" smooth="yes"/>
      <point x="379" y="649"/>
      <point x="431" y="631"/>
      <point x="469" y="607" type="curve" smooth="yes"/>
      <point x="477" y="602"/>
      <point x="479" y="603"/>
      <point x="483" y="610" type="curve" smooth="yes"/>
      <point x="496" y="632" type="line" smooth="yes"/>
      <point x="501" y="640"/>
      <point x="498" y="643"/>
      <point x="491" y="648" type="curve" smooth="yes"/>
      <point x="451" y="676"/>
      <point x="374" y="695"/>
      <point x="288" y="695" type="curve" smooth="yes"/>
      <point x="164" y="695"/>
      <point x="73" y="639"/>
      <point x="73" y="518" type="curve" smooth="yes"/>
      <point x="73" y="393"/>
      <point x="177" y="355"/>
      <point x="274" y="324" type="curve" smooth="yes"/>
      <point x="404" y="282"/>
      <point x="465" y="257"/>
      <point x="465" y="161" type="curve" smooth="yes"/>
      <point x="465" y="66"/>
      <point x="397" y="31"/>
      <point x="283" y="31" type="curve" smooth="yes"/>
      <point x="211" y="31"/>
      <point x="128" y="48"/>
      <point x="85" y="74" type="curve" smooth="yes"/>
      <point x="77" y="79"/>
      <point x="75" y="78"/>
      <point x="71" y="71" type="curve" smooth="yes"/>
      <point x="58" y="49" type="line" smooth="yes"/>
      <point x="53" y="41"/>
      <point x="56" y="38"/>
      <point x="63" y="33" type="curve"/>
      <point x="116" y="-1"/>
      <point x="219" y="-15"/>
      <point x="283" y="-15" type="curve" smooth="yes"/>
    </contour>
  </outline>
</glyph>
<glyph name="T" format="1">
  <advance width="560"/>
  <unicode hex="0054"/>
  <note>
	T
  </note>
  <outline>
    <contour>
      <point x="284" y="0" type="line" smooth="yes"/>
      <point x="300" y="0"/>
      <point x="307" y="8"/>
      <point x="307" y="23" type="curve" smooth="yes"/>
      <point x="307" y="631" type="line"/>
      <point x="502" y="631" type="line" smooth="yes"/>
      <point x="517" y="631"/>
      <point x="525" y="635"/>
      <point x="525" y="651" type="curve" smooth="yes"/>
      <point x="525" y="658" type="line" smooth="yes"/>
      <point x="525" y="674"/>
      <point x="517" y="680"/>
      <point x="502" y="680" type="curve" smooth="yes"/>
      <point x="58" y="680" type="line" smooth="yes"/>
      <point x="43" y="680"/>
      <point x="35" y="674"/>
      <point x="35" y="658" type="curve" smooth="yes"/>
      <point x="35" y="651" type="line" smooth="yes"/>
      <point x="35" y="635"/>
      <point x="43" y="631"/>
      <point x="58" y="631" type="curve" smooth="yes"/>
      <point x="253" y="631" type="line"/>
      <point x="253" y="23" type="line" smooth="yes"/>
      <point x="253" y="8"/>
      <point x="260" y="0"/>
      <point x="276" y="0" type="curve" smooth="yes"/>
    </contour>
  </outline>
</glyph>
<glyph name="V" format="1">
  <advance width="720"/>
  <unicode hex="0056"/>
  <note>
	V
  </note>
  <outline>
    <contour>
      <point x="369" y="0" type="line" smooth="yes"/>
      <point x="381" y="0"/>
      <point x="384" y="4"/>
      <point x="389" y="17" type="curve" smooth="yes"/>
      <point x="663" y="662" type="line" smooth="yes"/>
      <point x="667" y="672"/>
      <point x="661" y="680"/>
      <point x="651" y="680" type="curve" smooth="yes"/>
      <point x="632" y="680" type="line" smooth="yes"/>
      <point x="616" y="680"/>
      <point x="612" y="674"/>
      <point x="607" y="663" type="curve" smooth="yes"/>
      <point x="360" y="81" type="line"/>
      <point x="113" y="663" type="line" smooth="yes"/>
      <point x="108" y="674"/>
      <point x="104" y="680"/>
      <point x="88" y="680" type="curve" smooth="yes"/>
      <point x="69" y="680" type="line" smooth="yes"/>
      <point x="59" y="680"/>
      <point x="53" y="672"/>
      <point x="57" y="662" type="curve" smooth="yes"/>
      <point x="331" y="17" type="line" smooth="yes"/>
      <point x="336" y="4"/>
      <point x="339" y="0"/>
      <point x="351" y="0" type="curve" smooth="yes"/>
    </contour>
  </outline>
</glyph>
<glyph name="X" format="1">
  <advance width="677"/>
  <unicode hex="0058"/>
  <note>
	X
  </note>
  <outline>
    <contour>
      <point x="93" y="0" type="line" smooth="yes"/>
      <point x="107" y="0"/>
      <point x="109" y="3"/>
      <point x="115" y="10" type="curve"/>
      <point x="338" y="305" type="line"/>
      <point x="562" y="10" type="line"/>
      <point x="568" y="3"/>
      <point x="570" y="0"/>
      <point x="584" y="0" type="curve" smooth="yes"/>
      <point x="613" y="0" type="line" smooth="yes"/>
      <point x="618" y="0"/>
      <point x="622" y="3"/>
      <point x="622" y="8" type="curve" smooth="yes"/>
      <point x="622" y="12"/>
      <point x="621" y="14"/>
      <point x="618" y="18" type="curve" smooth="yes"/>
      <point x="369" y="346" type="line"/>
      <point x="609" y="662" type="line" smooth="yes"/>
      <point x="612" y="666"/>
      <point x="613" y="668"/>
      <point x="613" y="672" type="curve" smooth="yes"/>
      <point x="613" y="677"/>
      <point x="609" y="680"/>
      <point x="604" y="680" type="curve" smooth="yes"/>
      <point x="575" y="680" type="line" smooth="yes"/>
      <point x="561" y="680"/>
      <point x="559" y="677"/>
      <point x="553" y="670" type="curve"/>
      <point x="338" y="387" type="line"/>
      <point x="124" y="670" type="line"/>
      <point x="118" y="677"/>
      <point x="116" y="680"/>
      <point x="102" y="680" type="curve" smooth="yes"/>
      <point x="73" y="680" type="line" smooth="yes"/>
      <point x="68" y="680"/>
      <point x="64" y="677"/>
      <point x="64" y="672" type="curve" smooth="yes"/>
      <point x="64" y="668"/>
      <point x="65" y="666"/>
      <point x="68" y="662" type="curve" smooth="yes"/>
      <point x="307" y="346" type="line"/>
      <point x="59" y="18" type="line" smooth="yes"/>
      <point x="56" y="14"/>
      <point x="55" y="12"/>
      <point x="55" y="8" type="curve" smooth="yes"/>
      <point x="55" y="3"/>
      <point x="59" y="0"/>
      <point x="64" y="0" type="curve" smooth="yes"/>
    </contour>
  </outline>
</glyph>
<glyph name="Z" format="1">
  <advance width="629"/>
  <unicode hex="005A"/>
  <note>
	Z
  </note>
  <outline>
    <contour>
      <point x="551" y="0" type="line" smooth="yes"/>
      <point x="566" y="0"/>
      <point x="574" y="4"/>
      <point x="574" y="20" type="curve" smooth="yes"/>
      <point x="574" y="27" type="line" smooth="yes"/>
      <point x="574" y="43"/>
      <point x="566" y="49"/>
      <point x="551" y="49" type="curve" smooth="yes"/>
      <point x="129" y="49" type="line"/>
      <point x="555" y="623" type="line" smooth="yes"/>
      <point x="566" y="638"/>
      <point x="572" y="648"/>
      <point x="572" y="659" type="curve" smooth="yes"/>
      <point x="572" y="672"/>
      <point x="565" y="680"/>
      <point x="550" y="680" type="curve" smooth="yes"/>
      <point x="96" y="680" type="line" smooth="yes"/>
      <point x="81" y="680"/>
      <point x="73" y="676"/>
      <point x="73" y="660" type="curve" smooth="yes"/>
      <point x="73" y="653" type="line" smooth="yes"/>
      <point x="73" y="637"/>
      <point x="81" y="631"/>
      <point x="96" y="631" type="curve" smooth="yes"/>
      <point x="499" y="631" type="line"/>
      <point x="72" y="57" type="line" smooth="yes"/>
      <point x="61" y="42"/>
      <point x="55" y="32"/>
      <point x="55" y="21" type="curve" smooth="yes"/>
      <point x="55" y="8"/>
      <point x="62" y="0"/>
      <point x="77" y="0" type="curve" smooth="yes"/>
    </contour>
  </outline>
</glyph>
<glyph name="asciicircum" format="1">
  <advance width="592"/>
  <unicode hex="005E"/>
  <note>
	asciicircum
  </note>
  <outline>
    <contour>
      <point x="90" y="339" type="line" smooth="yes"/>
      <point x="106" y="339"/>
      <point x="110" y="346"/>
      <point x="116" y="356" type="curve" smooth="yes"/>
      <point x="296" y="660" type="line"/>
      <point x="476" y="356" type="line" smooth="yes"/>
      <point x="482" y="346"/>
      <point x="486" y="339"/>
      <point x="502" y="339" type="curve" smooth="yes"/>
      <point x="522" y="339" type="line" smooth="yes"/>
      <point x="532" y="339"/>
      <point x="540" y="347"/>
      <point x="534" y="357" type="curve" smooth="yes"/>
      <point x="325" y="702" type="line" smooth="yes"/>
      <point x="318" y="713"/>
      <point x="314" y="719"/>
      <point x="302" y="719" type="curve" smooth="yes"/>
      <point x="290" y="719" type="line" smooth="yes"/>
      <point x="278" y="719"/>
      <point x="274" y="713"/>
      <point x="267" y="702" type="curve" smooth="yes"/>
      <point x="58" y="357" type="line" smooth="yes"/>
      <point x="52" y="347"/>
      <point x="60" y="339"/>
      <point x="70" y="339" type="curve" smooth="yes"/>
    </contour>
  </outline>
</glyph>
<glyph name="grave" format="1">
  <advance width="225"/>
  <unicode hex="0060"/>
  <note>
	grave
  </note>
  <outline>
    <contour>
      <point x="160" y="575" type="line" smooth="yes"/>
      <point x="170" y="575"/>
      <point x="172" y="581"/>
      <point x="168" y="591" type="curve" smooth="yes"/>
      <point x="117" y="732" type="line" smooth="yes"/>
      <point x="113" y="743"/>
      <point x="109" y="746"/>
      <point x="95" y="746" type="curve" smooth="yes"/>
      <point x="68" y="746" type="line" smooth="yes"/>
      <point x="56" y="746"/>
      <point x="53" y="740"/>
      <point x="58" y="730" type="curve" smooth="yes"/>
      <point x="125" y="586" type="line" smooth="yes"/>
      <point x="129" y="578"/>
      <point x="134" y="575"/>
      <point x="145" y="575" type="curve" smooth="yes"/>
    </contour>
  </outline>
</glyph>
<glyph name="b" format="1">
  <advance width="612"/>
  <unicode hex="0062"/>
  <note>
	b
  </note>
  <outline>
    <contour>
      <point x="472" y="-15"/>
      <point x="557" y="89"/>
      <point x="557" y="260" type="curve" smooth="yes"/>
      <point x="557" y="410"/>
      <point x="472" y="495"/>
      <point x="330" y="495" type="curve" smooth="yes"/>
      <point x="246" y="495"/>
      <point x="176" y="475"/>
      <point x="129" y="429" type="curve"/>
      <point x="129" y="657" type="line" smooth="yes"/>
      <point x="129" y="672"/>
      <point x="122" y="680"/>
      <point x="106" y="680" type="curve" smooth="yes"/>
      <point x="98" y="680" type="line" smooth="yes"/>
      <point x="82" y="680"/>
      <point x="75" y="672"/>
      <point x="75" y="657" type="curve" smooth="yes"/>
      <point x="75" y="45" type="line"/>
      <point x="118" y="12"/>
      <point x="203" y="-15"/>
      <point x="287" y="-15" type="curve" smooth="yes"/>
    </contour>
    <contour>
      <point x="226" y="31"/>
      <point x="162" y="47"/>
      <point x="129" y="69" type="curve"/>
      <point x="129" y="316" type="line" smooth="yes"/>
      <point x="129" y="410"/>
      <point x="231" y="448"/>
      <point x="310" y="448" type="curve" smooth="yes"/>
      <point x="450" y="448"/>
      <point x="505" y="384"/>
      <point x="505" y="254" type="curve" smooth="yes"/>
      <point x="505" y="106"/>
      <point x="436" y="31"/>
      <point x="287" y="31" type="curve" smooth="yes"/>
    </contour>
  </outline>
</glyph>
<glyph name="c" format="1">
  <advance width="569"/>
  <unicode hex="0063"/>
  <note>
	c
  </note>
  <outline>
    <contour>
      <point x="399" y="-15"/>
      <point x="457" y="2"/>
      <point x="506" y="34" type="curve" smooth="yes"/>
      <point x="514" y="39"/>
      <point x="515" y="43"/>
      <point x="511" y="50" type="curve" smooth="yes"/>
      <point x="498" y="72" type="line" smooth="yes"/>
      <point x="494" y="79"/>
      <point x="491" y="80"/>
      <point x="484" y="75" type="curve" smooth="yes"/>
      <point x="446" y="48"/>
      <point x="397" y="31"/>
      <point x="328" y="31" type="curve" smooth="yes"/>
      <point x="190" y="31"/>
      <point x="107" y="96"/>
      <point x="107" y="237" type="curve" smooth="yes"/>
      <point x="107" y="367"/>
      <point x="187" y="449"/>
      <point x="317" y="449" type="curve" smooth="yes"/>
      <point x="393" y="449"/>
      <point x="439" y="433"/>
      <point x="477" y="406" type="curve"/>
      <point x="485" y="401"/>
      <point x="487" y="402"/>
      <point x="491" y="409" type="curve" smooth="yes"/>
      <point x="504" y="431" type="line" smooth="yes"/>
      <point x="509" y="439"/>
      <point x="506" y="442"/>
      <point x="499" y="447" type="curve" smooth="yes"/>
      <point x="448" y="483"/>
      <point x="390" y="495"/>
      <point x="313" y="495" type="curve" smooth="yes"/>
      <point x="159" y="495"/>
      <point x="55" y="389"/>
      <point x="55" y="237" type="curve" smooth="yes"/>
      <point x="55" y="73"/>
      <point x="158" y="-15"/>
      <point x="325" y="-15" type="curve" smooth="yes"/>
    </contour>
  </outline>
</glyph>
<glyph name="f" format="1">
  <advance width="409"/>
  <unicode hex="0066"/>
  <note>
	f
  </note>
  <outline>
    <contour>
      <point x="148" y="0" type="line" smooth="yes"/>
      <point x="164" y="0"/>
      <point x="171" y="8"/>
      <point x="171" y="23" type="curve" smooth="yes"/>
      <point x="171" y="431" type="line"/>
      <point x="333" y="431" type="line" smooth="yes"/>
      <point x="348" y="431"/>
      <point x="356" y="437"/>
      <point x="356" y="453" type="curve" smooth="yes"/>
      <point x="356" y="460" type="line" smooth="yes"/>
      <point x="356" y="476"/>
      <point x="348" y="480"/>
      <point x="333" y="480" type="curve" smooth="yes"/>
      <point x="171" y="480" type="line"/>
      <point x="171" y="536" type="line" smooth="yes"/>
      <point x="171" y="610"/>
      <point x="195" y="649"/>
      <point x="269" y="649" type="curve" smooth="yes"/>
      <point x="309" y="649"/>
      <point x="334" y="639"/>
      <point x="363" y="620" type="curve" smooth="yes"/>
      <point x="371" y="615"/>
      <point x="373" y="616"/>
      <point x="377" y="623" type="curve"/>
      <point x="391" y="645" type="line" smooth="yes"/>
      <point x="396" y="653"/>
      <point x="391" y="657"/>
      <point x="386" y="661" type="curve"/>
      <point x="352" y="684"/>
      <point x="310" y="695"/>
      <point x="267" y="695" type="curve" smooth="yes"/>
      <point x="163" y="695"/>
      <point x="117" y="631"/>
      <point x="117" y="539" type="curve" smooth="yes"/>
      <point x="117" y="480" type="line"/>
      <point x="58" y="480" type="line" smooth="yes"/>
      <point x="43" y="480"/>
      <point x="35" y="476"/>
      <point x="35" y="460" type="curve" smooth="yes"/>
      <point x="35" y="453" type="line" smooth="yes"/>
      <point x="35" y="437"/>
      <point x="43" y="431"/>
      <point x="58" y="431" type="curve" smooth="yes"/>
      <point x="117" y="431" type="line"/>
      <point x="117" y="23" type="line" smooth="yes"/>
      <point x="117" y="8"/>
      <point x="124" y="0"/>
      <point x="140" y="0" type="curve" smooth="yes"/>
    </contour>
  </outline>
</glyph>
<glyph name="g" format="1">
  <advance width="612"/>
  <unicode hex="0067"/>
  <note>
	g
  </note>
  <outline>
    <contour>
      <point x="477" y="-170"/>
      <point x="537" y="-82"/>
      <point x="537" y="71" type="curve" smooth="yes"/>
      <point x="537" y="444" type="line"/>
      <point x="494" y="472"/>
      <point x="411" y="495"/>
      <point x="334" y="495" type="curve" smooth="yes"/>
      <point x="157" y="495"/>
      <point x="55" y="392"/>
      <point x="55" y="221" type="curve" smooth="yes"/>
      <point x="55" y="71"/>
      <point x="148" y="-15"/>
      <point x="286" y="-15" type="curve" smooth="yes"/>
      <point x="373" y="-15"/>
      <point x="435" y="10"/>
      <point x="483" y="71" type="curve"/>
      <point x="483" y="-75"/>
      <point x="432" y="-124"/>
      <point x="320" y="-124" type="curve" smooth="yes"/>
      <point x="255" y="-124"/>
      <point x="196" y="-109"/>
      <point x="158" y="-88" type="curve"/>
      <point x="150" y="-83"/>
      <point x="148" y="-84"/>
      <point x="144" y="-91" type="curve" smooth="yes"/>
      <point x="129" y="-117" type="line"/>
      <point x="124" y="-125"/>
      <point x="128" y="-130"/>
      <point x="134" y="-133" type="curve" smooth="yes"/>
      <point x="186" y="-158"/>
      <point x="252" y="-170"/>
      <point x="323" y="-170" type="curve" smooth="yes"/>
    </contour>
    <contour>
      <point x="172" y="32"/>
      <point x="107" y="97"/>
      <point x="107" y="227" type="curve" smooth="yes"/>
      <point x="107" y="375"/>
      <point x="192" y="449"/>
      <point x="334" y="449" type="curve" smooth="yes"/>
      <point x="393" y="449"/>
      <point x="450" y="437"/>
      <point x="483" y="420" type="curve"/>
      <point x="483" y="184" type="line" smooth="yes"/>
      <point x="483" y="88"/>
      <point x="392" y="32"/>
      <point x="303" y="32" type="curve" smooth="yes"/>
    </contour>
  </outline>
</glyph>
<glyph name="j" format="1">
  <advance width="258"/>
  <unicode hex="006A"/>
  <note>
	j
  </note>
  <outline>
    <contour>
      <point x="130" y="-170"/>
      <point x="172" y="-112"/>
      <point x="172" y="-20" type="curve" smooth="yes"/>
      <point x="172" y="457" type="line" smooth="yes"/>
      <point x="172" y="472"/>
      <point x="165" y="480"/>
      <point x="149" y="480" type="curve" smooth="yes"/>
      <point x="141" y="480" type="line" smooth="yes"/>
      <point x="125" y="480"/>
      <point x="118" y="472"/>
      <point x="118" y="457" type="curve" smooth="yes"/>
      <point x="118" y="-17" type="line" smooth="yes"/>
      <point x="118" y="-91"/>
      <point x="98" y="-124"/>
      <point x="24" y="-124" type="curve" smooth="yes"/>
      <point x="-16" y="-124"/>
      <point x="-45" y="-114"/>
      <point x="-74" y="-95" type="curve" smooth="yes"/>
      <point x="-82" y="-90"/>
      <point x="-84" y="-91"/>
      <point x="-88" y="-98" type="curve"/>
      <point x="-102" y="-120" type="line" smooth="yes"/>
      <point x="-107" y="-128"/>
      <point x="-102" y="-132"/>
      <point x="-97" y="-136" type="curve"/>
      <point x="-63" y="-159"/>
      <point x="-17" y="-170"/>
      <point x="26" y="-170" type="curve" smooth="yes"/>
    </contour>
    <contour>
      <point x="152" y="596" type="line" smooth="yes"/>
      <point x="171" y="596"/>
      <point x="183" y="611"/>
      <point x="183" y="629" type="curve" smooth="yes"/>
      <point x="183" y="647" type="line" smooth="yes"/>
      <point x="183" y="665"/>
      <point x="170" y="680"/>
      <point x="152" y="680" type="curve" smooth="yes"/>
      <point x="138" y="680" type="line" smooth="yes"/>
      <point x="120" y="680"/>
      <point x="107" y="665"/>
      <point x="107" y="647" type="curve" smooth="yes"/>
      <point x="107" y="629" type="line" smooth="yes"/>
      <point x="107" y="611"/>
      <point x="120" y="596"/>
      <point x="138" y="596" type="curve" smooth="yes"/>
    </contour>
  </outline>
</glyph>
<glyph name="o" format="1">
  <advance width="618"/>
  <unicode hex="006F"/>
  <note>
	o
  </note>
  <outline>
    <contour>
      <point x="476" y="-15"/>
      <point x="563" y="86"/>
      <point x="563" y="240" type="curve" smooth="yes"/>
      <point x="563" y="394"/>
      <point x="476" y="495"/>
      <point x="309" y="495" type="curve" smooth="yes"/>
      <point x="142" y="495"/>
      <point x="55" y="394"/>
      <point x="55" y="240" type="curve" smooth="yes"/>
      <point x="55" y="86"/>
      <point x="142" y="-15"/>
      <point x="309" y="-15" type="curve" smooth="yes"/>
    </contour>
    <contour>
      <point x="177" y="31"/>
      <point x="107" y="107"/>
      <point x="107" y="240" type="curve" smooth="yes"/>
      <point x="107" y="373"/>
      <point x="177" y="449"/>
      <point x="309" y="449" type="curve" smooth="yes"/>
      <point x="441" y="449"/>
      <point x="511" y="373"/>
      <point x="511" y="240" type="curve" smooth="yes"/>
      <point x="511" y="107"/>
      <point x="441" y="31"/>
      <point x="309" y="31" type="curve" smooth="yes"/>
    </contour>
  </outline>
</glyph>
<glyph name="p" format="1">
  <advance width="612"/>
  <unicode hex="0070"/>
  <note>
	p
  </note>
  <outline>
    <contour>
      <point x="106" y="-202" type="line" smooth="yes"/>
      <point x="122" y="-202"/>
      <point x="129" y="-194"/>
      <point x="129" y="-179" type="curve" smooth="yes"/>
      <point x="129" y="71" type="line"/>
      <point x="177" y="10"/>
      <point x="239" y="-15"/>
      <point x="326" y="-15" type="curve" smooth="yes"/>
      <point x="464" y="-15"/>
      <point x="557" y="77"/>
      <point x="557" y="240" type="curve" smooth="yes"/>
      <point x="557" y="411"/>
      <point x="463" y="495"/>
      <point x="278" y="495" type="curve" smooth="yes"/>
      <point x="201" y="495"/>
      <point x="118" y="472"/>
      <point x="75" y="444" type="curve"/>
      <point x="75" y="-179" type="line" smooth="yes"/>
      <point x="75" y="-194"/>
      <point x="82" y="-202"/>
      <point x="98" y="-202" type="curve" smooth="yes"/>
    </contour>
    <contour>
      <point x="220" y="32"/>
      <point x="129" y="88"/>
      <point x="129" y="184" type="curve" smooth="yes"/>
      <point x="129" y="420" type="line"/>
      <point x="162" y="437"/>
      <point x="219" y="449"/>
      <point x="278" y="449" type="curve" smooth="yes"/>
      <point x="427" y="449"/>
      <point x="505" y="394"/>
      <point x="505" y="246" type="curve" smooth="yes"/>
      <point x="505" y="107"/>
      <point x="443" y="32"/>
      <point x="309" y="32" type="curve" smooth="yes"/>
    </contour>
  </outline>
</glyph>
<glyph name="q" format="1">
  <advance width="612"/>
  <unicode hex="0071"/>
  <note>
	q
  </note>
  <outline>
    <contour>
      <point x="514" y="-202" type="line" smooth="yes"/>
      <point x="530" y="-202"/>
      <point x="537" y="-194"/>
      <point x="537" y="-179" type="curve" smooth="yes"/>
      <point x="537" y="444" type="line"/>
      <point x="494" y="472"/>
      <point x="411" y="495"/>
      <point x="334" y="495" type="curve" smooth="yes"/>
      <point x="157" y="495"/>
      <point x="55" y="397"/>
      <point x="55" y="226" type="curve" smooth="yes"/>
      <point x="55" y="76"/>
      <point x="148" y="-15"/>
      <point x="286" y="-15" type="curve" smooth="yes"/>
      <point x="373" y="-15"/>
      <point x="435" y="10"/>
      <point x="483" y="71" type="curve"/>
      <point x="483" y="-179" type="line" smooth="yes"/>
      <point x="483" y="-194"/>
      <point x="490" y="-202"/>
      <point x="506" y="-202" type="curve" smooth="yes"/>
    </contour>
    <contour>
      <point x="169" y="32"/>
      <point x="107" y="102"/>
      <point x="107" y="232" type="curve" smooth="yes"/>
      <point x="107" y="380"/>
      <point x="192" y="449"/>
      <point x="334" y="449" type="curve" smooth="yes"/>
      <point x="393" y="449"/>
      <point x="450" y="437"/>
      <point x="483" y="420" type="curve"/>
      <point x="483" y="184" type="line" smooth="yes"/>
      <point x="483" y="88"/>
      <point x="392" y="32"/>
      <point x="303" y="32" type="curve" smooth="yes"/>
    </contour>
  </outline>
</glyph>
<glyph name="r" format="1">
  <advance width="372"/>
  <unicode hex="0072"/>
  <note>
	r
  </note>
  <outline>
    <contour>
      <point x="106" y="0" type="line" smooth="yes"/>
      <point x="122" y="0"/>
      <point x="129" y="8"/>
      <point x="129" y="23" type="curve" smooth="yes"/>
      <point x="129" y="314" type="line" smooth="yes"/>
      <point x="129" y="402"/>
      <point x="195" y="449"/>
      <point x="276" y="449" type="curve" smooth="yes"/>
      <point x="291" y="449"/>
      <point x="311" y="446"/>
      <point x="321" y="443" type="curve"/>
      <point x="326" y="441"/>
      <point x="331" y="442"/>
      <point x="332" y="448" type="curve" smooth="yes"/>
      <point x="336" y="477" type="line"/>
      <point x="337" y="481"/>
      <point x="336" y="484"/>
      <point x="330" y="488" type="curve"/>
      <point x="323" y="492"/>
      <point x="304" y="495"/>
      <point x="289" y="495" type="curve" smooth="yes"/>
      <point x="212" y="495"/>
      <point x="157" y="462"/>
      <point x="123" y="414" type="curve"/>
      <point x="123" y="457" type="line" smooth="yes"/>
      <point x="123" y="472"/>
      <point x="120" y="480"/>
      <point x="104" y="480" type="curve" smooth="yes"/>
      <point x="94" y="480" type="line" smooth="yes"/>
      <point x="78" y="480"/>
      <point x="75" y="472"/>
      <point x="75" y="457" type="curve" smooth="yes"/>
      <point x="75" y="23" type="line" smooth="yes"/>
      <point x="75" y="8"/>
      <point x="82" y="0"/>
      <point x="98" y="0" type="curve" smooth="yes"/>
    </contour>
  </outline>
</glyph>
<glyph name="u" format="1">
  <advance width="578"/>
  <unicode hex="0075"/>
  <note>
	u
  </note>
  <outline>
    <contour>
      <point x="353" y="-15"/>
      <point x="411" y="23"/>
      <point x="455" y="76" type="curve"/>
      <point x="455" y="23" type="line" smooth="yes"/>
      <point x="455" y="8"/>
      <point x="458" y="0"/>
      <point x="474" y="0" type="curve" smooth="yes"/>
      <point x="484" y="0" type="line" smooth="yes"/>
      <point x="500" y="0"/>
      <point x="503" y="8"/>
      <point x="503" y="23" type="curve" smooth="yes"/>
      <point x="503" y="457" type="line" smooth="yes"/>
      <point x="503" y="472"/>
      <point x="496" y="480"/>
      <point x="480" y="480" type="curve" smooth="yes"/>
      <point x="472" y="480" type="line" smooth="yes"/>
      <point x="456" y="480"/>
      <point x="449" y="472"/>
      <point x="449" y="457" type="curve" smooth="yes"/>
      <point x="449" y="178" type="line" smooth="yes"/>
      <point x="449" y="91"/>
      <point x="364" y="31"/>
      <point x="267" y="31" type="curve" smooth="yes"/>
      <point x="177" y="31"/>
      <point x="124" y="67"/>
      <point x="124" y="161" type="curve" smooth="yes"/>
      <point x="124" y="457" type="line" smooth="yes"/>
      <point x="124" y="472"/>
      <point x="117" y="480"/>
      <point x="101" y="480" type="curve" smooth="yes"/>
      <point x="93" y="480" type="line" smooth="yes"/>
      <point x="77" y="480"/>
      <point x="70" y="472"/>
      <point x="70" y="457" type="curve" smooth="yes"/>
      <point x="70" y="162" type="line" smooth="yes"/>
      <point x="70" y="44"/>
      <point x="149" y="-15"/>
      <point x="254" y="-15" type="curve" smooth="yes"/>
    </contour>
  </outline>
</glyph>
<glyph name="v" format="1">
  <advance width="590"/>
  <unicode hex="0076"/>
  <note>
	v
  </note>
  <outline>
    <contour>
      <point x="301" y="0" type="line" smooth="yes"/>
      <point x="313" y="0"/>
      <point x="318" y="5"/>
      <point x="324" y="17" type="curve" smooth="yes"/>
      <point x="533" y="462" type="line" smooth="yes"/>
      <point x="538" y="472"/>
      <point x="531" y="480"/>
      <point x="521" y="480" type="curve" smooth="yes"/>
      <point x="502" y="480" type="line" smooth="yes"/>
      <point x="486" y="480"/>
      <point x="482" y="474"/>
      <point x="477" y="463" type="curve" smooth="yes"/>
      <point x="295" y="68" type="line"/>
      <point x="113" y="463" type="line" smooth="yes"/>
      <point x="108" y="474"/>
      <point x="104" y="480"/>
      <point x="88" y="480" type="curve" smooth="yes"/>
      <point x="69" y="480" type="line" smooth="yes"/>
      <point x="59" y="480"/>
      <point x="52" y="472"/>
      <point x="57" y="462" type="curve" smooth="yes"/>
      <point x="266" y="17" type="line" smooth="yes"/>
      <point x="272" y="5"/>
      <point x="277" y="0"/>
      <point x="289" y="0" type="curve" smooth="yes"/>
    </contour>
  </outline>
</glyph>
<glyph name="w" format="1">
  <advance width="786"/>
  <unicode hex="0077"/>
  <note>
	w
  </note>
  <outline>
    <contour>
      <point x="239" y="0" type="line" smooth="yes"/>
      <point x="251" y="0"/>
      <point x="254" y="4"/>
      <point x="259" y="17" type="curve" smooth="yes"/>
      <point x="393" y="375" type="line"/>
      <point x="527" y="17" type="line" smooth="yes"/>
      <point x="532" y="4"/>
      <point x="535" y="0"/>
      <point x="547" y="0" type="curve" smooth="yes"/>
      <point x="565" y="0" type="line" smooth="yes"/>
      <point x="577" y="0"/>
      <point x="581" y="4"/>
      <point x="585" y="17" type="curve" smooth="yes"/>
      <point x="729" y="462" type="line" smooth="yes"/>
      <point x="732" y="472"/>
      <point x="729" y="480"/>
      <point x="717" y="480" type="curve" smooth="yes"/>
      <point x="695" y="480" type="line" smooth="yes"/>
      <point x="679" y="480"/>
      <point x="677" y="475"/>
      <point x="673" y="463" type="curve" smooth="yes"/>
      <point x="553" y="79" type="line"/>
      <point x="424" y="421" type="line"/>
      <point x="421" y="430"/>
      <point x="418" y="438"/>
      <point x="405" y="438" type="curve" smooth="yes"/>
      <point x="382" y="438" type="line" smooth="yes"/>
      <point x="368" y="438"/>
      <point x="365" y="430"/>
      <point x="362" y="421" type="curve"/>
      <point x="233" y="79" type="line"/>
      <point x="113" y="463" type="line" smooth="yes"/>
      <point x="109" y="475"/>
      <point x="107" y="480"/>
      <point x="91" y="480" type="curve" smooth="yes"/>
      <point x="69" y="480" type="line" smooth="yes"/>
      <point x="57" y="480"/>
      <point x="54" y="472"/>
      <point x="57" y="462" type="curve" smooth="yes"/>
      <point x="201" y="17" type="line" smooth="yes"/>
      <point x="205" y="4"/>
      <point x="209" y="0"/>
      <point x="221" y="0" type="curve" smooth="yes"/>
    </contour>
  </outline>
</glyph>
<glyph name="braceright" format="1">
  <advance width="360"/>
  <unicode hex="007D"/>
  <note>
	braceright
  </note>
  <outline>
    <contour>
      <point x="184" y="-70" type="line" smooth="yes"/>
      <point x="200" y="-70"/>
      <point x="207" y="-62"/>
      <point x="207" y="-47" type="curve" smooth="yes"/>
      <point x="207" y="316" type="line"/>
      <point x="302" y="316" type="line" smooth="yes"/>
      <point x="317" y="316"/>
      <point x="325" y="320"/>
      <point x="325" y="336" type="curve" smooth="yes"/>
      <point x="325" y="343" type="line" smooth="yes"/>
      <point x="325" y="359"/>
      <point x="317" y="365"/>
      <point x="302" y="365" type="curve" smooth="yes"/>
      <point x="207" y="365" type="line"/>
      <point x="207" y="727" type="line" smooth="yes"/>
      <point x="207" y="742"/>
      <point x="200" y="750"/>
      <point x="184" y="750" type="curve" smooth="yes"/>
      <point x="68" y="750" type="line" smooth="yes"/>
      <point x="53" y="750"/>
      <point x="45" y="746"/>
      <point x="45" y="730" type="curve" smooth="yes"/>
      <point x="45" y="723" type="line" smooth="yes"/>
      <point x="45" y="707"/>
      <point x="53" y="701"/>
      <point x="68" y="701" type="curve" smooth="yes"/>
      <point x="153" y="701" type="line"/>
      <point x="153" y="-21" type="line"/>
      <point x="68" y="-21" type="line" smooth="yes"/>
      <point x="53" y="-21"/>
      <point x="45" y="-27"/>
      <point x="45" y="-43" type="curve" smooth="yes"/>
      <point x="45" y="-50" type="line" smooth="yes"/>
      <point x="45" y="-66"/>
      <point x="53" y="-70"/>
      <point x="68" y="-70" type="curve" smooth="yes"/>
    </contour>
  </outline>
</glyph>
<glyph name="yen" format="1">
  <advance width="680"/>
  <unicode hex="00A5"/>
  <note>
	yen
  </note>
  <outline>
    <contour>
      <point x="344" y="0" type="line" smooth="yes"/>
      <point x="360" y="0"/>
      <point x="367" y="8"/>
      <point x="367" y="23" type="curve" smooth="yes"/>
      <point x="367" y="105" type="line"/>
      <point x="499" y="105" type="line" smooth="yes"/>
      <point x="514" y="105"/>
      <point x="522" y="109"/>
      <point x="522" y="125" type="curve" smooth="yes"/>
      <point x="522" y="132" type="line" smooth="yes"/>
      <point x="522" y="148"/>
      <point x="514" y="154"/>
      <point x="499" y="154" type="curve" smooth="yes"/>
      <point x="367" y="154" type="line"/>
      <point x="367" y="222" type="line"/>
      <point x="368" y="224" type="line"/>
      <point x="499" y="224" type="line" smooth="yes"/>
      <point x="514" y="224"/>
      <point x="522" y="228"/>
      <point x="522" y="244" type="curve" smooth="yes"/>
      <point x="522" y="251" type="line" smooth="yes"/>
      <point x="522" y="267"/>
      <point x="514" y="273"/>
      <point x="499" y="273" type="curve" smooth="yes"/>
      <point x="396" y="273" type="line"/>
      <point x="623" y="662" type="line" smooth="yes"/>
      <point x="628" y="671"/>
      <point x="621" y="680"/>
      <point x="611" y="680" type="curve" smooth="yes"/>
      <point x="592" y="680" type="line" smooth="yes"/>
      <point x="576" y="680"/>
      <point x="573" y="674"/>
      <point x="567" y="663" type="curve" smooth="yes"/>
      <point x="340" y="273" type="line"/>
      <point x="113" y="663" type="line" smooth="yes"/>
      <point x="107" y="674"/>
      <point x="104" y="680"/>
      <point x="88" y="680" type="curve" smooth="yes"/>
      <point x="69" y="680" type="line" smooth="yes"/>
      <point x="59" y="680"/>
      <point x="52" y="671"/>
      <point x="57" y="662" type="curve" smooth="yes"/>
      <point x="284" y="273" type="line"/>
      <point x="181" y="273" type="line" smooth="yes"/>
      <point x="166" y="273"/>
      <point x="158" y="267"/>
      <point x="158" y="251" type="curve" smooth="yes"/>
      <point x="158" y="244" type="line" smooth="yes"/>
      <point x="158" y="228"/>
      <point x="166" y="224"/>
      <point x="181" y="224" type="curve" smooth="yes"/>
      <point x="312" y="224" type="line"/>
      <point x="313" y="223" type="line"/>
      <point x="313" y="154" type="line"/>
      <point x="181" y="154" type="line" smooth="yes"/>
      <point x="166" y="154"/>
      <point x="158" y="148"/>
      <point x="158" y="132" type="curve" smooth="yes"/>
      <point x="158" y="125" type="line" smooth="yes"/>
      <point x="158" y="109"/>
      <point x="166" y="105"/>
      <point x="181" y="105" type="curve" smooth="yes"/>
      <point x="313" y="105" type="line"/>
      <point x="313" y="23" type="line" smooth="yes"/>
      <point x="313" y="8"/>
      <point x="320" y="0"/>
      <point x="336" y="0" type="curve" smooth="yes"/>
    </contour>
  </outline>
</glyph>
<glyph name="copyright" format="1">
  <advance width="820"/>
  <unicode hex="00A9"/>
  <note>
	copyright
  </note>
  <outline>
    <contour>
      <point x="606" y="-15"/>
      <point x="765" y="144"/>
      <point x="765" y="340" type="curve" smooth="yes"/>
      <point x="765" y="536"/>
      <point x="606" y="695"/>
      <point x="410" y="695" type="curve" smooth="yes"/>
      <point x="214" y="695"/>
      <point x="55" y="536"/>
      <point x="55" y="340" type="curve" smooth="yes"/>
      <point x="55" y="144"/>
      <point x="214" y="-15"/>
      <point x="410" y="-15" type="curve" smooth="yes"/>
    </contour>
    <contour>
      <point x="484" y="89"/>
      <point x="542" y="106"/>
      <point x="591" y="138" type="curve" smooth="yes"/>
      <point x="599" y="143"/>
      <point x="600" y="147"/>
      <point x="596" y="154" type="curve" smooth="yes"/>
      <point x="583" y="176" type="line" smooth="yes"/>
      <point x="579" y="183"/>
      <point x="576" y="184"/>
      <point x="569" y="179" type="curve" smooth="yes"/>
      <point x="531" y="152"/>
      <point x="482" y="135"/>
      <point x="413" y="135" type="curve" smooth="yes"/>
      <point x="285" y="135"/>
      <point x="211" y="197"/>
      <point x="211" y="338" type="curve" smooth="yes"/>
      <point x="211" y="468"/>
      <point x="282" y="547"/>
      <point x="402" y="547" type="curve" smooth="yes"/>
      <point x="478" y="547"/>
      <point x="524" y="531"/>
      <point x="562" y="504" type="curve"/>
      <point x="570" y="499"/>
      <point x="572" y="500"/>
      <point x="576" y="507" type="curve" smooth="yes"/>
      <point x="589" y="529" type="line" smooth="yes"/>
      <point x="594" y="537"/>
      <point x="591" y="540"/>
      <point x="584" y="545" type="curve" smooth="yes"/>
      <point x="533" y="581"/>
      <point x="475" y="593"/>
      <point x="398" y="593" type="curve" smooth="yes"/>
      <point x="257" y="593"/>
      <point x="159" y="490"/>
      <point x="159" y="338" type="curve" smooth="yes"/>
      <point x="159" y="174"/>
      <point x="256" y="89"/>
      <point x="410" y="89" type="curve" smooth="yes"/>
    </contour>
    <contour>
      <point x="237" y="31"/>
      <point x="101" y="167"/>
      <point x="101" y="340" type="curve" smooth="yes"/>
      <point x="101" y="513"/>
      <point x="237" y="649"/>
      <point x="410" y="649" type="curve" smooth="yes"/>
      <point x="583" y="649"/>
      <point x="719" y="513"/>
      <point x="719" y="340" type="curve" smooth="yes"/>
      <point x="719" y="167"/>
      <point x="583" y="31"/>
      <point x="410" y="31" type="curve" smooth="yes"/>
    </contour>
  </outline>
</glyph>
<glyph name="ordfeminine" format="1">
  <advance width="384"/>
  <unicode hex="00AA"/>
  <note>
	ordfeminine
  </note>
  <outline>
    <contour>
      <point x="215" y="368"/>
      <point x="259" y="388"/>
      <point x="283" y="421" type="curve"/>
      <point x="288" y="390" type="line"/>
      <point x="289" y="382"/>
      <point x="293" y="377"/>
      <point x="302" y="377" type="curve" smooth="yes"/>
      <point x="314" y="377" type="line" smooth="yes"/>
      <point x="324" y="377"/>
      <point x="329" y="382"/>
      <point x="329" y="390" type="curve" smooth="yes"/>
      <point x="329" y="564" type="line" smooth="yes"/>
      <point x="329" y="651"/>
      <point x="292" y="695"/>
      <point x="198" y="695" type="curve" smooth="yes"/>
      <point x="158" y="695"/>
      <point x="123" y="687"/>
      <point x="95" y="674" type="curve" smooth="yes"/>
      <point x="87" y="670"/>
      <point x="83" y="666"/>
      <point x="86" y="660" type="curve"/>
      <point x="97" y="643" type="line"/>
      <point x="100" y="637"/>
      <point x="102" y="634"/>
      <point x="109" y="638" type="curve" smooth="yes"/>
      <point x="135" y="652"/>
      <point x="159" y="659"/>
      <point x="198" y="659" type="curve" smooth="yes"/>
      <point x="260" y="659"/>
      <point x="283" y="633"/>
      <point x="283" y="569" type="curve" smooth="yes"/>
      <point x="283" y="552" type="line"/>
      <point x="174" y="552" type="line" smooth="yes"/>
      <point x="101" y="552"/>
      <point x="55" y="520"/>
      <point x="55" y="459" type="curve" smooth="yes"/>
      <point x="55" y="398"/>
      <point x="101" y="368"/>
      <point x="167" y="368" type="curve" smooth="yes"/>
    </contour>
    <contour>
      <point x="122" y="404"/>
      <point x="95" y="421"/>
      <point x="95" y="459" type="curve" smooth="yes"/>
      <point x="95" y="501"/>
      <point x="129" y="516"/>
      <point x="176" y="516" type="curve" smooth="yes"/>
      <point x="283" y="516" type="line"/>
      <point x="283" y="498" type="line" smooth="yes"/>
      <point x="283" y="441"/>
      <point x="230" y="404"/>
      <point x="170" y="404" type="curve" smooth="yes"/>
    </contour>
  </outline>
</glyph>
<glyph name="guillemetleft" format="1">
  <advance width="583"/>
  <unicode hex="00AB"/>
  <note>
	guillemotleft
  </note>
  <outline>
    <contour>
      <point x="293" y="57" type="line" smooth="yes"/>
      <point x="303" y="66"/>
      <point x="301" y="74"/>
      <point x="292" y="84" type="curve" smooth="yes"/>
      <point x="114" y="274" type="line"/>
      <point x="292" y="464" type="line" smooth="yes"/>
      <point x="301" y="474"/>
      <point x="303" y="482"/>
      <point x="293" y="491" type="curve" smooth="yes"/>
      <point x="281" y="502" type="line"/>
      <point x="272" y="511"/>
      <point x="264" y="510"/>
      <point x="254" y="500" type="curve" smooth="yes"/>
      <point x="70" y="303" type="line" smooth="yes"/>
      <point x="61" y="293"/>
      <point x="55" y="288"/>
      <point x="55" y="278" type="curve" smooth="yes"/>
      <point x="55" y="270" type="line" smooth="yes"/>
      <point x="55" y="260"/>
      <point x="61" y="255"/>
      <point x="70" y="245" type="curve" smooth="yes"/>
      <point x="254" y="48" type="line" smooth="yes"/>
      <point x="264" y="38"/>
      <point x="272" y="37"/>
      <point x="281" y="46" type="curve"/>
    </contour>
    <contour>
      <point x="521" y="57" type="line" smooth="yes"/>
      <point x="531" y="66"/>
      <point x="529" y="74"/>
      <point x="520" y="84" type="curve" smooth="yes"/>
      <point x="342" y="274" type="line"/>
      <point x="520" y="464" type="line" smooth="yes"/>
      <point x="529" y="474"/>
      <point x="531" y="482"/>
      <point x="521" y="491" type="curve" smooth="yes"/>
      <point x="509" y="502" type="line"/>
      <point x="500" y="511"/>
      <point x="492" y="510"/>
      <point x="482" y="500" type="curve" smooth="yes"/>
      <point x="298" y="303" type="line" smooth="yes"/>
      <point x="289" y="293"/>
      <point x="283" y="288"/>
      <point x="283" y="278" type="curve" smooth="yes"/>
      <point x="283" y="270" type="line" smooth="yes"/>
      <point x="283" y="260"/>
      <point x="289" y="255"/>
      <point x="298" y="245" type="curve" smooth="yes"/>
      <point x="482" y="48" type="line" smooth="yes"/>
      <point x="492" y="38"/>
      <point x="500" y="37"/>
      <point x="509" y="46" type="curve"/>
    </contour>
  </outline>
</glyph>
<glyph name="logicalnot" format="1">
  <advance width="474"/>
  <unicode hex="00AC"/>
  <note>
	logicalnot
  </note>
  <outline>
    <contour>
      <point x="396" y="127" type="line" smooth="yes"/>
      <point x="412" y="127"/>
      <point x="419" y="135"/>
      <point x="419" y="150" type="curve" smooth="yes"/>
      <point x="419" y="297" type="line" smooth="yes"/>
      <point x="419" y="313"/>
      <point x="411" y="319"/>
      <point x="396" y="319" type="curve" smooth="yes"/>
      <point x="78" y="319" type="line" smooth="yes"/>
      <point x="63" y="319"/>
      <point x="55" y="313"/>
      <point x="55" y="297" type="curve" smooth="yes"/>
      <point x="55" y="290" type="line" smooth="yes"/>
      <point x="55" y="274"/>
      <point x="63" y="270"/>
      <point x="78" y="270" type="curve" smooth="yes"/>
      <point x="365" y="270" type="line"/>
      <point x="365" y="150" type="line" smooth="yes"/>
      <point x="365" y="135"/>
      <point x="372" y="127"/>
      <point x="388" y="127" type="curve" smooth="yes"/>
    </contour>
  </outline>
</glyph>
<glyph name="registered" format="1">
  <advance width="820"/>
  <unicode hex="00AE"/>
  <note>
	registered
  </note>
  <outline>
    <contour>
      <point x="606" y="-15"/>
      <point x="765" y="144"/>
      <point x="765" y="340" type="curve" smooth="yes"/>
      <point x="765" y="536"/>
      <point x="606" y="695"/>
      <point x="410" y="695" type="curve" smooth="yes"/>
      <point x="214" y="695"/>
      <point x="55" y="536"/>
      <point x="55" y="340" type="curve" smooth="yes"/>
      <point x="55" y="144"/>
      <point x="214" y="-15"/>
      <point x="410" y="-15" type="curve" smooth="yes"/>
    </contour>
    <contour>
      <point x="237" y="31"/>
      <point x="101" y="167"/>
      <point x="101" y="340" type="curve" smooth="yes"/>
      <point x="101" y="513"/>
      <point x="237" y="649"/>
      <point x="410" y="649" type="curve" smooth="yes"/>
      <point x="583" y="649"/>
      <point x="719" y="513"/>
      <point x="719" y="340" type="curve" smooth="yes"/>
      <point x="719" y="167"/>
      <point x="583" y="31"/>
      <point x="410" y="31" type="curve" smooth="yes"/>
    </contour>
    <contour>
      <point x="281" y="99" type="line" smooth="yes"/>
      <point x="296" y="99"/>
      <point x="303" y="107"/>
      <point x="303" y="121" type="curve" smooth="yes"/>
      <point x="303" y="295" type="line"/>
      <point x="434" y="295" type="line"/>
      <point x="521" y="110" type="line" smooth="yes"/>
      <point x="526" y="100"/>
      <point x="528" y="99"/>
      <point x="537" y="99" type="curve" smooth="yes"/>
      <point x="567" y="99" type="line" smooth="yes"/>
      <point x="578" y="99"/>
      <point x="579" y="105"/>
      <point x="574" y="115" type="curve" smooth="yes"/>
      <point x="487" y="299" type="line"/>
      <point x="580" y="315"/>
      <point x="612" y="369"/>
      <point x="612" y="439" type="curve" smooth="yes"/>
      <point x="612" y="532"/>
      <point x="562" y="583"/>
      <point x="468" y="583" type="curve" smooth="yes"/>
      <point x="273" y="583" type="line" smooth="yes"/>
      <point x="257" y="583"/>
      <point x="250" y="575"/>
      <point x="250" y="561" type="curve" smooth="yes"/>
      <point x="250" y="121" type="line" smooth="yes"/>
      <point x="250" y="107"/>
      <point x="257" y="99"/>
      <point x="273" y="99" type="curve" smooth="yes"/>
    </contour>
    <contour>
      <point x="303" y="535" type="line"/>
      <point x="459" y="535" type="line" smooth="yes"/>
      <point x="539" y="535"/>
      <point x="561" y="509"/>
      <point x="561" y="439" type="curve" smooth="yes"/>
      <point x="561" y="377"/>
      <point x="540" y="343"/>
      <point x="453" y="343" type="curve" smooth="yes"/>
      <point x="303" y="343" type="line"/>
    </contour>
  </outline>
</glyph>
<glyph name="macron" format="1">
  <advance width="434"/>
  <unicode hex="00AF"/>
  <note>
	macron
  </note>
  <outline>
    <contour>
      <point x="356" y="611" type="line" smooth="yes"/>
      <point x="371" y="611"/>
      <point x="379" y="615"/>
      <point x="379" y="631" type="curve" smooth="yes"/>
      <point x="379" y="638" type="line" smooth="yes"/>
      <point x="379" y="654"/>
      <point x="371" y="660"/>
      <point x="356" y="660" type="curve" smooth="yes"/>
      <point x="78" y="660" type="line" smooth="yes"/>
      <point x="63" y="660"/>
      <point x="55" y="654"/>
      <point x="55" y="638" type="curve" smooth="yes"/>
      <point x="55" y="631" type="line" smooth="yes"/>
      <point x="55" y="615"/>
      <point x="63" y="611"/>
      <point x="78" y="611" type="curve" smooth="yes"/>
    </contour>
  </outline>
</glyph>
<glyph name="degree" format="1">
  <advance width="330"/>
  <unicode hex="00B0"/>
  <note>
	degree
  </note>
  <outline>
    <contour>
      <point x="231" y="477"/>
      <point x="275" y="515"/>
      <point x="275" y="586" type="curve" smooth="yes"/>
      <point x="275" y="657"/>
      <point x="231" y="695"/>
      <point x="165" y="695" type="curve" smooth="yes"/>
      <point x="99" y="695"/>
      <point x="55" y="657"/>
      <point x="55" y="586" type="curve" smooth="yes"/>
      <point x="55" y="515"/>
      <point x="99" y="477"/>
      <point x="165" y="477" type="curve" smooth="yes"/>
    </contour>
    <contour>
      <point x="124" y="513"/>
      <point x="95" y="538"/>
      <point x="95" y="586" type="curve" smooth="yes"/>
      <point x="95" y="634"/>
      <point x="124" y="659"/>
      <point x="165" y="659" type="curve" smooth="yes"/>
      <point x="206" y="659"/>
      <point x="235" y="634"/>
      <point x="235" y="586" type="curve" smooth="yes"/>
      <point x="235" y="538"/>
      <point x="206" y="513"/>
      <point x="165" y="513" type="curve" smooth="yes"/>
    </contour>
  </outline>
</glyph>
<glyph name="plusminus" format="1">
  <advance width="454"/>
  <unicode hex="00B1"/>
  <note>
	plusminus
  </note>
  <outline>
    <contour>
      <point x="231" y="177" type="line" smooth="yes"/>
      <point x="247" y="177"/>
      <point x="254" y="185"/>
      <point x="254" y="200" type="curve" smooth="yes"/>
      <point x="254" y="310" type="line"/>
      <point x="376" y="310" type="line" smooth="yes"/>
      <point x="391" y="310"/>
      <point x="399" y="314"/>
      <point x="399" y="330" type="curve" smooth="yes"/>
      <point x="399" y="337" type="line" smooth="yes"/>
      <point x="399" y="353"/>
      <point x="391" y="359"/>
      <point x="376" y="359" type="curve" smooth="yes"/>
      <point x="254" y="359" type="line"/>
      <point x="254" y="469" type="line" smooth="yes"/>
      <point x="254" y="484"/>
      <point x="247" y="492"/>
      <point x="231" y="492" type="curve" smooth="yes"/>
      <point x="223" y="492" type="line" smooth="yes"/>
      <point x="207" y="492"/>
      <point x="200" y="484"/>
      <point x="200" y="469" type="curve" smooth="yes"/>
      <point x="200" y="359" type="line"/>
      <point x="78" y="359" type="line" smooth="yes"/>
      <point x="63" y="359"/>
      <point x="55" y="353"/>
      <point x="55" y="337" type="curve" smooth="yes"/>
      <point x="55" y="330" type="line" smooth="yes"/>
      <point x="55" y="314"/>
      <point x="63" y="310"/>
      <point x="78" y="310" type="curve" smooth="yes"/>
      <point x="200" y="310" type="line"/>
      <point x="200" y="200" type="line" smooth="yes"/>
      <point x="200" y="185"/>
      <point x="207" y="177"/>
      <point x="223" y="177" type="curve" smooth="yes"/>
    </contour>
    <contour>
      <point x="376" y="0" type="line" smooth="yes"/>
      <point x="391" y="0"/>
      <point x="399" y="4"/>
      <point x="399" y="20" type="curve" smooth="yes"/>
      <point x="399" y="27" type="line" smooth="yes"/>
      <point x="399" y="43"/>
      <point x="391" y="49"/>
      <point x="376" y="49" type="curve" smooth="yes"/>
      <point x="78" y="49" type="line" smooth="yes"/>
      <point x="63" y="49"/>
      <point x="55" y="43"/>
      <point x="55" y="27" type="curve" smooth="yes"/>
      <point x="55" y="20" type="line" smooth="yes"/>
      <point x="55" y="4"/>
      <point x="63" y="0"/>
      <point x="78" y="0" type="curve" smooth="yes"/>
    </contour>
  </outline>
</glyph>
<glyph name="threesuperior" format="1">
  <advance width="393"/>
  <unicode hex="00B3"/>
  <note>
	threesuperior
  </note>
  <outline>
    <contour>
      <point x="294" y="279"/>
      <point x="338" y="331"/>
      <point x="338" y="399" type="curve" smooth="yes"/>
      <point x="338" y="447"/>
      <point x="320" y="480"/>
      <point x="267" y="496" type="curve"/>
      <point x="310" y="515"/>
      <point x="325" y="544"/>
      <point x="325" y="588" type="curve" smooth="yes"/>
      <point x="325" y="650"/>
      <point x="281" y="695"/>
      <point x="186" y="695" type="curve" smooth="yes"/>
      <point x="140" y="695"/>
      <point x="90" y="680"/>
      <point x="66" y="663" type="curve" smooth="yes"/>
      <point x="62" y="660"/>
      <point x="61" y="659"/>
      <point x="63" y="654" type="curve"/>
      <point x="77" y="624" type="line"/>
      <point x="78" y="621"/>
      <point x="81" y="621"/>
      <point x="85" y="623" type="curve"/>
      <point x="115" y="640"/>
      <point x="146" y="649"/>
      <point x="186" y="649" type="curve" smooth="yes"/>
      <point x="248" y="649"/>
      <point x="273" y="628"/>
      <point x="273" y="588" type="curve" smooth="yes"/>
      <point x="273" y="551"/>
      <point x="258" y="520"/>
      <point x="208" y="520" type="curve" smooth="yes"/>
      <point x="155" y="520" type="line" smooth="yes"/>
      <point x="146" y="520"/>
      <point x="141" y="517"/>
      <point x="141" y="508" type="curve" smooth="yes"/>
      <point x="141" y="484" type="line" smooth="yes"/>
      <point x="141" y="474"/>
      <point x="146" y="471"/>
      <point x="155" y="471" type="curve" smooth="yes"/>
      <point x="204" y="471" type="line" smooth="yes"/>
      <point x="262" y="471"/>
      <point x="286" y="448"/>
      <point x="286" y="399" type="curve" smooth="yes"/>
      <point x="286" y="349"/>
      <point x="258" y="325"/>
      <point x="181" y="325" type="curve" smooth="yes"/>
      <point x="144" y="325"/>
      <point x="108" y="334"/>
      <point x="78" y="351" type="curve"/>
      <point x="74" y="353"/>
      <point x="71" y="353"/>
      <point x="70" y="350" type="curve"/>
      <point x="56" y="320" type="line"/>
      <point x="54" y="315"/>
      <point x="55" y="314"/>
      <point x="59" y="311" type="curve" smooth="yes"/>
      <point x="83" y="294"/>
      <point x="139" y="279"/>
      <point x="181" y="279" type="curve" smooth="yes"/>
    </contour>
  </outline>
</glyph>
<glyph name="paragraph" format="1">
  <advance width="720"/>
  <unicode hex="00B6"/>
  <note>
	paragraph
  </note>
  <outline>
    <contour>
      <point x="327" y="-100" type="line" smooth="yes"/>
      <point x="343" y="-100"/>
      <point x="350" y="-92"/>
      <point x="350" y="-77" type="curve" smooth="yes"/>
      <point x="350" y="631" type="line"/>
      <point x="501" y="631" type="line"/>
      <point x="501" y="-77" type="line" smooth="yes"/>
      <point x="501" y="-92"/>
      <point x="508" y="-100"/>
      <point x="524" y="-100" type="curve" smooth="yes"/>
      <point x="532" y="-100" type="line" smooth="yes"/>
      <point x="548" y="-100"/>
      <point x="555" y="-92"/>
      <point x="555" y="-77" type="curve" smooth="yes"/>
      <point x="555" y="631" type="line"/>
      <point x="642" y="631" type="line" smooth="yes"/>
      <point x="657" y="631"/>
      <point x="665" y="635"/>
      <point x="665" y="651" type="curve" smooth="yes"/>
      <point x="665" y="658" type="line" smooth="yes"/>
      <point x="665" y="674"/>
      <point x="657" y="680"/>
      <point x="642" y="680" type="curve" smooth="yes"/>
      <point x="296" y="680" type="line" smooth="yes"/>
      <point x="139" y="680"/>
      <point x="55" y="611"/>
      <point x="55" y="477" type="curve" smooth="yes"/>
      <point x="55" y="349"/>
      <point x="157" y="289"/>
      <point x="296" y="289" type="curve"/>
      <point x="296" y="-77" type="line" smooth="yes"/>
      <point x="296" y="-92"/>
      <point x="303" y="-100"/>
      <point x="319" y="-100" type="curve" smooth="yes"/>
    </contour>
  </outline>
</glyph>
<glyph name="periodcentered" format="1">
  <advance width="186"/>
  <unicode hex="00B7"/>
  <note>
	periodcentered
  </note>
  <outline>
    <contour>
      <point x="100" y="280" type="line" smooth="yes"/>
      <point x="119" y="280"/>
      <point x="131" y="295"/>
      <point x="131" y="313" type="curve" smooth="yes"/>
      <point x="131" y="326" type="line" smooth="yes"/>
      <point x="131" y="344"/>
      <point x="118" y="359"/>
      <point x="100" y="359" type="curve" smooth="yes"/>
      <point x="86" y="359" type="line" smooth="yes"/>
      <point x="68" y="359"/>
      <point x="55" y="344"/>
      <point x="55" y="326" type="curve" smooth="yes"/>
      <point x="55" y="313" type="line" smooth="yes"/>
      <point x="55" y="295"/>
      <point x="68" y="280"/>
      <point x="86" y="280" type="curve" smooth="yes"/>
    </contour>
  </outline>
</glyph>
<glyph name="cedilla" format="1">
  <advance width="280"/>
  <unicode hex="00B8"/>
  <note>
	cedilla
  </note>
  <outline>
    <contour>
      <point x="188" y="-233"/>
      <point x="225" y="-206"/>
      <point x="225" y="-155" type="curve" smooth="yes"/>
      <point x="225" y="-105"/>
      <point x="193" y="-81"/>
      <point x="147" y="-81" type="curve"/>
      <point x="170" y="-31" type="line" smooth="yes"/>
      <point x="175" y="-21"/>
      <point x="172" y="-15"/>
      <point x="160" y="-15" type="curve" smooth="yes"/>
      <point x="134" y="-15" type="line" smooth="yes"/>
      <point x="120" y="-15"/>
      <point x="116" y="-18"/>
      <point x="112" y="-29" type="curve" smooth="yes"/>
      <point x="85" y="-97" type="line" smooth="yes"/>
      <point x="81" y="-107"/>
      <point x="85" y="-113"/>
      <point x="95" y="-113" type="curve" smooth="yes"/>
      <point x="108" y="-113" type="line" smooth="yes"/>
      <point x="153" y="-113"/>
      <point x="177" y="-118"/>
      <point x="177" y="-153" type="curve" smooth="yes"/>
      <point x="177" y="-180"/>
      <point x="165" y="-190"/>
      <point x="132" y="-190" type="curve" smooth="yes"/>
      <point x="116" y="-190"/>
      <point x="96" y="-186"/>
      <point x="83" y="-178" type="curve"/>
      <point x="74" y="-172"/>
      <point x="69" y="-173"/>
      <point x="65" y="-182" type="curve" smooth="yes"/>
      <point x="57" y="-199" type="line"/>
      <point x="53" y="-209"/>
      <point x="56" y="-210"/>
      <point x="67" y="-217" type="curve" smooth="yes"/>
      <point x="83" y="-227"/>
      <point x="108" y="-233"/>
      <point x="132" y="-233" type="curve" smooth="yes"/>
    </contour>
  </outline>
</glyph>
<glyph name="onesuperior" format="1">
  <advance width="387"/>
  <unicode hex="00B9"/>
  <note>
	onesuperior
  </note>
  <outline>
    <contour>
      <point x="329" y="286" type="line" smooth="yes"/>
      <point x="344" y="286"/>
      <point x="352" y="290"/>
      <point x="352" y="306" type="curve" smooth="yes"/>
      <point x="352" y="313" type="line" smooth="yes"/>
      <point x="352" y="329"/>
      <point x="344" y="335"/>
      <point x="329" y="335" type="curve" smooth="yes"/>
      <point x="240" y="335" type="line"/>
      <point x="240" y="657" type="line" smooth="yes"/>
      <point x="240" y="672"/>
      <point x="233" y="680"/>
      <point x="217" y="680" type="curve" smooth="yes"/>
      <point x="211" y="680" type="line" smooth="yes"/>
      <point x="203" y="680"/>
      <point x="197" y="678"/>
      <point x="192" y="675" type="curve" smooth="yes"/>
      <point x="68" y="600" type="line"/>
      <point x="56" y="592"/>
      <point x="51" y="584"/>
      <point x="59" y="571" type="curve"/>
      <point x="63" y="565" type="line"/>
      <point x="71" y="551"/>
      <point x="81" y="550"/>
      <point x="94" y="558" type="curve" smooth="yes"/>
      <point x="186" y="614" type="line"/>
      <point x="186" y="335" type="line"/>
      <point x="94" y="335" type="line" smooth="yes"/>
      <point x="79" y="335"/>
      <point x="71" y="329"/>
      <point x="71" y="313" type="curve" smooth="yes"/>
      <point x="71" y="306" type="line" smooth="yes"/>
      <point x="71" y="290"/>
      <point x="79" y="286"/>
      <point x="94" y="286" type="curve" smooth="yes"/>
    </contour>
  </outline>
</glyph>
<glyph name="onequarter" format="1">
  <advance width="782"/>
  <unicode hex="00BC"/>
  <note>
	onequarter
  </note>
  <outline>
    <contour>
      <point x="223" y="0" type="line" smooth="yes"/>
      <point x="231" y="0"/>
      <point x="234" y="4"/>
      <point x="238" y="10" type="curve" smooth="yes"/>
      <point x="688" y="667" type="line" smooth="yes"/>
      <point x="692" y="673"/>
      <point x="691" y="680"/>
      <point x="681" y="680" type="curve" smooth="yes"/>
      <point x="643" y="680" type="line" smooth="yes"/>
      <point x="635" y="680"/>
      <point x="632" y="676"/>
      <point x="628" y="670" type="curve" smooth="yes"/>
      <point x="178" y="13" type="line" smooth="yes"/>
      <point x="174" y="7"/>
      <point x="175" y="0"/>
      <point x="185" y="0" type="curve" smooth="yes"/>
    </contour>
    <contour>
      <point x="319" y="286" type="line" smooth="yes"/>
      <point x="334" y="286"/>
      <point x="342" y="290"/>
      <point x="342" y="306" type="curve" smooth="yes"/>
      <point x="342" y="313" type="line" smooth="yes"/>
      <point x="342" y="329"/>
      <point x="334" y="335"/>
      <point x="319" y="335" type="curve" smooth="yes"/>
      <point x="240" y="335" type="line"/>
      <point x="240" y="657" type="line" smooth="yes"/>
      <point x="240" y="672"/>
      <point x="233" y="680"/>
      <point x="217" y="680" type="curve" smooth="yes"/>
      <point x="211" y="680" type="line" smooth="yes"/>
      <point x="203" y="680"/>
      <point x="197" y="678"/>
      <point x="192" y="675" type="curve" smooth="yes"/>
      <point x="68" y="600" type="line"/>
      <point x="56" y="592"/>
      <point x="51" y="584"/>
      <point x="59" y="571" type="curve"/>
      <point x="63" y="565" type="line"/>
      <point x="71" y="551"/>
      <point x="81" y="550"/>
      <point x="94" y="558" type="curve" smooth="yes"/>
      <point x="186" y="614" type="line"/>
      <point x="186" y="335" type="line"/>
      <point x="94" y="335" type="line" smooth="yes"/>
      <point x="79" y="335"/>
      <point x="71" y="329"/>
      <point x="71" y="313" type="curve" smooth="yes"/>
      <point x="71" y="306" type="line" smooth="yes"/>
      <point x="71" y="290"/>
      <point x="79" y="286"/>
      <point x="94" y="286" type="curve" smooth="yes"/>
    </contour>
    <contour>
      <point x="635" y="0" type="line" smooth="yes"/>
      <point x="651" y="0"/>
      <point x="658" y="8"/>
      <point x="658" y="23" type="curve" smooth="yes"/>
      <point x="658" y="93" type="line"/>
      <point x="704" y="93" type="line" smooth="yes"/>
      <point x="719" y="93"/>
      <point x="727" y="97"/>
      <point x="727" y="113" type="curve" smooth="yes"/>
      <point x="727" y="120" type="line" smooth="yes"/>
      <point x="727" y="136"/>
      <point x="719" y="142"/>
      <point x="704" y="142" type="curve" smooth="yes"/>
      <point x="658" y="142" type="line"/>
      <point x="658" y="381" type="line" smooth="yes"/>
      <point x="658" y="389"/>
      <point x="654" y="394"/>
      <point x="645" y="394" type="curve" smooth="yes"/>
      <point x="618" y="394" type="line" smooth="yes"/>
      <point x="609" y="394"/>
      <point x="606" y="390"/>
      <point x="600" y="382" type="curve" smooth="yes"/>
      <point x="413" y="142" type="line" smooth="yes"/>
      <point x="405" y="131"/>
      <point x="402" y="126"/>
      <point x="402" y="117" type="curve" smooth="yes"/>
      <point x="402" y="103" type="line" smooth="yes"/>
      <point x="402" y="96"/>
      <point x="406" y="93"/>
      <point x="414" y="93" type="curve" smooth="yes"/>
      <point x="605" y="93" type="line"/>
      <point x="605" y="23" type="line" smooth="yes"/>
      <point x="605" y="8"/>
      <point x="612" y="0"/>
      <point x="628" y="0" type="curve" smooth="yes"/>
    </contour>
    <contour>
      <point x="606" y="313" type="line"/>
      <point x="606" y="142" type="line"/>
      <point x="473" y="142" type="line"/>
    </contour>
  </outline>
</glyph>
<glyph name="onehalf" format="1">
  <advance width="868"/>
  <unicode hex="00BD"/>
  <note>
	onehalf
  </note>
  <outline>
    <contour>
      <point x="223" y="0" type="line" smooth="yes"/>
      <point x="231" y="0"/>
      <point x="234" y="4"/>
      <point x="238" y="10" type="curve" smooth="yes"/>
      <point x="688" y="667" type="line" smooth="yes"/>
      <point x="692" y="673"/>
      <point x="691" y="680"/>
      <point x="681" y="680" type="curve" smooth="yes"/>
      <point x="643" y="680" type="line" smooth="yes"/>
      <point x="635" y="680"/>
      <point x="632" y="676"/>
      <point x="628" y="670" type="curve" smooth="yes"/>
      <point x="178" y="13" type="line" smooth="yes"/>
      <point x="174" y="7"/>
      <point x="175" y="0"/>
      <point x="185" y="0" type="curve" smooth="yes"/>
    </contour>
    <contour>
      <point x="319" y="286" type="line" smooth="yes"/>
      <point x="334" y="286"/>
      <point x="342" y="290"/>
      <point x="342" y="306" type="curve" smooth="yes"/>
      <point x="342" y="313" type="line" smooth="yes"/>
      <point x="342" y="329"/>
      <point x="334" y="335"/>
      <point x="319" y="335" type="curve" smooth="yes"/>
      <point x="240" y="335" type="line"/>
      <point x="240" y="657" type="line" smooth="yes"/>
      <point x="240" y="672"/>
      <point x="233" y="680"/>
      <point x="217" y="680" type="curve" smooth="yes"/>
      <point x="211" y="680" type="line" smooth="yes"/>
      <point x="203" y="680"/>
      <point x="197" y="678"/>
      <point x="192" y="675" type="curve" smooth="yes"/>
      <point x="68" y="600" type="line"/>
      <point x="56" y="592"/>
      <point x="51" y="584"/>
      <point x="59" y="571" type="curve"/>
      <point x="63" y="565" type="line"/>
      <point x="71" y="551"/>
      <point x="81" y="550"/>
      <point x="94" y="558" type="curve" smooth="yes"/>
      <point x="186" y="614" type="line"/>
      <point x="186" y="335" type="line"/>
      <point x="94" y="335" type="line" smooth="yes"/>
      <point x="79" y="335"/>
      <point x="71" y="329"/>
      <point x="71" y="313" type="curve" smooth="yes"/>
      <point x="71" y="306" type="line" smooth="yes"/>
      <point x="71" y="290"/>
      <point x="79" y="286"/>
      <point x="94" y="286" type="curve" smooth="yes"/>
    </contour>
    <contour>
      <point x="800" y="0" type="line" smooth="yes"/>
      <point x="808" y="0"/>
      <point x="813" y="2"/>
      <point x="813" y="12" type="curve" smooth="yes"/>
      <point x="813" y="35" type="line" smooth="yes"/>
      <point x="813" y="46"/>
      <point x="808" y="49"/>
      <point x="800" y="49" type="curve" smooth="yes"/>
      <point x="583" y="49" type="line"/>
      <point x="583" y="87"/>
      <point x="622" y="110"/>
      <point x="693" y="150" type="curve" smooth="yes"/>
      <point x="776" y="197"/>
      <point x="810" y="231"/>
      <point x="810" y="296" type="curve" smooth="yes"/>
      <point x="810" y="360"/>
      <point x="758" y="409"/>
      <point x="668" y="409" type="curve" smooth="yes"/>
      <point x="626" y="409"/>
      <point x="572" y="394"/>
      <point x="548" y="377" type="curve" smooth="yes"/>
      <point x="544" y="374"/>
      <point x="543" y="373"/>
      <point x="545" y="368" type="curve"/>
      <point x="559" y="338" type="line"/>
      <point x="560" y="335"/>
      <point x="563" y="335"/>
      <point x="567" y="337" type="curve"/>
      <point x="597" y="354"/>
      <point x="631" y="363"/>
      <point x="668" y="363" type="curve" smooth="yes"/>
      <point x="726" y="363"/>
      <point x="758" y="335"/>
      <point x="758" y="296" type="curve" smooth="yes"/>
      <point x="758" y="251"/>
      <point x="748" y="227"/>
      <point x="660" y="182" type="curve" smooth="yes"/>
      <point x="583" y="142"/>
      <point x="531" y="102"/>
      <point x="531" y="49" type="curve" smooth="yes"/>
      <point x="531" y="13" type="line" smooth="yes"/>
      <point x="531" y="4"/>
      <point x="535" y="0"/>
      <point x="544" y="0" type="curve" smooth="yes"/>
    </contour>
  </outline>
</glyph>
<glyph name="threequarters" format="1">
  <advance width="770"/>
  <unicode hex="00BE"/>
  <note>
	threequarters
  </note>
  <outline>
    <contour>
      <point x="211" y="0" type="line" smooth="yes"/>
      <point x="219" y="0"/>
      <point x="222" y="4"/>
      <point x="226" y="10" type="curve" smooth="yes"/>
      <point x="676" y="667" type="line" smooth="yes"/>
      <point x="680" y="673"/>
      <point x="679" y="680"/>
      <point x="669" y="680" type="curve" smooth="yes"/>
      <point x="631" y="680" type="line" smooth="yes"/>
      <point x="623" y="680"/>
      <point x="620" y="676"/>
      <point x="616" y="670" type="curve" smooth="yes"/>
      <point x="166" y="13" type="line" smooth="yes"/>
      <point x="162" y="7"/>
      <point x="163" y="0"/>
      <point x="173" y="0" type="curve" smooth="yes"/>
    </contour>
    <contour>
      <point x="294" y="278"/>
      <point x="338" y="330"/>
      <point x="338" y="398" type="curve" smooth="yes"/>
      <point x="338" y="446"/>
      <point x="320" y="480"/>
      <point x="267" y="496" type="curve"/>
      <point x="310" y="515"/>
      <point x="325" y="544"/>
      <point x="325" y="588" type="curve" smooth="yes"/>
      <point x="325" y="650"/>
      <point x="281" y="695"/>
      <point x="186" y="695" type="curve" smooth="yes"/>
      <point x="140" y="695"/>
      <point x="90" y="680"/>
      <point x="66" y="663" type="curve" smooth="yes"/>
      <point x="62" y="660"/>
      <point x="61" y="659"/>
      <point x="63" y="654" type="curve"/>
      <point x="77" y="624" type="line"/>
      <point x="78" y="621"/>
      <point x="81" y="621"/>
      <point x="85" y="623" type="curve"/>
      <point x="115" y="640"/>
      <point x="146" y="649"/>
      <point x="186" y="649" type="curve" smooth="yes"/>
      <point x="248" y="649"/>
      <point x="273" y="628"/>
      <point x="273" y="588" type="curve" smooth="yes"/>
      <point x="273" y="551"/>
      <point x="258" y="520"/>
      <point x="208" y="520" type="curve" smooth="yes"/>
      <point x="155" y="520" type="line" smooth="yes"/>
      <point x="146" y="520"/>
      <point x="141" y="517"/>
      <point x="141" y="508" type="curve" smooth="yes"/>
      <point x="141" y="484" type="line" smooth="yes"/>
      <point x="141" y="474"/>
      <point x="146" y="471"/>
      <point x="155" y="471" type="curve" smooth="yes"/>
      <point x="204" y="471" type="line" smooth="yes"/>
      <point x="262" y="471"/>
      <point x="286" y="447"/>
      <point x="286" y="398" type="curve" smooth="yes"/>
      <point x="286" y="348"/>
      <point x="258" y="324"/>
      <point x="181" y="324" type="curve" smooth="yes"/>
      <point x="144" y="324"/>
      <point x="108" y="333"/>
      <point x="78" y="350" type="curve"/>
      <point x="74" y="352"/>
      <point x="71" y="352"/>
      <point x="70" y="349" type="curve"/>
      <point x="56" y="319" type="line"/>
      <point x="54" y="314"/>
      <point x="55" y="313"/>
      <point x="59" y="310" type="curve" smooth="yes"/>
      <point x="83" y="293"/>
      <point x="139" y="278"/>
      <point x="181" y="278" type="curve" smooth="yes"/>
    </contour>
    <contour>
      <point x="623" y="0" type="line" smooth="yes"/>
      <point x="639" y="0"/>
      <point x="646" y="8"/>
      <point x="646" y="23" type="curve" smooth="yes"/>
      <point x="646" y="93" type="line"/>
      <point x="692" y="93" type="line" smooth="yes"/>
      <point x="707" y="93"/>
      <point x="715" y="97"/>
      <point x="715" y="113" type="curve" smooth="yes"/>
      <point x="715" y="120" type="line" smooth="yes"/>
      <point x="715" y="136"/>
      <point x="707" y="142"/>
      <point x="692" y="142" type="curve" smooth="yes"/>
      <point x="646" y="142" type="line"/>
      <point x="646" y="381" type="line" smooth="yes"/>
      <point x="646" y="389"/>
      <point x="642" y="394"/>
      <point x="633" y="394" type="curve" smooth="yes"/>
      <point x="606" y="394" type="line" smooth="yes"/>
      <point x="597" y="394"/>
      <point x="594" y="390"/>
      <point x="588" y="382" type="curve" smooth="yes"/>
      <point x="401" y="142" type="line" smooth="yes"/>
      <point x="393" y="131"/>
      <point x="390" y="126"/>
      <point x="390" y="117" type="curve" smooth="yes"/>
      <point x="390" y="103" type="line" smooth="yes"/>
      <point x="390" y="96"/>
      <point x="394" y="93"/>
      <point x="402" y="93" type="curve" smooth="yes"/>
      <point x="593" y="93" type="line"/>
      <point x="593" y="23" type="line" smooth="yes"/>
      <point x="593" y="8"/>
      <point x="600" y="0"/>
      <point x="616" y="0" type="curve" smooth="yes"/>
    </contour>
    <contour>
      <point x="594" y="313" type="line"/>
      <point x="594" y="142" type="line"/>
      <point x="461" y="142" type="line"/>
    </contour>
  </outline>
</glyph>
<glyph name="Atilde" format="1">
  <advance width="720"/>
  <unicode hex="00C3"/>
  <note>
	Atilde
  </note>
  <outline>
    <contour>
      <point x="88" y="0" type="line" smooth="yes"/>
      <point x="104" y="0"/>
      <point x="108" y="6"/>
      <point x="113" y="17" type="curve" smooth="yes"/>
      <point x="189" y="197" type="line"/>
      <point x="531" y="197" type="line"/>
      <point x="607" y="17" type="line" smooth="yes"/>
      <point x="612" y="6"/>
      <point x="616" y="0"/>
      <point x="632" y="0" type="curve" smooth="yes"/>
      <point x="651" y="0" type="line" smooth="yes"/>
      <point x="661" y="0"/>
      <point x="667" y="8"/>
      <point x="663" y="18" type="curve" smooth="yes"/>
      <point x="389" y="663" type="line" smooth="yes"/>
      <point x="384" y="676"/>
      <point x="381" y="680"/>
      <point x="369" y="680" type="curve" smooth="yes"/>
      <point x="351" y="680" type="line" smooth="yes"/>
      <point x="339" y="680"/>
      <point x="336" y="676"/>
      <point x="331" y="663" type="curve" smooth="yes"/>
      <point x="57" y="18" type="line" smooth="yes"/>
      <point x="53" y="8"/>
      <point x="59" y="0"/>
      <point x="69" y="0" type="curve" smooth="yes"/>
    </contour>
    <contour>
      <point x="360" y="601" type="line"/>
      <point x="510" y="246" type="line"/>
      <point x="209" y="246" type="line"/>
    </contour>
    <contour>
      <point x="479" y="738"/>
      <point x="515" y="755"/>
      <point x="540" y="786" type="curve" smooth="yes"/>
      <point x="554" y="803"/>
      <point x="552" y="813"/>
      <point x="543" y="821" type="curve" smooth="yes"/>
      <point x="528" y="835"/>
      <point x="515" y="831"/>
      <point x="502" y="815" type="curve" smooth="yes"/>
      <point x="485" y="795"/>
      <point x="466" y="784"/>
      <point x="434" y="784" type="curve" smooth="yes"/>
      <point x="374" y="784"/>
      <point x="366" y="841"/>
      <point x="285" y="841" type="curve" smooth="yes"/>
      <point x="242" y="841"/>
      <point x="206" y="824"/>
      <point x="181" y="793" type="curve" smooth="yes"/>
      <point x="167" y="776"/>
      <point x="169" y="766"/>
      <point x="178" y="758" type="curve" smooth="yes"/>
      <point x="193" y="744"/>
      <point x="206" y="748"/>
      <point x="219" y="764" type="curve" smooth="yes"/>
      <point x="236" y="784"/>
      <point x="255" y="795"/>
      <point x="287" y="795" type="curve" smooth="yes"/>
      <point x="345" y="795"/>
      <point x="359" y="738"/>
      <point x="436" y="738" type="curve" smooth="yes"/>
    </contour>
  </outline>
</glyph>
<glyph name="Aring" format="1">
  <advance width="720"/>
  <unicode hex="00C5"/>
  <note>
	Aring
  </note>
  <outline>
    <contour>
      <point x="88" y="0" type="line" smooth="yes"/>
      <point x="104" y="0"/>
      <point x="108" y="6"/>
      <point x="113" y="17" type="curve" smooth="yes"/>
      <point x="189" y="197" type="line"/>
      <point x="531" y="197" type="line"/>
      <point x="607" y="17" type="line" smooth="yes"/>
      <point x="612" y="6"/>
      <point x="616" y="0"/>
      <point x="632" y="0" type="curve" smooth="yes"/>
      <point x="651" y="0" type="line" smooth="yes"/>
      <point x="661" y="0"/>
      <point x="667" y="8"/>
      <point x="663" y="18" type="curve" smooth="yes"/>
      <point x="389" y="663" type="line" smooth="yes"/>
      <point x="384" y="676"/>
      <point x="381" y="680"/>
      <point x="369" y="680" type="curve" smooth="yes"/>
      <point x="351" y="680" type="line" smooth="yes"/>
      <point x="339" y="680"/>
      <point x="336" y="676"/>
      <point x="331" y="663" type="curve" smooth="yes"/>
      <point x="57" y="18" type="line" smooth="yes"/>
      <point x="53" y="8"/>
      <point x="59" y="0"/>
      <point x="69" y="0" type="curve" smooth="yes"/>
    </contour>
    <contour>
      <point x="360" y="601" type="line"/>
      <point x="510" y="246" type="line"/>
      <point x="209" y="246" type="line"/>
    </contour>
    <contour>
      <point x="421" y="640"/>
      <point x="470" y="688"/>
      <point x="470" y="749" type="curve" smooth="yes"/>
      <point x="470" y="810"/>
      <point x="421" y="859"/>
      <point x="360" y="859" type="curve" smooth="yes"/>
      <point x="299" y="859"/>
      <point x="251" y="810"/>
      <point x="251" y="749" type="curve" smooth="yes"/>
      <point x="251" y="688"/>
      <point x="299" y="640"/>
      <point x="360" y="640" type="curve" smooth="yes"/>
    </contour>
    <contour>
      <point x="322" y="680"/>
      <point x="291" y="711"/>
      <point x="291" y="749" type="curve" smooth="yes"/>
      <point x="291" y="787"/>
      <point x="322" y="818"/>
      <point x="360" y="818" type="curve" smooth="yes"/>
      <point x="398" y="818"/>
      <point x="429" y="787"/>
      <point x="429" y="749" type="curve" smooth="yes"/>
      <point x="429" y="711"/>
      <point x="398" y="680"/>
      <point x="360" y="680" type="curve" smooth="yes"/>
    </contour>
  </outline>
</glyph>
<glyph name="Egrave" format="1">
  <advance width="582"/>
  <unicode hex="00C8"/>
  <note>
	Egrave
  </note>
  <outline>
    <contour>
      <point x="514" y="0" type="line" smooth="yes"/>
      <point x="529" y="0"/>
      <point x="537" y="4"/>
      <point x="537" y="20" type="curve" smooth="yes"/>
      <point x="537" y="27" type="line" smooth="yes"/>
      <point x="537" y="43"/>
      <point x="529" y="49"/>
      <point x="514" y="49" type="curve" smooth="yes"/>
      <point x="129" y="49" type="line"/>
      <point x="129" y="316" type="line"/>
      <point x="427" y="316" type="line" smooth="yes"/>
      <point x="442" y="316"/>
      <point x="450" y="322"/>
      <point x="450" y="338" type="curve" smooth="yes"/>
      <point x="450" y="345" type="line" smooth="yes"/>
      <point x="450" y="361"/>
      <point x="442" y="365"/>
      <point x="427" y="365" type="curve" smooth="yes"/>
      <point x="129" y="365" type="line"/>
      <point x="129" y="631" type="line"/>
      <point x="514" y="631" type="line" smooth="yes"/>
      <point x="529" y="631"/>
      <point x="537" y="637"/>
      <point x="537" y="653" type="curve" smooth="yes"/>
      <point x="537" y="660" type="line" smooth="yes"/>
      <point x="537" y="676"/>
      <point x="529" y="680"/>
      <point x="514" y="680" type="curve" smooth="yes"/>
      <point x="98" y="680" type="line" smooth="yes"/>
      <point x="82" y="680"/>
      <point x="75" y="672"/>
      <point x="75" y="657" type="curve" smooth="yes"/>
      <point x="75" y="23" type="line" smooth="yes"/>
      <point x="75" y="8"/>
      <point x="82" y="0"/>
      <point x="98" y="0" type="curve" smooth="yes"/>
    </contour>
    <contour>
      <point x="326" y="765" type="line" smooth="yes"/>
      <point x="336" y="765"/>
      <point x="338" y="771"/>
      <point x="334" y="781" type="curve" smooth="yes"/>
      <point x="283" y="922" type="line" smooth="yes"/>
      <point x="279" y="933"/>
      <point x="275" y="936"/>
      <point x="261" y="936" type="curve" smooth="yes"/>
      <point x="234" y="936" type="line" smooth="yes"/>
      <point x="222" y="936"/>
      <point x="219" y="930"/>
      <point x="224" y="920" type="curve" smooth="yes"/>
      <point x="291" y="776" type="line" smooth="yes"/>
      <point x="295" y="768"/>
      <point x="300" y="765"/>
      <point x="311" y="765" type="curve" smooth="yes"/>
    </contour>
  </outline>
</glyph>
<glyph name="Ecircumflex" format="1">
  <advance width="582"/>
  <unicode hex="00CA"/>
  <note>
	Ecircumflex
  </note>
  <outline>
    <contour>
      <point x="514" y="0" type="line" smooth="yes"/>
      <point x="529" y="0"/>
      <point x="537" y="4"/>
      <point x="537" y="20" type="curve" smooth="yes"/>
      <point x="537" y="27" type="line" smooth="yes"/>
      <point x="537" y="43"/>
      <point x="529" y="49"/>
      <point x="514" y="49" type="curve" smooth="yes"/>
      <point x="129" y="49" type="line"/>
      <point x="129" y="316" type="line"/>
      <point x="427" y="316" type="line" smooth="yes"/>
      <point x="442" y="316"/>
      <point x="450" y="322"/>
      <point x="450" y="338" type="curve" smooth="yes"/>
      <point x="450" y="345" type="line" smooth="yes"/>
      <point x="450" y="361"/>
      <point x="442" y="365"/>
      <point x="427" y="365" type="curve" smooth="yes"/>
      <point x="129" y="365" type="line"/>
      <point x="129" y="631" type="line"/>
      <point x="514" y="631" type="line" smooth="yes"/>
      <point x="529" y="631"/>
      <point x="537" y="637"/>
      <point x="537" y="653" type="curve" smooth="yes"/>
      <point x="537" y="660" type="line" smooth="yes"/>
      <point x="537" y="676"/>
      <point x="529" y="680"/>
      <point x="514" y="680" type="curve" smooth="yes"/>
      <point x="98" y="680" type="line" smooth="yes"/>
      <point x="82" y="680"/>
      <point x="75" y="672"/>
      <point x="75" y="657" type="curve" smooth="yes"/>
      <point x="75" y="23" type="line" smooth="yes"/>
      <point x="75" y="8"/>
      <point x="82" y="0"/>
      <point x="98" y="0" type="curve" smooth="yes"/>
    </contour>
    <contour>
      <point x="191" y="758" type="line" smooth="yes"/>
      <point x="207" y="758"/>
      <point x="210" y="765"/>
      <point x="217" y="775" type="curve" smooth="yes"/>
      <point x="301" y="897" type="line"/>
      <point x="385" y="775" type="line" smooth="yes"/>
      <point x="392" y="765"/>
      <point x="395" y="758"/>
      <point x="411" y="758" type="curve" smooth="yes"/>
      <point x="430" y="758" type="line" smooth="yes"/>
      <point x="440" y="758"/>
      <point x="449" y="767"/>
      <point x="442" y="776" type="curve"/>
      <point x="330" y="932" type="line" smooth="yes"/>
      <point x="322" y="943"/>
      <point x="319" y="949"/>
      <point x="307" y="949" type="curve" smooth="yes"/>
      <point x="295" y="949" type="line" smooth="yes"/>
      <point x="283" y="949"/>
      <point x="280" y="943"/>
      <point x="272" y="932" type="curve" smooth="yes"/>
      <point x="160" y="776" type="line"/>
      <point x="153" y="767"/>
      <point x="162" y="758"/>
      <point x="172" y="758" type="curve" smooth="yes"/>
    </contour>
  </outline>
</glyph>
<glyph name="Edieresis" format="1">
  <advance width="582"/>
  <unicode hex="00CB"/>
  <note>
	Edieresis
  </note>
  <outline>
    <contour>
      <point x="514" y="0" type="line" smooth="yes"/>
      <point x="529" y="0"/>
      <point x="537" y="4"/>
      <point x="537" y="20" type="curve" smooth="yes"/>
      <point x="537" y="27" type="line" smooth="yes"/>
      <point x="537" y="43"/>
      <point x="529" y="49"/>
      <point x="514" y="49" type="curve" smooth="yes"/>
      <point x="129" y="49" type="line"/>
      <point x="129" y="316" type="line"/>
      <point x="427" y="316" type="line" smooth="yes"/>
      <point x="442" y="316"/>
      <point x="450" y="322"/>
      <point x="450" y="338" type="curve" smooth="yes"/>
      <point x="450" y="345" type="line" smooth="yes"/>
      <point x="450" y="361"/>
      <point x="442" y="365"/>
      <point x="427" y="365" type="curve" smooth="yes"/>
      <point x="129" y="365" type="line"/>
      <point x="129" y="631" type="line"/>
      <point x="514" y="631" type="line" smooth="yes"/>
      <point x="529" y="631"/>
      <point x="537" y="637"/>
      <point x="537" y="653" type="curve" smooth="yes"/>
      <point x="537" y="660" type="line" smooth="yes"/>
      <point x="537" y="676"/>
      <point x="529" y="680"/>
      <point x="514" y="680" type="curve" smooth="yes"/>
      <point x="98" y="680" type="line" smooth="yes"/>
      <point x="82" y="680"/>
      <point x="75" y="672"/>
      <point x="75" y="657" type="curve" smooth="yes"/>
      <point x="75" y="23" type="line" smooth="yes"/>
      <point x="75" y="8"/>
      <point x="82" y="0"/>
      <point x="98" y="0" type="curve" smooth="yes"/>
    </contour>
    <contour>
      <point x="219" y="762" type="line" smooth="yes"/>
      <point x="239" y="762"/>
      <point x="252" y="778"/>
      <point x="252" y="797" type="curve" smooth="yes"/>
      <point x="252" y="810" type="line" smooth="yes"/>
      <point x="252" y="829"/>
      <point x="238" y="845"/>
      <point x="219" y="845" type="curve" smooth="yes"/>
      <point x="205" y="845" type="line" smooth="yes"/>
      <point x="186" y="845"/>
      <point x="172" y="829"/>
      <point x="172" y="810" type="curve" smooth="yes"/>
      <point x="172" y="797" type="line" smooth="yes"/>
      <point x="172" y="778"/>
      <point x="186" y="762"/>
      <point x="205" y="762" type="curve" smooth="yes"/>
    </contour>
    <contour>
      <point x="399" y="762" type="line" smooth="yes"/>
      <point x="419" y="762"/>
      <point x="432" y="778"/>
      <point x="432" y="797" type="curve" smooth="yes"/>
      <point x="432" y="810" type="line" smooth="yes"/>
      <point x="432" y="829"/>
      <point x="418" y="845"/>
      <point x="399" y="845" type="curve" smooth="yes"/>
      <point x="385" y="845" type="line" smooth="yes"/>
      <point x="366" y="845"/>
      <point x="352" y="829"/>
      <point x="352" y="810" type="curve" smooth="yes"/>
      <point x="352" y="797" type="line" smooth="yes"/>
      <point x="352" y="778"/>
      <point x="366" y="762"/>
      <point x="385" y="762" type="curve" smooth="yes"/>
    </contour>
  </outline>
</glyph>
<glyph name="Igrave" format="1">
  <advance width="204"/>
  <unicode hex="00CC"/>
  <note>
	Igrave
  </note>
  <outline>
    <contour>
      <point x="106" y="0" type="line" smooth="yes"/>
      <point x="122" y="0"/>
      <point x="129" y="8"/>
      <point x="129" y="23" type="curve" smooth="yes"/>
      <point x="129" y="657" type="line" smooth="yes"/>
      <point x="129" y="672"/>
      <point x="122" y="680"/>
      <point x="106" y="680" type="curve" smooth="yes"/>
      <point x="98" y="680" type="line" smooth="yes"/>
      <point x="82" y="680"/>
      <point x="75" y="672"/>
      <point x="75" y="657" type="curve" smooth="yes"/>
      <point x="75" y="23" type="line" smooth="yes"/>
      <point x="75" y="8"/>
      <point x="82" y="0"/>
      <point x="98" y="0" type="curve" smooth="yes"/>
    </contour>
    <contour>
      <point x="110" y="765" type="line" smooth="yes"/>
      <point x="120" y="765"/>
      <point x="122" y="771"/>
      <point x="118" y="781" type="curve" smooth="yes"/>
      <point x="67" y="922" type="line" smooth="yes"/>
      <point x="63" y="933"/>
      <point x="59" y="936"/>
      <point x="45" y="936" type="curve" smooth="yes"/>
      <point x="18" y="936" type="line" smooth="yes"/>
      <point x="6" y="936"/>
      <point x="3" y="930"/>
      <point x="8" y="920" type="curve" smooth="yes"/>
      <point x="75" y="776" type="line" smooth="yes"/>
      <point x="79" y="768"/>
      <point x="84" y="765"/>
      <point x="95" y="765" type="curve" smooth="yes"/>
    </contour>
  </outline>
</glyph>
<glyph name="Iacute" format="1">
  <advance width="204"/>
  <unicode hex="00CD"/>
  <note>
	Iacute
  </note>
  <outline>
    <contour>
      <point x="106" y="0" type="line" smooth="yes"/>
      <point x="122" y="0"/>
      <point x="129" y="8"/>
      <point x="129" y="23" type="curve" smooth="yes"/>
      <point x="129" y="657" type="line" smooth="yes"/>
      <point x="129" y="672"/>
      <point x="122" y="680"/>
      <point x="106" y="680" type="curve" smooth="yes"/>
      <point x="98" y="680" type="line" smooth="yes"/>
      <point x="82" y="680"/>
      <point x="75" y="672"/>
      <point x="75" y="657" type="curve" smooth="yes"/>
      <point x="75" y="23" type="line" smooth="yes"/>
      <point x="75" y="8"/>
      <point x="82" y="0"/>
      <point x="98" y="0" type="curve" smooth="yes"/>
    </contour>
    <contour>
      <point x="107" y="765" type="line" smooth="yes"/>
      <point x="118" y="765"/>
      <point x="123" y="768"/>
      <point x="127" y="776" type="curve" smooth="yes"/>
      <point x="194" y="920" type="line" smooth="yes"/>
      <point x="199" y="930"/>
      <point x="196" y="936"/>
      <point x="184" y="936" type="curve" smooth="yes"/>
      <point x="157" y="936" type="line" smooth="yes"/>
      <point x="143" y="936"/>
      <point x="139" y="933"/>
      <point x="135" y="922" type="curve" smooth="yes"/>
      <point x="84" y="781" type="line" smooth="yes"/>
      <point x="80" y="771"/>
      <point x="82" y="765"/>
      <point x="92" y="765" type="curve" smooth="yes"/>
    </contour>
  </outline>
</glyph>
<glyph name="Idieresis" format="1">
  <advance width="204"/>
  <unicode hex="00CF"/>
  <note>
	Idieresis
  </note>
  <outline>
    <contour>
      <point x="106" y="0" type="line" smooth="yes"/>
      <point x="122" y="0"/>
      <point x="129" y="8"/>
      <point x="129" y="23" type="curve" smooth="yes"/>
      <point x="129" y="657" type="line" smooth="yes"/>
      <point x="129" y="672"/>
      <point x="122" y="680"/>
      <point x="106" y="680" type="curve" smooth="yes"/>
      <point x="98" y="680" type="line" smooth="yes"/>
      <point x="82" y="680"/>
      <point x="75" y="672"/>
      <point x="75" y="657" type="curve" smooth="yes"/>
      <point x="75" y="23" type="line" smooth="yes"/>
      <point x="75" y="8"/>
      <point x="82" y="0"/>
      <point x="98" y="0" type="curve" smooth="yes"/>
    </contour>
    <contour>
      <point x="19" y="735" type="line" smooth="yes"/>
      <point x="39" y="735"/>
      <point x="52" y="751"/>
      <point x="52" y="770" type="curve" smooth="yes"/>
      <point x="52" y="783" type="line" smooth="yes"/>
      <point x="52" y="802"/>
      <point x="38" y="818"/>
      <point x="19" y="818" type="curve" smooth="yes"/>
      <point x="5" y="818" type="line" smooth="yes"/>
      <point x="-14" y="818"/>
      <point x="-28" y="802"/>
      <point x="-28" y="783" type="curve" smooth="yes"/>
      <point x="-28" y="770" type="line" smooth="yes"/>
      <point x="-28" y="751"/>
      <point x="-14" y="735"/>
      <point x="5" y="735" type="curve" smooth="yes"/>
    </contour>
    <contour>
      <point x="199" y="735" type="line" smooth="yes"/>
      <point x="219" y="735"/>
      <point x="232" y="751"/>
      <point x="232" y="770" type="curve" smooth="yes"/>
      <point x="232" y="783" type="line" smooth="yes"/>
      <point x="232" y="802"/>
      <point x="218" y="818"/>
      <point x="199" y="818" type="curve" smooth="yes"/>
      <point x="185" y="818" type="line" smooth="yes"/>
      <point x="166" y="818"/>
      <point x="152" y="802"/>
      <point x="152" y="783" type="curve" smooth="yes"/>
      <point x="152" y="770" type="line" smooth="yes"/>
      <point x="152" y="751"/>
      <point x="166" y="735"/>
      <point x="185" y="735" type="curve" smooth="yes"/>
    </contour>
  </outline>
</glyph>
<glyph name="Eth" format="1">
  <advance width="727"/>
  <unicode hex="00D0"/>
  <note>
	Eth
  </note>
  <outline>
    <contour>
      <point x="328" y="0" type="line" smooth="yes"/>
      <point x="535" y="0"/>
      <point x="672" y="87"/>
      <point x="672" y="340" type="curve" smooth="yes"/>
      <point x="672" y="593"/>
      <point x="535" y="680"/>
      <point x="328" y="680" type="curve" smooth="yes"/>
      <point x="148" y="680" type="line" smooth="yes"/>
      <point x="132" y="680"/>
      <point x="125" y="672"/>
      <point x="125" y="657" type="curve" smooth="yes"/>
      <point x="125" y="365" type="line"/>
      <point x="58" y="365" type="line" smooth="yes"/>
      <point x="43" y="365"/>
      <point x="35" y="359"/>
      <point x="35" y="343" type="curve" smooth="yes"/>
      <point x="35" y="336" type="line" smooth="yes"/>
      <point x="35" y="320"/>
      <point x="43" y="316"/>
      <point x="58" y="316" type="curve" smooth="yes"/>
      <point x="125" y="316" type="line"/>
      <point x="125" y="23" type="line" smooth="yes"/>
      <point x="125" y="8"/>
      <point x="132" y="0"/>
      <point x="148" y="0" type="curve" smooth="yes"/>
    </contour>
    <contour>
      <point x="179" y="316" type="line"/>
      <point x="376" y="316" type="line" smooth="yes"/>
      <point x="391" y="316"/>
      <point x="399" y="320"/>
      <point x="399" y="336" type="curve" smooth="yes"/>
      <point x="399" y="343" type="line" smooth="yes"/>
      <point x="399" y="359"/>
      <point x="391" y="365"/>
      <point x="376" y="365" type="curve" smooth="yes"/>
      <point x="179" y="365" type="line"/>
      <point x="179" y="631" type="line"/>
      <point x="334" y="631" type="line" smooth="yes"/>
      <point x="509" y="631"/>
      <point x="620" y="561"/>
      <point x="620" y="340" type="curve" smooth="yes"/>
      <point x="620" y="119"/>
      <point x="509" y="49"/>
      <point x="334" y="49" type="curve" smooth="yes"/>
      <point x="179" y="49" type="line"/>
    </contour>
  </outline>
</glyph>
<glyph name="Otilde" format="1">
  <advance width="768"/>
  <unicode hex="00D5"/>
  <note>
	Otilde
  </note>
  <outline>
    <contour>
      <point x="591" y="-15"/>
      <point x="713" y="116"/>
      <point x="713" y="340" type="curve" smooth="yes"/>
      <point x="713" y="564"/>
      <point x="591" y="695"/>
      <point x="384" y="695" type="curve" smooth="yes"/>
      <point x="177" y="695"/>
      <point x="55" y="564"/>
      <point x="55" y="340" type="curve" smooth="yes"/>
      <point x="55" y="116"/>
      <point x="177" y="-15"/>
      <point x="384" y="-15" type="curve" smooth="yes"/>
    </contour>
    <contour>
      <point x="212" y="31"/>
      <point x="107" y="137"/>
      <point x="107" y="340" type="curve" smooth="yes"/>
      <point x="107" y="543"/>
      <point x="212" y="649"/>
      <point x="384" y="649" type="curve" smooth="yes"/>
      <point x="556" y="649"/>
      <point x="661" y="543"/>
      <point x="661" y="340" type="curve" smooth="yes"/>
      <point x="661" y="137"/>
      <point x="556" y="31"/>
      <point x="384" y="31" type="curve" smooth="yes"/>
    </contour>
    <contour>
      <point x="503" y="762"/>
      <point x="539" y="779"/>
      <point x="564" y="810" type="curve" smooth="yes"/>
      <point x="578" y="827"/>
      <point x="576" y="837"/>
      <point x="567" y="845" type="curve" smooth="yes"/>
      <point x="552" y="859"/>
      <point x="539" y="855"/>
      <point x="526" y="839" type="curve" smooth="yes"/>
      <point x="509" y="819"/>
      <point x="490" y="808"/>
      <point x="458" y="808" type="curve" smooth="yes"/>
      <point x="398" y="808"/>
      <point x="390" y="865"/>
      <point x="309" y="865" type="curve" smooth="yes"/>
      <point x="266" y="865"/>
      <point x="230" y="848"/>
      <point x="205" y="817" type="curve" smooth="yes"/>
      <point x="191" y="800"/>
      <point x="193" y="790"/>
      <point x="202" y="782" type="curve" smooth="yes"/>
      <point x="217" y="768"/>
      <point x="230" y="772"/>
      <point x="243" y="788" type="curve" smooth="yes"/>
      <point x="260" y="808"/>
      <point x="279" y="819"/>
      <point x="311" y="819" type="curve" smooth="yes"/>
      <point x="369" y="819"/>
      <point x="383" y="762"/>
      <point x="460" y="762" type="curve" smooth="yes"/>
    </contour>
  </outline>
</glyph>
<glyph name="Odieresis" format="1">
  <advance width="768"/>
  <unicode hex="00D6"/>
  <note>
	Odieresis
  </note>
  <outline>
    <contour>
      <point x="591" y="-15"/>
      <point x="713" y="116"/>
      <point x="713" y="340" type="curve" smooth="yes"/>
      <point x="713" y="564"/>
      <point x="591" y="695"/>
      <point x="384" y="695" type="curve" smooth="yes"/>
      <point x="177" y="695"/>
      <point x="55" y="564"/>
      <point x="55" y="340" type="curve" smooth="yes"/>
      <point x="55" y="116"/>
      <point x="177" y="-15"/>
      <point x="384" y="-15" type="curve" smooth="yes"/>
    </contour>
    <contour>
      <point x="212" y="31"/>
      <point x="107" y="137"/>
      <point x="107" y="340" type="curve" smooth="yes"/>
      <point x="107" y="543"/>
      <point x="212" y="649"/>
      <point x="384" y="649" type="curve" smooth="yes"/>
      <point x="556" y="649"/>
      <point x="661" y="543"/>
      <point x="661" y="340" type="curve" smooth="yes"/>
      <point x="661" y="137"/>
      <point x="556" y="31"/>
      <point x="384" y="31" type="curve" smooth="yes"/>
    </contour>
    <contour>
      <point x="301" y="762" type="line" smooth="yes"/>
      <point x="321" y="762"/>
      <point x="334" y="778"/>
      <point x="334" y="797" type="curve" smooth="yes"/>
      <point x="334" y="810" type="line" smooth="yes"/>
      <point x="334" y="829"/>
      <point x="320" y="845"/>
      <point x="301" y="845" type="curve" smooth="yes"/>
      <point x="287" y="845" type="line" smooth="yes"/>
      <point x="268" y="845"/>
      <point x="254" y="829"/>
      <point x="254" y="810" type="curve" smooth="yes"/>
      <point x="254" y="797" type="line" smooth="yes"/>
      <point x="254" y="778"/>
      <point x="268" y="762"/>
      <point x="287" y="762" type="curve" smooth="yes"/>
    </contour>
    <contour>
      <point x="481" y="762" type="line" smooth="yes"/>
      <point x="501" y="762"/>
      <point x="514" y="778"/>
      <point x="514" y="797" type="curve" smooth="yes"/>
      <point x="514" y="810" type="line" smooth="yes"/>
      <point x="514" y="829"/>
      <point x="500" y="845"/>
      <point x="481" y="845" type="curve" smooth="yes"/>
      <point x="467" y="845" type="line" smooth="yes"/>
      <point x="448" y="845"/>
      <point x="434" y="829"/>
      <point x="434" y="810" type="curve" smooth="yes"/>
      <point x="434" y="797" type="line" smooth="yes"/>
      <point x="434" y="778"/>
      <point x="448" y="762"/>
      <point x="467" y="762" type="curve" smooth="yes"/>
    </contour>
  </outline>
</glyph>
<glyph name="multiply" format="1">
  <advance width="384"/>
  <unicode hex="00D7"/>
  <note>
	multiply
  </note>
  <outline>
    <contour>
      <point x="81" y="155"/>
      <point x="92" y="155"/>
      <point x="102" y="166" type="curve"/>
      <point x="192" y="256" type="line"/>
      <point x="282" y="166" type="line"/>
      <point x="292" y="155"/>
      <point x="303" y="155"/>
      <point x="314" y="166" type="curve" smooth="yes"/>
      <point x="320" y="172" type="line" smooth="yes"/>
      <point x="331" y="183"/>
      <point x="331" y="194"/>
      <point x="320" y="204" type="curve"/>
      <point x="230" y="294" type="line"/>
      <point x="321" y="385" type="line" smooth="yes"/>
      <point x="331" y="395"/>
      <point x="332" y="406"/>
      <point x="321" y="417" type="curve" smooth="yes"/>
      <point x="315" y="423" type="line" smooth="yes"/>
      <point x="304" y="434"/>
      <point x="293" y="433"/>
      <point x="283" y="423" type="curve" smooth="yes"/>
      <point x="192" y="332" type="line"/>
      <point x="101" y="423" type="line" smooth="yes"/>
      <point x="91" y="433"/>
      <point x="80" y="434"/>
      <point x="69" y="423" type="curve" smooth="yes"/>
      <point x="63" y="417" type="line" smooth="yes"/>
      <point x="52" y="406"/>
      <point x="53" y="395"/>
      <point x="63" y="385" type="curve" smooth="yes"/>
      <point x="154" y="294" type="line"/>
      <point x="64" y="204" type="line"/>
      <point x="53" y="194"/>
      <point x="53" y="183"/>
      <point x="64" y="172" type="curve" smooth="yes"/>
      <point x="70" y="166" type="line" smooth="yes"/>
    </contour>
  </outline>
</glyph>
<glyph name="Oslash" format="1">
  <advance width="768"/>
  <unicode hex="00D8"/>
  <note>
	Oslash
  </note>
  <outline>
    <contour>
      <point x="591" y="-15"/>
      <point x="713" y="116"/>
      <point x="713" y="340" type="curve" smooth="yes"/>
      <point x="713" y="564"/>
      <point x="591" y="695"/>
      <point x="384" y="695" type="curve" smooth="yes"/>
      <point x="177" y="695"/>
      <point x="55" y="564"/>
      <point x="55" y="340" type="curve" smooth="yes"/>
      <point x="55" y="116"/>
      <point x="177" y="-15"/>
      <point x="384" y="-15" type="curve" smooth="yes"/>
    </contour>
    <contour>
      <point x="226" y="-86" type="line" smooth="yes"/>
      <point x="234" y="-86"/>
      <point x="238" y="-83"/>
      <point x="241" y="-76" type="curve" smooth="yes"/>
      <point x="575" y="738" type="line" smooth="yes"/>
      <point x="578" y="745"/>
      <point x="578" y="751"/>
      <point x="568" y="751" type="curve" smooth="yes"/>
      <point x="535" y="751" type="line" smooth="yes"/>
      <point x="527" y="751"/>
      <point x="523" y="748"/>
      <point x="520" y="741" type="curve" smooth="yes"/>
      <point x="186" y="-73" type="line" smooth="yes"/>
      <point x="183" y="-80"/>
      <point x="183" y="-86"/>
      <point x="193" y="-86" type="curve" smooth="yes"/>
    </contour>
    <contour>
      <point x="212" y="31"/>
      <point x="107" y="137"/>
      <point x="107" y="340" type="curve" smooth="yes"/>
      <point x="107" y="543"/>
      <point x="212" y="649"/>
      <point x="384" y="649" type="curve" smooth="yes"/>
      <point x="556" y="649"/>
      <point x="661" y="543"/>
      <point x="661" y="340" type="curve" smooth="yes"/>
      <point x="661" y="137"/>
      <point x="556" y="31"/>
      <point x="384" y="31" type="curve" smooth="yes"/>
    </contour>
  </outline>
</glyph>
<glyph name="agrave" format="1">
  <advance width="612"/>
  <unicode hex="00E0"/>
  <note>
	agrave
  </note>
  <outline>
    <contour>
      <point x="364" y="-15"/>
      <point x="435" y="10"/>
      <point x="483" y="71" type="curve"/>
      <point x="486" y="23" type="line" smooth="yes"/>
      <point x="487" y="8"/>
      <point x="491" y="0"/>
      <point x="507" y="0" type="curve" smooth="yes"/>
      <point x="514" y="0" type="line" smooth="yes"/>
      <point x="530" y="0"/>
      <point x="537" y="8"/>
      <point x="537" y="23" type="curve" smooth="yes"/>
      <point x="537" y="439" type="line"/>
      <point x="493" y="469"/>
      <point x="417" y="495"/>
      <point x="340" y="495" type="curve" smooth="yes"/>
      <point x="158" y="495"/>
      <point x="55" y="379"/>
      <point x="55" y="208" type="curve" smooth="yes"/>
      <point x="55" y="63"/>
      <point x="143" y="-15"/>
      <point x="277" y="-15" type="curve" smooth="yes"/>
    </contour>
    <contour>
      <point x="169" y="31"/>
      <point x="107" y="88"/>
      <point x="107" y="214" type="curve" smooth="yes"/>
      <point x="107" y="362"/>
      <point x="196" y="449"/>
      <point x="340" y="449" type="curve" smooth="yes"/>
      <point x="395" y="449"/>
      <point x="449" y="435"/>
      <point x="483" y="415" type="curve"/>
      <point x="483" y="184" type="line" smooth="yes"/>
      <point x="483" y="88"/>
      <point x="386" y="31"/>
      <point x="297" y="31" type="curve" smooth="yes"/>
    </contour>
    <contour>
      <point x="375" y="545" type="line" smooth="yes"/>
      <point x="385" y="545"/>
      <point x="387" y="551"/>
      <point x="383" y="561" type="curve" smooth="yes"/>
      <point x="332" y="702" type="line" smooth="yes"/>
      <point x="328" y="713"/>
      <point x="324" y="716"/>
      <point x="310" y="716" type="curve" smooth="yes"/>
      <point x="283" y="716" type="line" smooth="yes"/>
      <point x="271" y="716"/>
      <point x="268" y="710"/>
      <point x="273" y="700" type="curve" smooth="yes"/>
      <point x="340" y="556" type="line" smooth="yes"/>
      <point x="344" y="548"/>
      <point x="349" y="545"/>
      <point x="360" y="545" type="curve" smooth="yes"/>
    </contour>
  </outline>
</glyph>
<glyph name="acircumflex" format="1">
  <advance width="612"/>
  <unicode hex="00E2"/>
  <note>
	acircumflex
  </note>
  <outline>
    <contour>
      <point x="364" y="-15"/>
      <point x="435" y="10"/>
      <point x="483" y="71" type="curve"/>
      <point x="486" y="23" type="line" smooth="yes"/>
      <point x="487" y="8"/>
      <point x="491" y="0"/>
      <point x="507" y="0" type="curve" smooth="yes"/>
      <point x="514" y="0" type="line" smooth="yes"/>
      <point x="530" y="0"/>
      <point x="537" y="8"/>
      <point x="537" y="23" type="curve" smooth="yes"/>
      <point x="537" y="439" type="line"/>
      <point x="493" y="469"/>
      <point x="417" y="495"/>
      <point x="340" y="495" type="curve" smooth="yes"/>
      <point x="158" y="495"/>
      <point x="55" y="379"/>
      <point x="55" y="208" type="curve" smooth="yes"/>
      <point x="55" y="63"/>
      <point x="143" y="-15"/>
      <point x="277" y="-15" type="curve" smooth="yes"/>
    </contour>
    <contour>
      <point x="169" y="31"/>
      <point x="107" y="88"/>
      <point x="107" y="214" type="curve" smooth="yes"/>
      <point x="107" y="362"/>
      <point x="196" y="449"/>
      <point x="340" y="449" type="curve" smooth="yes"/>
      <point x="395" y="449"/>
      <point x="449" y="435"/>
      <point x="483" y="415" type="curve"/>
      <point x="483" y="184" type="line" smooth="yes"/>
      <point x="483" y="88"/>
      <point x="386" y="31"/>
      <point x="297" y="31" type="curve" smooth="yes"/>
    </contour>
    <contour>
      <point x="212" y="538" type="line" smooth="yes"/>
      <point x="228" y="538"/>
      <point x="231" y="545"/>
      <point x="238" y="555" type="curve" smooth="yes"/>
      <point x="322" y="677" type="line"/>
      <point x="406" y="555" type="line" smooth="yes"/>
      <point x="413" y="545"/>
      <point x="416" y="538"/>
      <point x="432" y="538" type="curve" smooth="yes"/>
      <point x="451" y="538" type="line" smooth="yes"/>
      <point x="461" y="538"/>
      <point x="470" y="547"/>
      <point x="463" y="556" type="curve"/>
      <point x="351" y="712" type="line" smooth="yes"/>
      <point x="343" y="723"/>
      <point x="340" y="729"/>
      <point x="328" y="729" type="curve" smooth="yes"/>
      <point x="316" y="729" type="line" smooth="yes"/>
      <point x="304" y="729"/>
      <point x="301" y="723"/>
      <point x="293" y="712" type="curve" smooth="yes"/>
      <point x="181" y="556" type="line"/>
      <point x="174" y="547"/>
      <point x="183" y="538"/>
      <point x="193" y="538" type="curve" smooth="yes"/>
    </contour>
  </outline>
</glyph>
<glyph name="atilde" format="1">
  <advance width="612"/>
  <unicode hex="00E3"/>
  <note>
	atilde
  </note>
  <outline>
    <contour>
      <point x="364" y="-15"/>
      <point x="435" y="10"/>
      <point x="483" y="71" type="curve"/>
      <point x="486" y="23" type="line" smooth="yes"/>
      <point x="487" y="8"/>
      <point x="491" y="0"/>
      <point x="507" y="0" type="curve" smooth="yes"/>
      <point x="514" y="0" type="line" smooth="yes"/>
      <point x="530" y="0"/>
      <point x="537" y="8"/>
      <point x="537" y="23" type="curve" smooth="yes"/>
      <point x="537" y="439" type="line"/>
      <point x="493" y="469"/>
      <point x="417" y="495"/>
      <point x="340" y="495" type="curve" smooth="yes"/>
      <point x="158" y="495"/>
      <point x="55" y="379"/>
      <point x="55" y="208" type="curve" smooth="yes"/>
      <point x="55" y="63"/>
      <point x="143" y="-15"/>
      <point x="277" y="-15" type="curve" smooth="yes"/>
    </contour>
    <contour>
      <point x="169" y="31"/>
      <point x="107" y="88"/>
      <point x="107" y="214" type="curve" smooth="yes"/>
      <point x="107" y="362"/>
      <point x="196" y="449"/>
      <point x="340" y="449" type="curve" smooth="yes"/>
      <point x="395" y="449"/>
      <point x="449" y="435"/>
      <point x="483" y="415" type="curve"/>
      <point x="483" y="184" type="line" smooth="yes"/>
      <point x="483" y="88"/>
      <point x="386" y="31"/>
      <point x="297" y="31" type="curve" smooth="yes"/>
    </contour>
    <contour>
      <point x="450" y="562"/>
      <point x="486" y="579"/>
      <point x="511" y="610" type="curve" smooth="yes"/>
      <point x="525" y="627"/>
      <point x="523" y="637"/>
      <point x="514" y="645" type="curve" smooth="yes"/>
      <point x="499" y="659"/>
      <point x="486" y="655"/>
      <point x="473" y="639" type="curve" smooth="yes"/>
      <point x="456" y="619"/>
      <point x="437" y="608"/>
      <point x="405" y="608" type="curve" smooth="yes"/>
      <point x="345" y="608"/>
      <point x="337" y="665"/>
      <point x="256" y="665" type="curve" smooth="yes"/>
      <point x="213" y="665"/>
      <point x="177" y="648"/>
      <point x="152" y="617" type="curve" smooth="yes"/>
      <point x="138" y="600"/>
      <point x="140" y="590"/>
      <point x="149" y="582" type="curve" smooth="yes"/>
      <point x="164" y="568"/>
      <point x="177" y="572"/>
      <point x="190" y="588" type="curve" smooth="yes"/>
      <point x="207" y="608"/>
      <point x="226" y="619"/>
      <point x="258" y="619" type="curve" smooth="yes"/>
      <point x="316" y="619"/>
      <point x="330" y="562"/>
      <point x="407" y="562" type="curve" smooth="yes"/>
    </contour>
  </outline>
</glyph>
<glyph name="ccedilla" format="1">
  <advance width="569"/>
  <unicode hex="00E7"/>
  <note>
	ccedilla
  </note>
  <outline>
    <contour>
      <point x="399" y="-15"/>
      <point x="457" y="2"/>
      <point x="506" y="34" type="curve" smooth="yes"/>
      <point x="514" y="39"/>
      <point x="515" y="43"/>
      <point x="511" y="50" type="curve" smooth="yes"/>
      <point x="498" y="72" type="line" smooth="yes"/>
      <point x="494" y="79"/>
      <point x="491" y="80"/>
      <point x="484" y="75" type="curve" smooth="yes"/>
      <point x="446" y="48"/>
      <point x="397" y="31"/>
      <point x="328" y="31" type="curve" smooth="yes"/>
      <point x="190" y="31"/>
      <point x="107" y="96"/>
      <point x="107" y="237" type="curve" smooth="yes"/>
      <point x="107" y="367"/>
      <point x="187" y="449"/>
      <point x="317" y="449" type="curve" smooth="yes"/>
      <point x="393" y="449"/>
      <point x="439" y="433"/>
      <point x="477" y="406" type="curve"/>
      <point x="485" y="401"/>
      <point x="487" y="402"/>
      <point x="491" y="409" type="curve" smooth="yes"/>
      <point x="504" y="431" type="line" smooth="yes"/>
      <point x="509" y="439"/>
      <point x="506" y="442"/>
      <point x="499" y="447" type="curve" smooth="yes"/>
      <point x="448" y="483"/>
      <point x="390" y="495"/>
      <point x="313" y="495" type="curve" smooth="yes"/>
      <point x="159" y="495"/>
      <point x="55" y="389"/>
      <point x="55" y="237" type="curve" smooth="yes"/>
      <point x="55" y="73"/>
      <point x="158" y="-15"/>
      <point x="325" y="-15" type="curve" smooth="yes"/>
    </contour>
    <contour>
      <point x="376" y="-223"/>
      <point x="413" y="-196"/>
      <point x="413" y="-145" type="curve" smooth="yes"/>
      <point x="413" y="-95"/>
      <point x="381" y="-71"/>
      <point x="335" y="-71" type="curve"/>
      <point x="358" y="-21" type="line" smooth="yes"/>
      <point x="363" y="-11"/>
      <point x="360" y="-5"/>
      <point x="348" y="-5" type="curve" smooth="yes"/>
      <point x="322" y="-5" type="line" smooth="yes"/>
      <point x="308" y="-5"/>
      <point x="304" y="-8"/>
      <point x="300" y="-19" type="curve" smooth="yes"/>
      <point x="273" y="-87" type="line" smooth="yes"/>
      <point x="269" y="-97"/>
      <point x="273" y="-103"/>
      <point x="283" y="-103" type="curve" smooth="yes"/>
      <point x="296" y="-103" type="line" smooth="yes"/>
      <point x="341" y="-103"/>
      <point x="365" y="-108"/>
      <point x="365" y="-143" type="curve" smooth="yes"/>
      <point x="365" y="-170"/>
      <point x="353" y="-180"/>
      <point x="320" y="-180" type="curve" smooth="yes"/>
      <point x="304" y="-180"/>
      <point x="284" y="-176"/>
      <point x="271" y="-168" type="curve"/>
      <point x="262" y="-162"/>
      <point x="257" y="-163"/>
      <point x="253" y="-172" type="curve" smooth="yes"/>
      <point x="245" y="-189" type="line"/>
      <point x="241" y="-199"/>
      <point x="244" y="-200"/>
      <point x="255" y="-207" type="curve" smooth="yes"/>
      <point x="271" y="-217"/>
      <point x="296" y="-223"/>
      <point x="320" y="-223" type="curve" smooth="yes"/>
    </contour>
  </outline>
</glyph>
<glyph name="egrave" format="1">
  <advance width="602"/>
  <unicode hex="00E8"/>
  <note>
	egrave
  </note>
  <outline>
    <contour>
      <point x="379" y="-15"/>
      <point x="453" y="-2"/>
      <point x="506" y="32" type="curve" smooth="yes"/>
      <point x="512" y="36"/>
      <point x="516" y="40"/>
      <point x="511" y="48" type="curve" smooth="yes"/>
      <point x="498" y="70" type="line" smooth="yes"/>
      <point x="494" y="77"/>
      <point x="492" y="78"/>
      <point x="484" y="73" type="curve"/>
      <point x="446" y="47"/>
      <point x="389" y="31"/>
      <point x="325" y="31" type="curve" smooth="yes"/>
      <point x="192" y="31"/>
      <point x="108" y="93"/>
      <point x="108" y="216" type="curve"/>
      <point x="527" y="216" type="line" smooth="yes"/>
      <point x="540" y="216"/>
      <point x="547" y="224"/>
      <point x="547" y="236" type="curve" smooth="yes"/>
      <point x="547" y="411"/>
      <point x="466" y="495"/>
      <point x="307" y="495" type="curve" smooth="yes"/>
      <point x="150" y="495"/>
      <point x="55" y="406"/>
      <point x="55" y="230" type="curve" smooth="yes"/>
      <point x="55" y="53"/>
      <point x="179" y="-15"/>
      <point x="317" y="-15" type="curve" smooth="yes"/>
    </contour>
    <contour>
      <point x="108" y="374"/>
      <point x="177" y="449"/>
      <point x="307" y="449" type="curve" smooth="yes"/>
      <point x="435" y="449"/>
      <point x="495" y="379"/>
      <point x="495" y="265" type="curve"/>
      <point x="108" y="265" type="line"/>
    </contour>
    <contour>
      <point x="339" y="545" type="line" smooth="yes"/>
      <point x="349" y="545"/>
      <point x="351" y="551"/>
      <point x="347" y="561" type="curve" smooth="yes"/>
      <point x="296" y="702" type="line" smooth="yes"/>
      <point x="292" y="713"/>
      <point x="288" y="716"/>
      <point x="274" y="716" type="curve" smooth="yes"/>
      <point x="247" y="716" type="line" smooth="yes"/>
      <point x="235" y="716"/>
      <point x="232" y="710"/>
      <point x="237" y="700" type="curve" smooth="yes"/>
      <point x="304" y="556" type="line" smooth="yes"/>
      <point x="308" y="548"/>
      <point x="313" y="545"/>
      <point x="324" y="545" type="curve" smooth="yes"/>
    </contour>
  </outline>
</glyph>
<glyph name="eacute" format="1">
  <advance width="602"/>
  <unicode hex="00E9"/>
  <note>
	eacute
  </note>
  <outline>
    <contour>
      <point x="379" y="-15"/>
      <point x="453" y="-2"/>
      <point x="506" y="32" type="curve" smooth="yes"/>
      <point x="512" y="36"/>
      <point x="516" y="40"/>
      <point x="511" y="48" type="curve" smooth="yes"/>
      <point x="498" y="70" type="line" smooth="yes"/>
      <point x="494" y="77"/>
      <point x="492" y="78"/>
      <point x="484" y="73" type="curve"/>
      <point x="446" y="47"/>
      <point x="389" y="31"/>
      <point x="325" y="31" type="curve" smooth="yes"/>
      <point x="192" y="31"/>
      <point x="108" y="93"/>
      <point x="108" y="216" type="curve"/>
      <point x="527" y="216" type="line" smooth="yes"/>
      <point x="540" y="216"/>
      <point x="547" y="224"/>
      <point x="547" y="236" type="curve" smooth="yes"/>
      <point x="547" y="411"/>
      <point x="466" y="495"/>
      <point x="307" y="495" type="curve" smooth="yes"/>
      <point x="150" y="495"/>
      <point x="55" y="406"/>
      <point x="55" y="230" type="curve" smooth="yes"/>
      <point x="55" y="53"/>
      <point x="179" y="-15"/>
      <point x="317" y="-15" type="curve" smooth="yes"/>
    </contour>
    <contour>
      <point x="108" y="374"/>
      <point x="177" y="449"/>
      <point x="307" y="449" type="curve" smooth="yes"/>
      <point x="435" y="449"/>
      <point x="495" y="379"/>
      <point x="495" y="265" type="curve"/>
      <point x="108" y="265" type="line"/>
    </contour>
    <contour>
      <point x="295" y="545" type="line" smooth="yes"/>
      <point x="306" y="545"/>
      <point x="311" y="548"/>
      <point x="315" y="556" type="curve" smooth="yes"/>
      <point x="382" y="700" type="line" smooth="yes"/>
      <point x="387" y="710"/>
      <point x="384" y="716"/>
      <point x="372" y="716" type="curve" smooth="yes"/>
      <point x="345" y="716" type="line" smooth="yes"/>
      <point x="331" y="716"/>
      <point x="327" y="713"/>
      <point x="323" y="702" type="curve" smooth="yes"/>
      <point x="272" y="561" type="line" smooth="yes"/>
      <point x="268" y="551"/>
      <point x="270" y="545"/>
      <point x="280" y="545" type="curve" smooth="yes"/>
    </contour>
  </outline>
</glyph>
<glyph name="iacute" format="1">
  <advance width="204"/>
  <unicode hex="00ED"/>
  <note>
	iacute
  </note>
  <outline>
    <contour>
      <point x="106" y="0" type="line" smooth="yes"/>
      <point x="122" y="0"/>
      <point x="129" y="8"/>
      <point x="129" y="23" type="curve" smooth="yes"/>
      <point x="129" y="457" type="line" smooth="yes"/>
      <point x="129" y="472"/>
      <point x="122" y="480"/>
      <point x="106" y="480" type="curve" smooth="yes"/>
      <point x="98" y="480" type="line" smooth="yes"/>
      <point x="82" y="480"/>
      <point x="75" y="472"/>
      <point x="75" y="457" type="curve" smooth="yes"/>
      <point x="75" y="23" type="line" smooth="yes"/>
      <point x="75" y="8"/>
      <point x="82" y="0"/>
      <point x="98" y="0" type="curve" smooth="yes"/>
    </contour>
    <contour>
      <point x="105" y="575" type="line" smooth="yes"/>
      <point x="116" y="575"/>
      <point x="121" y="578"/>
      <point x="125" y="586" type="curve" smooth="yes"/>
      <point x="192" y="730" type="line" smooth="yes"/>
      <point x="197" y="740"/>
      <point x="194" y="746"/>
      <point x="182" y="746" type="curve" smooth="yes"/>
      <point x="155" y="746" type="line" smooth="yes"/>
      <point x="141" y="746"/>
      <point x="137" y="743"/>
      <point x="133" y="732" type="curve" smooth="yes"/>
      <point x="82" y="591" type="line" smooth="yes"/>
      <point x="78" y="581"/>
      <point x="80" y="575"/>
      <point x="90" y="575" type="curve" smooth="yes"/>
    </contour>
  </outline>
</glyph>
<glyph name="icircumflex" format="1">
  <advance width="204"/>
  <unicode hex="00EE"/>
  <note>
	icircumflex
  </note>
  <outline>
    <contour>
      <point x="-8" y="568" type="line" smooth="yes"/>
      <point x="8" y="568"/>
      <point x="11" y="575"/>
      <point x="18" y="585" type="curve" smooth="yes"/>
      <point x="102" y="707" type="line"/>
      <point x="186" y="585" type="line" smooth="yes"/>
      <point x="193" y="575"/>
      <point x="196" y="568"/>
      <point x="212" y="568" type="curve" smooth="yes"/>
      <point x="231" y="568" type="line" smooth="yes"/>
      <point x="241" y="568"/>
      <point x="250" y="577"/>
      <point x="243" y="586" type="curve"/>
      <point x="131" y="742" type="line" smooth="yes"/>
      <point x="123" y="753"/>
      <point x="120" y="759"/>
      <point x="108" y="759" type="curve" smooth="yes"/>
      <point x="96" y="759" type="line" smooth="yes"/>
      <point x="84" y="759"/>
      <point x="81" y="753"/>
      <point x="73" y="742" type="curve" smooth="yes"/>
      <point x="-39" y="586" type="line"/>
      <point x="-46" y="577"/>
      <point x="-37" y="568"/>
      <point x="-27" y="568" type="curve" smooth="yes"/>
    </contour>
    <contour>
      <point x="106" y="0" type="line" smooth="yes"/>
      <point x="122" y="0"/>
      <point x="129" y="8"/>
      <point x="129" y="23" type="curve" smooth="yes"/>
      <point x="129" y="457" type="line" smooth="yes"/>
      <point x="129" y="472"/>
      <point x="122" y="480"/>
      <point x="106" y="480" type="curve" smooth="yes"/>
      <point x="98" y="480" type="line" smooth="yes"/>
      <point x="82" y="480"/>
      <point x="75" y="472"/>
      <point x="75" y="457" type="curve" smooth="yes"/>
      <point x="75" y="23" type="line" smooth="yes"/>
      <point x="75" y="8"/>
      <point x="82" y="0"/>
      <point x="98" y="0" type="curve" smooth="yes"/>
    </contour>
  </outline>
</glyph>
<glyph name="idieresis" format="1">
  <advance width="204"/>
  <unicode hex="00EF"/>
  <note>
	idieresis
  </note>
  <outline>
    <contour>
      <point x="106" y="0" type="line" smooth="yes"/>
      <point x="122" y="0"/>
      <point x="129" y="8"/>
      <point x="129" y="23" type="curve" smooth="yes"/>
      <point x="129" y="457" type="line" smooth="yes"/>
      <point x="129" y="472"/>
      <point x="122" y="480"/>
      <point x="106" y="480" type="curve" smooth="yes"/>
      <point x="98" y="480" type="line" smooth="yes"/>
      <point x="82" y="480"/>
      <point x="75" y="472"/>
      <point x="75" y="457" type="curve" smooth="yes"/>
      <point x="75" y="23" type="line" smooth="yes"/>
      <point x="75" y="8"/>
      <point x="82" y="0"/>
      <point x="98" y="0" type="curve" smooth="yes"/>
    </contour>
    <contour>
      <point x="19" y="572" type="line" smooth="yes"/>
      <point x="39" y="572"/>
      <point x="52" y="588"/>
      <point x="52" y="607" type="curve" smooth="yes"/>
      <point x="52" y="620" type="line" smooth="yes"/>
      <point x="52" y="639"/>
      <point x="38" y="655"/>
      <point x="19" y="655" type="curve" smooth="yes"/>
      <point x="5" y="655" type="line" smooth="yes"/>
      <point x="-14" y="655"/>
      <point x="-28" y="639"/>
      <point x="-28" y="620" type="curve" smooth="yes"/>
      <point x="-28" y="607" type="line" smooth="yes"/>
      <point x="-28" y="588"/>
      <point x="-14" y="572"/>
      <point x="5" y="572" type="curve" smooth="yes"/>
    </contour>
    <contour>
      <point x="199" y="572" type="line" smooth="yes"/>
      <point x="219" y="572"/>
      <point x="232" y="588"/>
      <point x="232" y="607" type="curve" smooth="yes"/>
      <point x="232" y="620" type="line" smooth="yes"/>
      <point x="232" y="639"/>
      <point x="218" y="655"/>
      <point x="199" y="655" type="curve" smooth="yes"/>
      <point x="185" y="655" type="line" smooth="yes"/>
      <point x="166" y="655"/>
      <point x="152" y="639"/>
      <point x="152" y="620" type="curve" smooth="yes"/>
      <point x="152" y="607" type="line" smooth="yes"/>
      <point x="152" y="588"/>
      <point x="166" y="572"/>
      <point x="185" y="572" type="curve" smooth="yes"/>
    </contour>
  </outline>
</glyph>
<glyph name="ntilde" format="1">
  <advance width="588"/>
  <unicode hex="00F1"/>
  <note>
	ntilde
  </note>
  <outline>
    <contour>
      <point x="106" y="0" type="line" smooth="yes"/>
      <point x="122" y="0"/>
      <point x="129" y="8"/>
      <point x="129" y="23" type="curve" smooth="yes"/>
      <point x="129" y="304" type="line" smooth="yes"/>
      <point x="129" y="391"/>
      <point x="237" y="449"/>
      <point x="326" y="449" type="curve" smooth="yes"/>
      <point x="413" y="449"/>
      <point x="464" y="418"/>
      <point x="464" y="324" type="curve" smooth="yes"/>
      <point x="464" y="23" type="line" smooth="yes"/>
      <point x="464" y="8"/>
      <point x="471" y="0"/>
      <point x="487" y="0" type="curve" smooth="yes"/>
      <point x="495" y="0" type="line" smooth="yes"/>
      <point x="511" y="0"/>
      <point x="518" y="8"/>
      <point x="518" y="23" type="curve" smooth="yes"/>
      <point x="518" y="327" type="line" smooth="yes"/>
      <point x="518" y="445"/>
      <point x="442" y="495"/>
      <point x="339" y="495" type="curve" smooth="yes"/>
      <point x="245" y="495"/>
      <point x="170" y="459"/>
      <point x="123" y="406" type="curve"/>
      <point x="123" y="457" type="line" smooth="yes"/>
      <point x="123" y="472"/>
      <point x="120" y="480"/>
      <point x="104" y="480" type="curve" smooth="yes"/>
      <point x="94" y="480" type="line" smooth="yes"/>
      <point x="78" y="480"/>
      <point x="75" y="472"/>
      <point x="75" y="457" type="curve" smooth="yes"/>
      <point x="75" y="23" type="line" smooth="yes"/>
      <point x="75" y="8"/>
      <point x="82" y="0"/>
      <point x="98" y="0" type="curve" smooth="yes"/>
    </contour>
    <contour>
      <point x="414" y="562"/>
      <point x="450" y="579"/>
      <point x="475" y="610" type="curve" smooth="yes"/>
      <point x="489" y="627"/>
      <point x="487" y="637"/>
      <point x="478" y="645" type="curve" smooth="yes"/>
      <point x="463" y="659"/>
      <point x="450" y="655"/>
      <point x="437" y="639" type="curve" smooth="yes"/>
      <point x="420" y="619"/>
      <point x="401" y="608"/>
      <point x="369" y="608" type="curve" smooth="yes"/>
      <point x="309" y="608"/>
      <point x="301" y="665"/>
      <point x="220" y="665" type="curve" smooth="yes"/>
      <point x="177" y="665"/>
      <point x="141" y="648"/>
      <point x="116" y="617" type="curve" smooth="yes"/>
      <point x="102" y="600"/>
      <point x="104" y="590"/>
      <point x="113" y="582" type="curve" smooth="yes"/>
      <point x="128" y="568"/>
      <point x="141" y="572"/>
      <point x="154" y="588" type="curve" smooth="yes"/>
      <point x="171" y="608"/>
      <point x="190" y="619"/>
      <point x="222" y="619" type="curve" smooth="yes"/>
      <point x="280" y="619"/>
      <point x="294" y="562"/>
      <point x="371" y="562" type="curve" smooth="yes"/>
    </contour>
  </outline>
</glyph>
<glyph name="oacute" format="1">
  <advance width="618"/>
  <unicode hex="00F3"/>
  <note>
	oacute
  </note>
  <outline>
    <contour>
      <point x="476" y="-15"/>
      <point x="563" y="86"/>
      <point x="563" y="240" type="curve" smooth="yes"/>
      <point x="563" y="394"/>
      <point x="476" y="495"/>
      <point x="309" y="495" type="curve" smooth="yes"/>
      <point x="142" y="495"/>
      <point x="55" y="394"/>
      <point x="55" y="240" type="curve" smooth="yes"/>
      <point x="55" y="86"/>
      <point x="142" y="-15"/>
      <point x="309" y="-15" type="curve" smooth="yes"/>
    </contour>
    <contour>
      <point x="177" y="31"/>
      <point x="107" y="107"/>
      <point x="107" y="240" type="curve" smooth="yes"/>
      <point x="107" y="373"/>
      <point x="177" y="449"/>
      <point x="309" y="449" type="curve" smooth="yes"/>
      <point x="441" y="449"/>
      <point x="511" y="373"/>
      <point x="511" y="240" type="curve" smooth="yes"/>
      <point x="511" y="107"/>
      <point x="441" y="31"/>
      <point x="309" y="31" type="curve" smooth="yes"/>
    </contour>
    <contour>
      <point x="299" y="545" type="line" smooth="yes"/>
      <point x="310" y="545"/>
      <point x="315" y="548"/>
      <point x="319" y="556" type="curve" smooth="yes"/>
      <point x="386" y="700" type="line" smooth="yes"/>
      <point x="391" y="710"/>
      <point x="388" y="716"/>
      <point x="376" y="716" type="curve" smooth="yes"/>
      <point x="349" y="716" type="line" smooth="yes"/>
      <point x="335" y="716"/>
      <point x="331" y="713"/>
      <point x="327" y="702" type="curve" smooth="yes"/>
      <point x="276" y="561" type="line" smooth="yes"/>
      <point x="272" y="551"/>
      <point x="274" y="545"/>
      <point x="284" y="545" type="curve" smooth="yes"/>
    </contour>
  </outline>
</glyph>
<glyph name="uacute" format="1">
  <advance width="578"/>
  <unicode hex="00FA"/>
  <note>
	uacute
  </note>
  <outline>
    <contour>
      <point x="353" y="-15"/>
      <point x="411" y="23"/>
      <point x="455" y="76" type="curve"/>
      <point x="455" y="23" type="line" smooth="yes"/>
      <point x="455" y="8"/>
      <point x="458" y="0"/>
      <point x="474" y="0" type="curve" smooth="yes"/>
      <point x="484" y="0" type="line" smooth="yes"/>
      <point x="500" y="0"/>
      <point x="503" y="8"/>
      <point x="503" y="23" type="curve" smooth="yes"/>
      <point x="503" y="457" type="line" smooth="yes"/>
      <point x="503" y="472"/>
      <point x="496" y="480"/>
      <point x="480" y="480" type="curve" smooth="yes"/>
      <point x="472" y="480" type="line" smooth="yes"/>
      <point x="456" y="480"/>
      <point x="449" y="472"/>
      <point x="449" y="457" type="curve" smooth="yes"/>
      <point x="449" y="178" type="line" smooth="yes"/>
      <point x="449" y="91"/>
      <point x="364" y="31"/>
      <point x="267" y="31" type="curve" smooth="yes"/>
      <point x="177" y="31"/>
      <point x="124" y="67"/>
      <point x="124" y="161" type="curve" smooth="yes"/>
      <point x="124" y="457" type="line" smooth="yes"/>
      <point x="124" y="472"/>
      <point x="117" y="480"/>
      <point x="101" y="480" type="curve" smooth="yes"/>
      <point x="93" y="480" type="line" smooth="yes"/>
      <point x="77" y="480"/>
      <point x="70" y="472"/>
      <point x="70" y="457" type="curve" smooth="yes"/>
      <point x="70" y="162" type="line" smooth="yes"/>
      <point x="70" y="44"/>
      <point x="149" y="-15"/>
      <point x="254" y="-15" type="curve" smooth="yes"/>
    </contour>
    <contour>
      <point x="279" y="545" type="line" smooth="yes"/>
      <point x="290" y="545"/>
      <point x="295" y="548"/>
      <point x="299" y="556" type="curve" smooth="yes"/>
      <point x="366" y="700" type="line" smooth="yes"/>
      <point x="371" y="710"/>
      <point x="368" y="716"/>
      <point x="356" y="716" type="curve" smooth="yes"/>
      <point x="329" y="716" type="line" smooth="yes"/>
      <point x="315" y="716"/>
      <point x="311" y="713"/>
      <point x="307" y="702" type="curve" smooth="yes"/>
      <point x="256" y="561" type="line" smooth="yes"/>
      <point x="252" y="551"/>
      <point x="254" y="545"/>
      <point x="264" y="545" type="curve" smooth="yes"/>
    </contour>
  </outline>
</glyph>
<glyph name="thorn" format="1">
  <advance width="612"/>
  <unicode hex="00FE"/>
  <note>
	thorn
  </note>
  <outline>
    <contour>
      <point x="106" y="-202" type="line" smooth="yes"/>
      <point x="122" y="-202"/>
      <point x="129" y="-194"/>
      <point x="129" y="-179" type="curve" smooth="yes"/>
      <point x="129" y="71" type="line"/>
      <point x="177" y="10"/>
      <point x="239" y="-15"/>
      <point x="326" y="-15" type="curve" smooth="yes"/>
      <point x="464" y="-15"/>
      <point x="557" y="77"/>
      <point x="557" y="240" type="curve" smooth="yes"/>
      <point x="557" y="411"/>
      <point x="463" y="495"/>
      <point x="278" y="495" type="curve" smooth="yes"/>
      <point x="226" y="495"/>
      <point x="172" y="485"/>
      <point x="129" y="469" type="curve"/>
      <point x="129" y="672" type="line" smooth="yes"/>
      <point x="129" y="687"/>
      <point x="122" y="695"/>
      <point x="106" y="695" type="curve" smooth="yes"/>
      <point x="98" y="695" type="line" smooth="yes"/>
      <point x="82" y="695"/>
      <point x="75" y="687"/>
      <point x="75" y="672" type="curve" smooth="yes"/>
      <point x="75" y="-179" type="line" smooth="yes"/>
      <point x="75" y="-194"/>
      <point x="82" y="-202"/>
      <point x="98" y="-202" type="curve" smooth="yes"/>
    </contour>
    <contour>
      <point x="220" y="32"/>
      <point x="129" y="88"/>
      <point x="129" y="184" type="curve" smooth="yes"/>
      <point x="129" y="420" type="line"/>
      <point x="162" y="437"/>
      <point x="219" y="449"/>
      <point x="278" y="449" type="curve" smooth="yes"/>
      <point x="427" y="449"/>
      <point x="505" y="394"/>
      <point x="505" y="246" type="curve" smooth="yes"/>
      <point x="505" y="107"/>
      <point x="443" y="32"/>
      <point x="309" y="32" type="curve" smooth="yes"/>
    </contour>
  </outline>
</glyph>
<glyph name="amacron" format="1">
  <advance width="612"/>
  <unicode hex="0101"/>
  <note>
	amacron
  </note>
  <outline>
    <contour>
      <point x="364" y="-15"/>
      <point x="435" y="10"/>
      <point x="483" y="71" type="curve"/>
      <point x="486" y="23" type="line" smooth="yes"/>
      <point x="487" y="8"/>
      <point x="491" y="0"/>
      <point x="507" y="0" type="curve" smooth="yes"/>
      <point x="514" y="0" type="line" smooth="yes"/>
      <point x="530" y="0"/>
      <point x="537" y="8"/>
      <point x="537" y="23" type="curve" smooth="yes"/>
      <point x="537" y="439" type="line"/>
      <point x="493" y="469"/>
      <point x="417" y="495"/>
      <point x="340" y="495" type="curve" smooth="yes"/>
      <point x="158" y="495"/>
      <point x="55" y="379"/>
      <point x="55" y="208" type="curve" smooth="yes"/>
      <point x="55" y="63"/>
      <point x="143" y="-15"/>
      <point x="277" y="-15" type="curve" smooth="yes"/>
    </contour>
    <contour>
      <point x="169" y="31"/>
      <point x="107" y="88"/>
      <point x="107" y="214" type="curve" smooth="yes"/>
      <point x="107" y="362"/>
      <point x="196" y="449"/>
      <point x="340" y="449" type="curve" smooth="yes"/>
      <point x="395" y="449"/>
      <point x="449" y="435"/>
      <point x="483" y="415" type="curve"/>
      <point x="483" y="184" type="line" smooth="yes"/>
      <point x="483" y="88"/>
      <point x="386" y="31"/>
      <point x="297" y="31" type="curve" smooth="yes"/>
    </contour>
    <contour>
      <point x="481" y="591" type="line" smooth="yes"/>
      <point x="496" y="591"/>
      <point x="504" y="595"/>
      <point x="504" y="611" type="curve" smooth="yes"/>
      <point x="504" y="618" type="line" smooth="yes"/>
      <point x="504" y="634"/>
      <point x="496" y="640"/>
      <point x="481" y="640" type="curve" smooth="yes"/>
      <point x="203" y="640" type="line" smooth="yes"/>
      <point x="188" y="640"/>
      <point x="180" y="634"/>
      <point x="180" y="618" type="curve" smooth="yes"/>
      <point x="180" y="611" type="line" smooth="yes"/>
      <point x="180" y="595"/>
      <point x="188" y="591"/>
      <point x="203" y="591" type="curve" smooth="yes"/>
    </contour>
  </outline>
</glyph>
<glyph name="abreve" format="1">
  <advance width="612"/>
  <unicode hex="0103"/>
  <note>
	abreve
  </note>
  <outline>
    <contour>
      <point x="364" y="-15"/>
      <point x="435" y="10"/>
      <point x="483" y="71" type="curve"/>
      <point x="486" y="23" type="line" smooth="yes"/>
      <point x="487" y="8"/>
      <point x="491" y="0"/>
      <point x="507" y="0" type="curve" smooth="yes"/>
      <point x="514" y="0" type="line" smooth="yes"/>
      <point x="530" y="0"/>
      <point x="537" y="8"/>
      <point x="537" y="23" type="curve" smooth="yes"/>
      <point x="537" y="439" type="line"/>
      <point x="493" y="469"/>
      <point x="417" y="495"/>
      <point x="340" y="495" type="curve" smooth="yes"/>
      <point x="158" y="495"/>
      <point x="55" y="379"/>
      <point x="55" y="208" type="curve" smooth="yes"/>
      <point x="55" y="63"/>
      <point x="143" y="-15"/>
      <point x="277" y="-15" type="curve" smooth="yes"/>
    </contour>
    <contour>
      <point x="169" y="31"/>
      <point x="107" y="88"/>
      <point x="107" y="214" type="curve" smooth="yes"/>
      <point x="107" y="362"/>
      <point x="196" y="449"/>
      <point x="340" y="449" type="curve" smooth="yes"/>
      <point x="395" y="449"/>
      <point x="449" y="435"/>
      <point x="483" y="415" type="curve"/>
      <point x="483" y="184" type="line" smooth="yes"/>
      <point x="483" y="88"/>
      <point x="386" y="31"/>
      <point x="297" y="31" type="curve" smooth="yes"/>
    </contour>
    <contour>
      <point x="435" y="538"/>
      <point x="479" y="601"/>
      <point x="479" y="691" type="curve" smooth="yes"/>
      <point x="479" y="702"/>
      <point x="473" y="709"/>
      <point x="463" y="709" type="curve" smooth="yes"/>
      <point x="439" y="709" type="line" smooth="yes"/>
      <point x="425" y="709"/>
      <point x="422" y="702"/>
      <point x="422" y="690" type="curve" smooth="yes"/>
      <point x="422" y="633"/>
      <point x="408" y="589"/>
      <point x="338" y="589" type="curve" smooth="yes"/>
      <point x="268" y="589"/>
      <point x="254" y="633"/>
      <point x="254" y="690" type="curve" smooth="yes"/>
      <point x="254" y="702"/>
      <point x="251" y="709"/>
      <point x="237" y="709" type="curve" smooth="yes"/>
      <point x="213" y="709" type="line" smooth="yes"/>
      <point x="203" y="709"/>
      <point x="197" y="702"/>
      <point x="197" y="691" type="curve" smooth="yes"/>
      <point x="197" y="601"/>
      <point x="241" y="538"/>
      <point x="338" y="538" type="curve" smooth="yes"/>
    </contour>
  </outline>
</glyph>
<glyph name="Aogonek" format="1">
  <advance width="720"/>
  <unicode hex="0104"/>
  <note>
	Aogonek
  </note>
  <outline>
    <contour>
      <point x="88" y="0" type="line" smooth="yes"/>
      <point x="104" y="0"/>
      <point x="108" y="6"/>
      <point x="113" y="17" type="curve" smooth="yes"/>
      <point x="189" y="197" type="line"/>
      <point x="531" y="197" type="line"/>
      <point x="607" y="17" type="line" smooth="yes"/>
      <point x="612" y="6"/>
      <point x="616" y="0"/>
      <point x="632" y="0" type="curve" smooth="yes"/>
      <point x="651" y="0" type="line" smooth="yes"/>
      <point x="661" y="0"/>
      <point x="667" y="8"/>
      <point x="663" y="18" type="curve" smooth="yes"/>
      <point x="389" y="663" type="line" smooth="yes"/>
      <point x="384" y="676"/>
      <point x="381" y="680"/>
      <point x="369" y="680" type="curve" smooth="yes"/>
      <point x="351" y="680" type="line" smooth="yes"/>
      <point x="339" y="680"/>
      <point x="336" y="676"/>
      <point x="331" y="663" type="curve" smooth="yes"/>
      <point x="57" y="18" type="line" smooth="yes"/>
      <point x="53" y="8"/>
      <point x="59" y="0"/>
      <point x="69" y="0" type="curve" smooth="yes"/>
    </contour>
    <contour>
      <point x="628" y="-197"/>
      <point x="648" y="-195"/>
      <point x="659" y="-189" type="curve"/>
      <point x="671" y="-183"/>
      <point x="672" y="-179"/>
      <point x="669" y="-172" type="curve" smooth="yes"/>
      <point x="659" y="-150" type="line" smooth="yes"/>
      <point x="655" y="-141"/>
      <point x="652" y="-142"/>
      <point x="645" y="-145" type="curve"/>
      <point x="639" y="-148"/>
      <point x="632" y="-149"/>
      <point x="623" y="-149" type="curve" smooth="yes"/>
      <point x="608" y="-149"/>
      <point x="599" y="-139"/>
      <point x="599" y="-122" type="curve" smooth="yes"/>
      <point x="599" y="-93"/>
      <point x="610" y="-66"/>
      <point x="656" y="-10" type="curve" smooth="yes"/>
      <point x="663" y="-2"/>
      <point x="658" y="6"/>
      <point x="646" y="6" type="curve" smooth="yes"/>
      <point x="625" y="6" type="line" smooth="yes"/>
      <point x="612" y="6"/>
      <point x="608" y="2"/>
      <point x="600" y="-7" type="curve" smooth="yes"/>
      <point x="556" y="-57"/>
      <point x="539" y="-94"/>
      <point x="539" y="-130" type="curve" smooth="yes"/>
      <point x="539" y="-166"/>
      <point x="563" y="-197"/>
      <point x="612" y="-197" type="curve" smooth="yes"/>
    </contour>
    <contour>
      <point x="360" y="601" type="line"/>
      <point x="510" y="246" type="line"/>
      <point x="209" y="246" type="line"/>
    </contour>
  </outline>
</glyph>
<glyph name="Cacute" format="1">
  <advance width="675"/>
  <unicode hex="0106"/>
  <note>
	Cacute
  </note>
  <outline>
    <contour>
      <point x="487" y="-15"/>
      <point x="557" y="0"/>
      <point x="612" y="35" type="curve" smooth="yes"/>
      <point x="620" y="40"/>
      <point x="621" y="44"/>
      <point x="617" y="51" type="curve" smooth="yes"/>
      <point x="604" y="73" type="line" smooth="yes"/>
      <point x="600" y="80"/>
      <point x="597" y="81"/>
      <point x="590" y="76" type="curve"/>
      <point x="541" y="45"/>
      <point x="480" y="31"/>
      <point x="394" y="31" type="curve" smooth="yes"/>
      <point x="230" y="31"/>
      <point x="107" y="122"/>
      <point x="107" y="340" type="curve" smooth="yes"/>
      <point x="107" y="558"/>
      <point x="225" y="649"/>
      <point x="394" y="649" type="curve" smooth="yes"/>
      <point x="474" y="649"/>
      <point x="538" y="631"/>
      <point x="576" y="606" type="curve" smooth="yes"/>
      <point x="584" y="601"/>
      <point x="586" y="602"/>
      <point x="590" y="609" type="curve" smooth="yes"/>
      <point x="603" y="631" type="line" smooth="yes"/>
      <point x="608" y="639"/>
      <point x="605" y="642"/>
      <point x="598" y="647" type="curve"/>
      <point x="547" y="680"/>
      <point x="470" y="695"/>
      <point x="393" y="695" type="curve" smooth="yes"/>
      <point x="176" y="695"/>
      <point x="55" y="562"/>
      <point x="55" y="340" type="curve" smooth="yes"/>
      <point x="55" y="118"/>
      <point x="176" y="-15"/>
      <point x="393" y="-15" type="curve" smooth="yes"/>
    </contour>
    <contour>
      <point x="378" y="765" type="line" smooth="yes"/>
      <point x="389" y="765"/>
      <point x="394" y="768"/>
      <point x="398" y="776" type="curve" smooth="yes"/>
      <point x="465" y="920" type="line" smooth="yes"/>
      <point x="470" y="930"/>
      <point x="467" y="936"/>
      <point x="455" y="936" type="curve" smooth="yes"/>
      <point x="428" y="936" type="line" smooth="yes"/>
      <point x="414" y="936"/>
      <point x="410" y="933"/>
      <point x="406" y="922" type="curve" smooth="yes"/>
      <point x="355" y="781" type="line" smooth="yes"/>
      <point x="351" y="771"/>
      <point x="353" y="765"/>
      <point x="363" y="765" type="curve" smooth="yes"/>
    </contour>
  </outline>
</glyph>
<glyph name="Ccircumflex" format="1">
  <advance width="675"/>
  <unicode hex="0108"/>
  <note>
	Ccircumflex
  </note>
  <outline>
    <contour>
      <point x="487" y="-15"/>
      <point x="557" y="0"/>
      <point x="612" y="35" type="curve" smooth="yes"/>
      <point x="620" y="40"/>
      <point x="621" y="44"/>
      <point x="617" y="51" type="curve" smooth="yes"/>
      <point x="604" y="73" type="line" smooth="yes"/>
      <point x="600" y="80"/>
      <point x="597" y="81"/>
      <point x="590" y="76" type="curve"/>
      <point x="541" y="45"/>
      <point x="480" y="31"/>
      <point x="394" y="31" type="curve" smooth="yes"/>
      <point x="230" y="31"/>
      <point x="107" y="122"/>
      <point x="107" y="340" type="curve" smooth="yes"/>
      <point x="107" y="558"/>
      <point x="225" y="649"/>
      <point x="394" y="649" type="curve" smooth="yes"/>
      <point x="474" y="649"/>
      <point x="538" y="631"/>
      <point x="576" y="606" type="curve" smooth="yes"/>
      <point x="584" y="601"/>
      <point x="586" y="602"/>
      <point x="590" y="609" type="curve" smooth="yes"/>
      <point x="603" y="631" type="line" smooth="yes"/>
      <point x="608" y="639"/>
      <point x="605" y="642"/>
      <point x="598" y="647" type="curve"/>
      <point x="547" y="680"/>
      <point x="470" y="695"/>
      <point x="393" y="695" type="curve" smooth="yes"/>
      <point x="176" y="695"/>
      <point x="55" y="562"/>
      <point x="55" y="340" type="curve" smooth="yes"/>
      <point x="55" y="118"/>
      <point x="176" y="-15"/>
      <point x="393" y="-15" type="curve" smooth="yes"/>
    </contour>
    <contour>
      <point x="282" y="746" type="line" smooth="yes"/>
      <point x="298" y="746"/>
      <point x="301" y="753"/>
      <point x="308" y="763" type="curve" smooth="yes"/>
      <point x="392" y="885" type="line"/>
      <point x="476" y="763" type="line" smooth="yes"/>
      <point x="483" y="753"/>
      <point x="486" y="746"/>
      <point x="502" y="746" type="curve" smooth="yes"/>
      <point x="521" y="746" type="line" smooth="yes"/>
      <point x="531" y="746"/>
      <point x="540" y="755"/>
      <point x="533" y="764" type="curve"/>
      <point x="421" y="920" type="line" smooth="yes"/>
      <point x="413" y="931"/>
      <point x="410" y="937"/>
      <point x="398" y="937" type="curve" smooth="yes"/>
      <point x="386" y="937" type="line" smooth="yes"/>
      <point x="374" y="937"/>
      <point x="371" y="931"/>
      <point x="363" y="920" type="curve" smooth="yes"/>
      <point x="251" y="764" type="line"/>
      <point x="244" y="755"/>
      <point x="253" y="746"/>
      <point x="263" y="746" type="curve" smooth="yes"/>
    </contour>
  </outline>
</glyph>
<glyph name="ccircumflex" format="1">
  <advance width="569"/>
  <unicode hex="0109"/>
  <note>
	ccircumflex
  </note>
  <outline>
    <contour>
      <point x="399" y="-15"/>
      <point x="457" y="2"/>
      <point x="506" y="34" type="curve" smooth="yes"/>
      <point x="514" y="39"/>
      <point x="515" y="43"/>
      <point x="511" y="50" type="curve" smooth="yes"/>
      <point x="498" y="72" type="line" smooth="yes"/>
      <point x="494" y="79"/>
      <point x="491" y="80"/>
      <point x="484" y="75" type="curve" smooth="yes"/>
      <point x="446" y="48"/>
      <point x="397" y="31"/>
      <point x="328" y="31" type="curve" smooth="yes"/>
      <point x="190" y="31"/>
      <point x="107" y="96"/>
      <point x="107" y="237" type="curve" smooth="yes"/>
      <point x="107" y="367"/>
      <point x="187" y="449"/>
      <point x="317" y="449" type="curve" smooth="yes"/>
      <point x="393" y="449"/>
      <point x="439" y="433"/>
      <point x="477" y="406" type="curve"/>
      <point x="485" y="401"/>
      <point x="487" y="402"/>
      <point x="491" y="409" type="curve" smooth="yes"/>
      <point x="504" y="431" type="line" smooth="yes"/>
      <point x="509" y="439"/>
      <point x="506" y="442"/>
      <point x="499" y="447" type="curve" smooth="yes"/>
      <point x="448" y="483"/>
      <point x="390" y="495"/>
      <point x="313" y="495" type="curve" smooth="yes"/>
      <point x="159" y="495"/>
      <point x="55" y="389"/>
      <point x="55" y="237" type="curve" smooth="yes"/>
      <point x="55" y="73"/>
      <point x="158" y="-15"/>
      <point x="325" y="-15" type="curve" smooth="yes"/>
    </contour>
    <contour>
      <point x="213" y="538" type="line" smooth="yes"/>
      <point x="229" y="538"/>
      <point x="232" y="545"/>
      <point x="239" y="555" type="curve" smooth="yes"/>
      <point x="323" y="677" type="line"/>
      <point x="407" y="555" type="line" smooth="yes"/>
      <point x="414" y="545"/>
      <point x="417" y="538"/>
      <point x="433" y="538" type="curve" smooth="yes"/>
      <point x="452" y="538" type="line" smooth="yes"/>
      <point x="462" y="538"/>
      <point x="471" y="547"/>
      <point x="464" y="556" type="curve"/>
      <point x="352" y="712" type="line" smooth="yes"/>
      <point x="344" y="723"/>
      <point x="341" y="729"/>
      <point x="329" y="729" type="curve" smooth="yes"/>
      <point x="317" y="729" type="line" smooth="yes"/>
      <point x="305" y="729"/>
      <point x="302" y="723"/>
      <point x="294" y="712" type="curve" smooth="yes"/>
      <point x="182" y="556" type="line"/>
      <point x="175" y="547"/>
      <point x="184" y="538"/>
      <point x="194" y="538" type="curve" smooth="yes"/>
    </contour>
  </outline>
</glyph>
<glyph name="Ccaron" format="1">
  <advance width="675"/>
  <unicode hex="010C"/>
  <note>
	Ccaron
  </note>
  <outline>
    <contour>
      <point x="487" y="-15"/>
      <point x="557" y="0"/>
      <point x="612" y="35" type="curve" smooth="yes"/>
      <point x="620" y="40"/>
      <point x="621" y="44"/>
      <point x="617" y="51" type="curve" smooth="yes"/>
      <point x="604" y="73" type="line" smooth="yes"/>
      <point x="600" y="80"/>
      <point x="597" y="81"/>
      <point x="590" y="76" type="curve"/>
      <point x="541" y="45"/>
      <point x="480" y="31"/>
      <point x="394" y="31" type="curve" smooth="yes"/>
      <point x="230" y="31"/>
      <point x="107" y="122"/>
      <point x="107" y="340" type="curve" smooth="yes"/>
      <point x="107" y="558"/>
      <point x="225" y="649"/>
      <point x="394" y="649" type="curve" smooth="yes"/>
      <point x="474" y="649"/>
      <point x="538" y="631"/>
      <point x="576" y="606" type="curve" smooth="yes"/>
      <point x="584" y="601"/>
      <point x="586" y="602"/>
      <point x="590" y="609" type="curve" smooth="yes"/>
      <point x="603" y="631" type="line" smooth="yes"/>
      <point x="608" y="639"/>
      <point x="605" y="642"/>
      <point x="598" y="647" type="curve"/>
      <point x="547" y="680"/>
      <point x="470" y="695"/>
      <point x="393" y="695" type="curve" smooth="yes"/>
      <point x="176" y="695"/>
      <point x="55" y="562"/>
      <point x="55" y="340" type="curve" smooth="yes"/>
      <point x="55" y="118"/>
      <point x="176" y="-15"/>
      <point x="393" y="-15" type="curve" smooth="yes"/>
    </contour>
    <contour>
      <point x="409" y="758" type="line" smooth="yes"/>
      <point x="421" y="758"/>
      <point x="424" y="764"/>
      <point x="432" y="775" type="curve" smooth="yes"/>
      <point x="544" y="931" type="line"/>
      <point x="551" y="940"/>
      <point x="542" y="949"/>
      <point x="532" y="949" type="curve" smooth="yes"/>
      <point x="513" y="949" type="line" smooth="yes"/>
      <point x="497" y="949"/>
      <point x="494" y="942"/>
      <point x="487" y="932" type="curve" smooth="yes"/>
      <point x="403" y="810" type="line"/>
      <point x="319" y="932" type="line" smooth="yes"/>
      <point x="312" y="942"/>
      <point x="309" y="949"/>
      <point x="293" y="949" type="curve" smooth="yes"/>
      <point x="274" y="949" type="line" smooth="yes"/>
      <point x="264" y="949"/>
      <point x="255" y="940"/>
      <point x="262" y="931" type="curve"/>
      <point x="374" y="775" type="line" smooth="yes"/>
      <point x="382" y="764"/>
      <point x="385" y="758"/>
      <point x="397" y="758" type="curve" smooth="yes"/>
    </contour>
  </outline>
</glyph>
<glyph name="Dcaron" format="1">
  <advance width="677"/>
  <unicode hex="010E"/>
  <note>
	Dcaron
  </note>
  <outline>
    <contour>
      <point x="278" y="0" type="line" smooth="yes"/>
      <point x="485" y="0"/>
      <point x="622" y="87"/>
      <point x="622" y="340" type="curve" smooth="yes"/>
      <point x="622" y="593"/>
      <point x="485" y="680"/>
      <point x="278" y="680" type="curve" smooth="yes"/>
      <point x="98" y="680" type="line" smooth="yes"/>
      <point x="82" y="680"/>
      <point x="75" y="672"/>
      <point x="75" y="657" type="curve" smooth="yes"/>
      <point x="75" y="23" type="line" smooth="yes"/>
      <point x="75" y="8"/>
      <point x="82" y="0"/>
      <point x="98" y="0" type="curve" smooth="yes"/>
    </contour>
    <contour>
      <point x="129" y="631" type="line"/>
      <point x="284" y="631" type="line" smooth="yes"/>
      <point x="459" y="631"/>
      <point x="570" y="561"/>
      <point x="570" y="340" type="curve" smooth="yes"/>
      <point x="570" y="119"/>
      <point x="459" y="49"/>
      <point x="284" y="49" type="curve" smooth="yes"/>
      <point x="129" y="49" type="line"/>
    </contour>
    <contour>
      <point x="297" y="758" type="line" smooth="yes"/>
      <point x="309" y="758"/>
      <point x="312" y="764"/>
      <point x="320" y="775" type="curve" smooth="yes"/>
      <point x="432" y="931" type="line"/>
      <point x="439" y="940"/>
      <point x="430" y="949"/>
      <point x="420" y="949" type="curve" smooth="yes"/>
      <point x="401" y="949" type="line" smooth="yes"/>
      <point x="385" y="949"/>
      <point x="382" y="942"/>
      <point x="375" y="932" type="curve" smooth="yes"/>
      <point x="291" y="810" type="line"/>
      <point x="207" y="932" type="line" smooth="yes"/>
      <point x="200" y="942"/>
      <point x="197" y="949"/>
      <point x="181" y="949" type="curve" smooth="yes"/>
      <point x="162" y="949" type="line" smooth="yes"/>
      <point x="152" y="949"/>
      <point x="143" y="940"/>
      <point x="150" y="931" type="curve"/>
      <point x="262" y="775" type="line" smooth="yes"/>
      <point x="270" y="764"/>
      <point x="273" y="758"/>
      <point x="285" y="758" type="curve" smooth="yes"/>
    </contour>
  </outline>
</glyph>
